<?xml version="1.0" encoding="UTF-8" standalone="no"?>
<!DOCTYPE svg PUBLIC "-//W3C//DTD SVG 1.1//EN"
 "http://www.w3.org/Graphics/SVG/1.1/DTD/svg11.dtd">
<!-- Generated by graphviz version 2.34.0 (20140110.0949)
 -->
<!-- Title: arrow Pages: 1 -->
<svg width="936pt" height="126pt"
 viewBox="0.00 0.00 936.00 126.00" xmlns="http://www.w3.org/2000/svg" xmlns:xlink="http://www.w3.org/1999/xlink">
<g id="graph0" class="graph" transform="scale(1 1) rotate(0) translate(4 122)">
<title>arrow</title>
<polygon fill="white" stroke="white" points="-4,4 -4,-122 932,-122 932,4 -4,4"/>
<!-- box -->
<g id="node1" class="node"><title>box</title>
<ellipse fill="none" stroke="black" cx="27" cy="-23" rx="27" ry="18"/>
<text text-anchor="middle" x="27" y="-19.3" font-family="Times,serif" font-size="14.00">box</text>
</g>
<!-- crow -->
<g id="node2" class="node"><title>crow</title>
<ellipse fill="none" stroke="black" cx="119" cy="-46" rx="28.6953" ry="18"/>
<text text-anchor="middle" x="119" y="-42.3" font-family="Times,serif" font-size="14.00">crow</text>
</g>
<!-- box&#45;&gt;crow -->
<g id="edge1" class="edge"><title>box&#45;&gt;crow</title>
<path fill="none" stroke="black" d="M52.5929,-29.2849C61.805,-31.639 72.4646,-34.3632 82.47,-36.9201"/>
<polygon fill="black" stroke="black" points="93.1699,-35.526 91.1891,-43.2769 83.4381,-41.296 85.419,-33.5451 93.1699,-35.526"/>
<polyline fill="none" stroke="black" points="84.4286,-37.4206 82.4908,-36.9254 "/>
</g>
<!-- curve -->
<g id="node3" class="node"><title>curve</title>
<ellipse fill="none" stroke="black" cx="215" cy="-46" rx="30.5947" ry="18"/>
<text text-anchor="middle" x="215" y="-42.3" font-family="Times,serif" font-size="14.00">curve</text>
</g>
<!-- crow&#45;&gt;curve -->
<g id="edge2" class="edge"><title>crow&#45;&gt;curve</title>
<path fill="none" stroke="black" d="M147.695,-46C155.947,-46 165.16,-46 174.031,-46"/>
<polygon fill="black" stroke="black" points="174.209,-46.0001 184.209,-50.5 179.209,-46 184.209,-46 184.209,-46 184.209,-46 179.209,-46 184.209,-41.5 174.209,-46.0001 174.209,-46.0001"/>
</g>
<!-- diamond -->
<g id="node4" class="node"><title>diamond</title>
<ellipse fill="none" stroke="black" cx="324" cy="-46" rx="42.4939" ry="18"/>
<text text-anchor="middle" x="324" y="-42.3" font-family="Times,serif" font-size="14.00">diamond</text>
</g>
<!-- curve&#45;&gt;diamond -->
<g id="edge3" class="edge"><title>curve&#45;&gt;diamond</title>
<path fill="none" stroke="black" d="M245.805,-46C253.717,-46 262.494,-46 271.211,-46"/>
<polyline fill="none" stroke="black" points="281.361,-46 271.361,-46.0001 "/>
<path fill="none" stroke="black" d="M276.36,-41C283.027,-41 283.027,-51 276.361,-51"/>
</g>
<!-- dot -->
<g id="node5" class="node"><title>dot</title>
<ellipse fill="none" stroke="black" cx="429" cy="-46" rx="27" ry="18"/>
<text text-anchor="middle" x="429" y="-42.3" font-family="Times,serif" font-size="14.00">dot</text>
</g>
<!-- diamond&#45;&gt;dot -->
<g id="edge4" class="edge"><title>diamond&#45;&gt;dot</title>
<path fill="none" stroke="black" d="M366.301,-46C373.973,-46 381.961,-46 389.544,-46"/>
<polygon fill="black" stroke="black" points="389.799,-46.0001 395.798,-42 401.799,-46 395.799,-50 389.799,-46.0001"/>
</g>
<!-- inv -->
<g id="node6" class="node"><title>inv</title>
<ellipse fill="none" stroke="black" cx="519" cy="-46" rx="27" ry="18"/>
<text text-anchor="middle" x="519" y="-42.3" font-family="Times,serif" font-size="14.00">inv</text>
</g>
<!-- dot&#45;&gt;inv -->
<g id="edge5" class="edge"><title>dot&#45;&gt;inv</title>
<path fill="none" stroke="black" d="M456.403,-46C465.008,-46 474.688,-46 483.781,-46"/>
<ellipse fill="black" stroke="black" cx="487.919" cy="-46" rx="4" ry="4"/>
</g>
<!-- none -->
<g id="node7" class="node"><title>none</title>
<ellipse fill="none" stroke="black" cx="610" cy="-46" rx="27.8951" ry="18"/>
<text text-anchor="middle" x="610" y="-42.3" font-family="Times,serif" font-size="14.00">none</text>
</g>
<!-- inv&#45;&gt;none -->
<g id="edge6" class="edge"><title>inv&#45;&gt;none</title>
<path fill="none" stroke="black" d="M546.222,-46C554.241,-46 563.22,-46 571.823,-46"/>
<polygon fill="black" stroke="black" points="582.04,-49.5 572.04,-46.0001 582.04,-42.5 582.04,-49.5"/>
</g>
<!-- normal -->
<g id="node8" class="node"><title>normal</title>
<ellipse fill="none" stroke="black" cx="711" cy="-46" rx="36.2938" ry="18"/>
<text text-anchor="middle" x="711" y="-42.3" font-family="Times,serif" font-size="14.00">normal</text>
</g>
<!-- none&#45;&gt;normal -->
<g id="edge7" class="edge"><title>none&#45;&gt;normal</title>
<path fill="none" stroke="black" d="M638.052,-46C647.695,-46 658.78,-46 669.315,-46"/>
<polyline fill="none" stroke="black" points="674.434,-46 669.434,-46.0001 "/>
</g>
<!-- tee -->
<g id="node9" class="node"><title>tee</title>
<ellipse fill="none" stroke="black" cx="811" cy="-46" rx="27" ry="18"/>
<text text-anchor="middle" x="811" y="-42.3" font-family="Times,serif" font-size="14.00">tee</text>
</g>
<!-- normal&#45;&gt;tee -->
<g id="edge8" class="edge"><title>normal&#45;&gt;tee</title>
<path fill="none" stroke="black" d="M747.657,-46C756.139,-46 765.199,-46 773.709,-46"/>
<polygon fill="black" stroke="black" points="773.741,-49.5001 783.741,-46 773.741,-42.5001 773.741,-49.5001"/>
</g>
<!-- vee -->
<g id="node10" class="node"><title>vee</title>
<ellipse fill="none" stroke="black" cx="901" cy="-23" rx="27" ry="18"/>
<text text-anchor="middle" x="901" y="-19.3" font-family="Times,serif" font-size="14.00">vee</text>
</g>
<!-- tee&#45;&gt;vee -->
<g id="edge9" class="edge"><title>tee&#45;&gt;vee</title>
<path fill="none" stroke="black" d="M836.513,-39.5932C847.097,-36.8268 859.567,-33.5676 870.641,-30.6734"/>
<polygon fill="black" stroke="black" points="873.387,-24.7878 875.915,-34.4628 873.98,-34.9686 871.452,-25.2936 873.387,-24.7878"/>
<polyline fill="none" stroke="black" points="875.619,-29.3724 870.781,-30.6368 "/>
</g>
<!-- vee&#45;&gt;box -->
<g id="edge10" class="edge"><title>vee&#45;&gt;box</title>
<path fill="none" stroke="black" d="M874.88,-17.9526C838.94,-11.1821 770.695,-0 712,-0 214,-0 214,-0 214,-0 161.06,-7.10543e-15 100.281,-9.29051 63.0118,-16.0622"/>
<polygon fill="black" stroke="black" points="53.1494,-17.8956 62.1585,-11.6436 58.0651,-16.9817 62.9809,-16.0679 62.9809,-16.0679 62.9809,-16.0679 58.0651,-16.9817 63.8034,-20.4921 53.1494,-17.8956 53.1494,-17.8956"/>
</g>
<!-- a -->
<g id="node11" class="node"><title>a</title>
<ellipse fill="none" stroke="black" cx="27" cy="-100" rx="27" ry="18"/>
<text text-anchor="middle" x="27" y="-96.3" font-family="Times,serif" font-size="14.00">a</text>
</g>
<!-- b -->
<g id="node12" class="node"><title>b</title>
<ellipse fill="none" stroke="black" cx="119" cy="-100" rx="27" ry="18"/>
<text text-anchor="middle" x="119" y="-96.3" font-family="Times,serif" font-size="14.00">b</text>
</g>
<!-- a&#45;&gt;b -->
<g id="edge11" class="edge"><title>a&#45;&gt;b</title>
<path fill="none" stroke="black" d="M54.0317,-100C61.0597,-100 68.8432,-100 76.4914,-100"/>
<polygon fill="black" stroke="black" points="81.715,-100 91.715,-104.5 86.715,-100 91.715,-100 91.715,-100 91.715,-100 81.715,-100"/>
<polygon fill="black" stroke="black" points="80.7149,-95.0001 80.715,-100 78.715,-100 78.7149,-95.0001 80.7149,-95.0001"/>
<polyline fill="none" stroke="black" points="81.715,-100 76.715,-100 "/>
</g>
</g>
</svg>
