<?xml version="1.0" encoding="UTF-8" standalone="no"?>
<!DOCTYPE svg PUBLIC "-//W3C//DTD SVG 1.1//EN"
 "http://www.w3.org/Graphics/SVG/1.1/DTD/svg11.dtd">
<!-- Generated by graphviz version 2.34.0 (20140110.0949)
 -->
<!-- Title: demo_edge Pages: 1 -->
<svg width="266pt" height="44pt"
 viewBox="0.00 0.00 266.00 44.00" xmlns="http://www.w3.org/2000/svg" xmlns:xlink="http://www.w3.org/1999/xlink">
<g id="graph0" class="graph" transform="scale(1 1) rotate(0) translate(4 40)">
<title>demo_edge</title>
<polygon fill="white" stroke="white" points="-4,4 -4,-40 262,-40 262,4 -4,4"/>
<!-- a -->
<g id="node1" class="node"><title>a</title>
<ellipse fill="none" stroke="black" cx="27" cy="-18" rx="27" ry="18"/>
<text text-anchor="middle" x="27" y="-14.3" font-family="Times,serif" font-size="14.00">a</text>
</g>
<!-- b -->
<g id="node2" class="node"><title>b</title>
<ellipse fill="none" stroke="black" cx="139" cy="-18" rx="27" ry="18"/>
<text text-anchor="middle" x="139" y="-14.3" font-family="Times,serif" font-size="14.00">b</text>
</g>
<!-- a&#45;&gt;b -->
<g id="edge1" class="edge"><title>a&#45;&gt;b</title>
<path fill="none" stroke="black" d="M54.0685,-18C68.2123,-18 85.9247,-18 101.428,-18"/>
<polygon fill="black" stroke="black" points="101.737,-21.5001 111.737,-18 101.737,-14.5001 101.737,-21.5001"/>
<text text-anchor="middle" x="83" y="-21.8" font-family="Times,serif" font-size="14.00">Yes</text>
</g>
<!-- c -->
<g id="node3" class="node"><title>c</title>
<ellipse fill="none" stroke="black" cx="231" cy="-18" rx="27" ry="18"/>
<text text-anchor="middle" x="231" y="-14.3" font-family="Times,serif" font-size="14.00">c</text>
</g>
<!-- b&#45;&gt;c -->
<g id="edge2" class="edge"><title>b&#45;&gt;c</title>
<path fill="none" stroke="red" stroke-dasharray="1,5" d="M181.233,-18C183.622,-18 186.026,-18 188.416,-18"/>
<polygon fill="red" stroke="red" points="181.032,-12.7501 166.032,-18 181.032,-23.2501 181.032,-12.7501"/>
<polygon fill="red" stroke="red" points="203.715,-12 203.715,-24 191.715,-24.0001 191.715,-12.0001 203.715,-12"/>
<polyline fill="none" stroke="red" points="191.715,-18.0001 188.715,-18.0001 "/>
</g>
</g>
</svg>
