<?xml version="1.0" encoding="UTF-8" standalone="no"?>
<!DOCTYPE svg PUBLIC "-//W3C//DTD SVG 1.1//EN"
 "http://www.w3.org/Graphics/SVG/1.1/DTD/svg11.dtd">
<!-- Generated by graphviz version 2.34.0 (20140110.0949)
 -->
<!-- Title: demo_graph Pages: 1 -->
<svg width="706pt" height="281pt"
 viewBox="0.00 0.00 706.00 281.00" xmlns="http://www.w3.org/2000/svg" xmlns:xlink="http://www.w3.org/1999/xlink">
<g id="graph0" class="graph" transform="scale(1 1) rotate(0) translate(4 277)">
<title>demo_graph</title>
<polygon fill="beige" stroke="beige" points="-4,4 -4,-277 702,-277 702,4 -4,4"/>
<text text-anchor="middle" x="349" y="-7.4" font-family="Times,serif" font-size="12.00" fill="#1a1a1a">this is demo</text>
<!-- level1 -->
<g id="node1" class="node"><title>level1</title>
<ellipse fill="none" stroke="black" cx="32" cy="-255" rx="32.2457" ry="18"/>
<text text-anchor="middle" x="32" y="-251.3" font-family="Times,serif" font-size="14.00">level1</text>
</g>
<!-- level2 -->
<g id="node5" class="node"><title>level2</title>
<ellipse fill="none" stroke="black" cx="32" cy="-183" rx="32.2457" ry="18"/>
<text text-anchor="middle" x="32" y="-179.3" font-family="Times,serif" font-size="14.00">level2</text>
</g>
<!-- level1&#45;&gt;level2 -->
<g id="edge1" class="edge"><title>level1&#45;&gt;level2</title>
<path fill="none" stroke="black" d="M32,-236.697C32,-228.983 32,-219.712 32,-211.112"/>
<polygon fill="black" stroke="black" points="35.5001,-211.104 32,-201.104 28.5001,-211.104 35.5001,-211.104"/>
</g>
<!-- a&#45;level1 -->
<g id="node2" class="node"><title>a&#45;level1</title>
<ellipse fill="none" stroke="black" cx="122" cy="-255" rx="38.4949" ry="18"/>
<text text-anchor="middle" x="122" y="-251.3" font-family="Times,serif" font-size="14.00">a&#45;level1</text>
</g>
<!-- d&#45;level2 -->
<g id="node6" class="node"><title>d&#45;level2</title>
<ellipse fill="none" stroke="black" cx="122" cy="-183" rx="39.4691" ry="18"/>
<text text-anchor="middle" x="122" y="-179.3" font-family="Times,serif" font-size="14.00">d&#45;level2</text>
</g>
<!-- a&#45;level1&#45;&gt;d&#45;level2 -->
<g id="edge4" class="edge"><title>a&#45;level1&#45;&gt;d&#45;level2</title>
<path fill="none" stroke="black" d="M122,-236.697C122,-228.983 122,-219.712 122,-211.112"/>
<polygon fill="black" stroke="black" points="125.5,-211.104 122,-201.104 118.5,-211.104 125.5,-211.104"/>
</g>
<!-- b&#45;level1 -->
<g id="node3" class="node"><title>b&#45;level1</title>
<ellipse fill="none" stroke="black" cx="456" cy="-255" rx="39.4691" ry="18"/>
<text text-anchor="middle" x="456" y="-251.3" font-family="Times,serif" font-size="14.00">b&#45;level1</text>
</g>
<!-- e&#45;level2 -->
<g id="node7" class="node"><title>e&#45;level2</title>
<ellipse fill="none" stroke="black" cx="340" cy="-183" rx="38.4949" ry="18"/>
<text text-anchor="middle" x="340" y="-179.3" font-family="Times,serif" font-size="14.00">e&#45;level2</text>
</g>
<!-- b&#45;level1&#45;&gt;e&#45;level2 -->
<g id="edge7" class="edge"><title>b&#45;level1&#45;&gt;e&#45;level2</title>
<path fill="none" stroke="black" d="M433.082,-240.17C415.526,-229.576 391.101,-214.837 371.676,-203.115"/>
<polygon fill="black" stroke="black" points="373.24,-199.971 362.87,-197.801 369.624,-205.964 373.24,-199.971"/>
</g>
<!-- f&#45;level3 -->
<g id="node9" class="node"><title>f&#45;level3</title>
<ellipse fill="none" stroke="black" cx="567" cy="-111" rx="38.0212" ry="18"/>
<text text-anchor="middle" x="567" y="-107.3" font-family="Times,serif" font-size="14.00">f&#45;level3</text>
</g>
<!-- b&#45;level1&#45;&gt;f&#45;level3 -->
<g id="edge8" class="edge"><title>b&#45;level1&#45;&gt;f&#45;level3</title>
<path fill="none" stroke="black" d="M468.733,-237.711C488.221,-212.78 525.559,-165.015 548.178,-136.078"/>
<polygon fill="black" stroke="black" points="551.014,-138.133 554.415,-128.099 545.499,-133.822 551.014,-138.133"/>
</g>
<!-- i&#45;level3 -->
<g id="node12" class="node"><title>i&#45;level3</title>
<ellipse fill="none" stroke="black" cx="661" cy="-111" rx="37.5442" ry="18"/>
<text text-anchor="middle" x="661" y="-107.3" font-family="Times,serif" font-size="14.00">i&#45;level3</text>
</g>
<!-- b&#45;level1&#45;&gt;i&#45;level3 -->
<g id="edge9" class="edge"><title>b&#45;level1&#45;&gt;i&#45;level3</title>
<path fill="none" stroke="black" d="M476.785,-239.603C513.562,-214.128 590.167,-161.065 632.076,-132.035"/>
<polygon fill="black" stroke="black" points="634.238,-134.796 640.465,-126.224 630.252,-129.041 634.238,-134.796"/>
</g>
<!-- k&#45;level4 -->
<g id="node15" class="node"><title>k&#45;level4</title>
<ellipse fill="none" stroke="black" cx="407" cy="-39" rx="39.4691" ry="18"/>
<text text-anchor="middle" x="407" y="-35.3" font-family="Times,serif" font-size="14.00">k&#45;level4</text>
</g>
<!-- b&#45;level1&#45;&gt;k&#45;level4 -->
<g id="edge10" class="edge"><title>b&#45;level1&#45;&gt;k&#45;level4</title>
<path fill="none" stroke="black" d="M451.788,-237.048C445.856,-213.041 434.783,-167.742 426,-129 421.314,-108.328 416.321,-84.8809 412.63,-67.2439"/>
<polygon fill="black" stroke="black" points="415.981,-66.1659 410.515,-57.09 409.128,-67.5936 415.981,-66.1659"/>
</g>
<!-- c&#45;level1 -->
<g id="node4" class="node"><title>c&#45;level1</title>
<ellipse fill="none" stroke="black" cx="218" cy="-255" rx="38.4949" ry="18"/>
<text text-anchor="middle" x="218" y="-251.3" font-family="Times,serif" font-size="14.00">c&#45;level1</text>
</g>
<!-- c&#45;level1&#45;&gt;d&#45;level2 -->
<g id="edge11" class="edge"><title>c&#45;level1&#45;&gt;d&#45;level2</title>
<path fill="none" stroke="black" d="M198.109,-239.496C184.3,-229.427 165.699,-215.864 150.342,-204.666"/>
<polygon fill="black" stroke="black" points="152.338,-201.79 142.196,-198.726 148.214,-207.446 152.338,-201.79"/>
</g>
<!-- g&#45;level3 -->
<g id="node10" class="node"><title>g&#45;level3</title>
<ellipse fill="none" stroke="black" cx="204" cy="-111" rx="39.4691" ry="18"/>
<text text-anchor="middle" x="204" y="-107.3" font-family="Times,serif" font-size="14.00">g&#45;level3</text>
</g>
<!-- c&#45;level1&#45;&gt;g&#45;level3 -->
<g id="edge12" class="edge"><title>c&#45;level1&#45;&gt;g&#45;level3</title>
<path fill="none" stroke="black" d="M216.311,-236.871C213.925,-212.67 209.542,-168.211 206.701,-139.393"/>
<polygon fill="black" stroke="black" points="210.159,-138.798 205.695,-129.189 203.193,-139.484 210.159,-138.798"/>
</g>
<!-- h&#45;level3 -->
<g id="node11" class="node"><title>h&#45;level3</title>
<ellipse fill="none" stroke="black" cx="301" cy="-111" rx="39.4691" ry="18"/>
<text text-anchor="middle" x="301" y="-107.3" font-family="Times,serif" font-size="14.00">h&#45;level3</text>
</g>
<!-- c&#45;level1&#45;&gt;h&#45;level3 -->
<g id="edge13" class="edge"><title>c&#45;level1&#45;&gt;h&#45;level3</title>
<path fill="none" stroke="black" d="M227.684,-237.433C242.115,-212.743 269.375,-166.106 286.282,-137.18"/>
<polygon fill="black" stroke="black" points="289.353,-138.861 291.378,-128.462 283.31,-135.329 289.353,-138.861"/>
</g>
<!-- level3 -->
<g id="node8" class="node"><title>level3</title>
<ellipse fill="none" stroke="black" cx="32" cy="-111" rx="32.2457" ry="18"/>
<text text-anchor="middle" x="32" y="-107.3" font-family="Times,serif" font-size="14.00">level3</text>
</g>
<!-- level2&#45;&gt;level3 -->
<g id="edge2" class="edge"><title>level2&#45;&gt;level3</title>
<path fill="none" stroke="black" d="M32,-164.697C32,-156.983 32,-147.712 32,-139.112"/>
<polygon fill="black" stroke="black" points="35.5001,-139.104 32,-129.104 28.5001,-139.104 35.5001,-139.104"/>
</g>
<!-- e&#45;level2&#45;&gt;h&#45;level3 -->
<g id="edge5" class="edge"><title>e&#45;level2&#45;&gt;h&#45;level3</title>
<path fill="none" stroke="black" d="M330.758,-165.411C326.162,-157.163 320.505,-147.009 315.361,-137.777"/>
<polygon fill="black" stroke="black" points="318.372,-135.988 310.447,-128.956 312.257,-139.395 318.372,-135.988"/>
</g>
<!-- e&#45;level2&#45;&gt;k&#45;level4 -->
<g id="edge6" class="edge"><title>e&#45;level2&#45;&gt;k&#45;level4</title>
<path fill="none" stroke="black" d="M347.949,-165.153C359.534,-140.6 381.157,-94.7727 394.776,-65.9083"/>
<polygon fill="black" stroke="black" points="397.96,-67.3624 399.061,-56.825 391.629,-64.3753 397.96,-67.3624"/>
</g>
<!-- level4 -->
<g id="node14" class="node"><title>level4</title>
<ellipse fill="none" stroke="black" cx="32" cy="-39" rx="32.2457" ry="18"/>
<text text-anchor="middle" x="32" y="-35.3" font-family="Times,serif" font-size="14.00">level4</text>
</g>
<!-- level3&#45;&gt;level4 -->
<g id="edge3" class="edge"><title>level3&#45;&gt;level4</title>
<path fill="none" stroke="black" d="M32,-92.6966C32,-84.9827 32,-75.7125 32,-67.1124"/>
<polygon fill="black" stroke="black" points="35.5001,-67.1043 32,-57.1043 28.5001,-67.1044 35.5001,-67.1043"/>
</g>
<!-- j&#45;level3 -->
<g id="node13" class="node"><title>j&#45;level3</title>
<ellipse fill="none" stroke="black" cx="473" cy="-111" rx="37.5442" ry="18"/>
<text text-anchor="middle" x="473" y="-107.3" font-family="Times,serif" font-size="14.00">j&#45;level3</text>
</g>
<!-- j&#45;level3&#45;&gt;f&#45;level3 -->
<g id="edge14" class="edge"><title>j&#45;level3&#45;&gt;f&#45;level3</title>
<path fill="none" stroke="black" d="M510.453,-111C513.095,-111 515.736,-111 518.377,-111"/>
<polygon fill="black" stroke="black" points="518.566,-114.5 528.566,-111 518.566,-107.5 518.566,-114.5"/>
</g>
<!-- j&#45;level3&#45;&gt;k&#45;level4 -->
<g id="edge15" class="edge"><title>j&#45;level3&#45;&gt;k&#45;level4</title>
<path fill="none" stroke="black" d="M458.024,-94.1159C449.416,-84.987 438.449,-73.3552 428.89,-63.2168"/>
<polygon fill="black" stroke="black" points="431.324,-60.6961 421.917,-55.8212 426.231,-65.4982 431.324,-60.6961"/>
</g>
</g>
</svg>
