<?xml version="1.0" encoding="UTF-8" standalone="no"?>
<!DOCTYPE svg PUBLIC "-//W3C//DTD SVG 1.1//EN"
 "http://www.w3.org/Graphics/SVG/1.1/DTD/svg11.dtd">
<!-- Generated by graphviz version 2.34.0 (20140110.0949)
 -->
<!-- Title: html Pages: 1 -->
<svg width="136pt" height="84pt"
 viewBox="0.00 0.00 136.00 84.00" xmlns="http://www.w3.org/2000/svg" xmlns:xlink="http://www.w3.org/1999/xlink">
<g id="graph0" class="graph" transform="scale(1 1) rotate(0) translate(4 80)">
<title>html</title>
<polygon fill="white" stroke="white" points="-4,4 -4,-80 132,-80 132,4 -4,4"/>
<!-- abc -->
<g id="node1" class="node"><title>abc</title>
<polygon fill="none" stroke="black" points="0,-0 0,-76 43,-76 43,-0 0,-0"/>
<text text-anchor="start" x="7.5" y="-41.8" font-family="Times,serif" font-size="14.00" fill="red">hello</text>
<text text-anchor="start" x="5.5" y="-26.8" font-family="Times,serif" font-size="14.00">world</text>
<polygon fill="none" stroke="black" points="43,-50 43,-76 94,-76 94,-50 43,-50"/>
<text text-anchor="start" x="65" y="-59.3" font-family="Times,serif" font-size="14.00">b</text>
<polygon fill="lightgrey" stroke="none" points="94,-0 94,-76 111,-76 111,-0 94,-0"/>
<polygon fill="none" stroke="black" points="94,-0 94,-76 111,-76 111,-0 94,-0"/>
<text text-anchor="start" x="99" y="-34.3" font-family="Times,serif" font-size="14.00">g</text>
<polygon fill="none" stroke="black" points="111,-0 111,-76 128,-76 128,-0 111,-0"/>
<text text-anchor="start" x="116" y="-34.3" font-family="Times,serif" font-size="14.00">h</text>
<polygon fill="none" stroke="black" points="43,-25 43,-50 60,-50 60,-25 43,-25"/>
<text text-anchor="start" x="48" y="-33.8" font-family="Times,serif" font-size="14.00">c</text>
<polygon fill="none" stroke="black" points="60,-25 60,-50 77,-50 77,-25 60,-25"/>
<text text-anchor="start" x="65" y="-33.8" font-family="Times,serif" font-size="14.00">d</text>
<polygon fill="none" stroke="black" points="77,-25 77,-50 94,-50 94,-25 77,-25"/>
<text text-anchor="start" x="82" y="-33.8" font-family="Times,serif" font-size="14.00">e</text>
<polygon fill="none" stroke="black" points="43,-0 43,-25 94,-25 94,-0 43,-0"/>
<text text-anchor="start" x="66" y="-8.8" font-family="Times,serif" font-size="14.00">f</text>
</g>
</g>
</svg>
