<?xml version="1.0" encoding="UTF-8" standalone="no"?>
<!DOCTYPE svg PUBLIC "-//W3C//DTD SVG 1.1//EN"
 "http://www.w3.org/Graphics/SVG/1.1/DTD/svg11.dtd">
<!-- Generated by graphviz version 2.34.0 (20140110.0949)
 -->
<!-- Title: lines Pages: 1 -->
<svg width="223pt" height="188pt"
 viewBox="0.00 0.00 223.00 188.00" xmlns="http://www.w3.org/2000/svg" xmlns:xlink="http://www.w3.org/1999/xlink">
<g id="graph0" class="graph" transform="scale(1 1) rotate(0) translate(4 184)">
<title>lines</title>
<polygon fill="white" stroke="white" points="-4,4 -4,-184 219,-184 219,4 -4,4"/>
<!-- Undirected1 -->
<g id="node1" class="node"><title>Undirected1</title>
<ellipse fill="none" stroke="black" cx="111" cy="-162" rx="53.4184" ry="18"/>
<text text-anchor="middle" x="111" y="-158.3" font-family="Times,serif" font-size="14.00">Undirected1</text>
</g>
<!-- Undirected2 -->
<g id="node2" class="node"><title>Undirected2</title>
<ellipse fill="none" stroke="black" cx="53" cy="-90" rx="53.4184" ry="18"/>
<text text-anchor="middle" x="53" y="-86.3" font-family="Times,serif" font-size="14.00">Undirected2</text>
</g>
<!-- Undirected1&#45;&gt;Undirected2 -->
<g id="edge1" class="edge"><title>Undirected1&#45;&gt;Undirected2</title>
<path fill="none" stroke="black" d="M97.2548,-144.411C89.0926,-134.56 78.6766,-121.989 70.0003,-111.518"/>
<polyline fill="none" stroke="black" points="66.6465,-107.47 69.8367,-111.32 "/>
</g>
<!-- Directed1 -->
<g id="node3" class="node"><title>Directed1</title>
<ellipse fill="none" stroke="black" cx="170" cy="-90" rx="45.244" ry="18"/>
<text text-anchor="middle" x="170" y="-86.3" font-family="Times,serif" font-size="14.00">Directed1</text>
</g>
<!-- Undirected1&#45;&gt;Directed1 -->
<g id="edge2" class="edge"><title>Undirected1&#45;&gt;Directed1</title>
<path fill="none" stroke="black" d="M124.982,-144.411C132.33,-135.693 141.473,-124.845 149.596,-115.208"/>
<polygon fill="black" stroke="black" points="152.35,-117.372 156.118,-107.47 146.997,-112.861 152.35,-117.372"/>
</g>
<!-- Directed2 -->
<g id="node4" class="node"><title>Directed2</title>
<ellipse fill="none" stroke="black" cx="170" cy="-18" rx="45.244" ry="18"/>
<text text-anchor="middle" x="170" y="-14.3" font-family="Times,serif" font-size="14.00">Directed2</text>
</g>
<!-- Directed1&#45;&gt;Directed2 -->
<g id="edge3" class="edge"><title>Directed1&#45;&gt;Directed2</title>
<path fill="none" stroke="black" d="M170,-61.6651C170,-56.6867 170,-51.4906 170,-46.5072"/>
<polygon fill="black" stroke="black" points="166.5,-61.6966 170,-71.6966 173.5,-61.6967 166.5,-61.6966"/>
<polygon fill="black" stroke="black" points="173.5,-46.1043 170,-36.1043 166.5,-46.1044 173.5,-46.1043"/>
</g>
</g>
</svg>
