<?xml version="1.0" encoding="UTF-8" standalone="no"?>
<!DOCTYPE svg PUBLIC "-//W3C//DTD SVG 1.1//EN"
 "http://www.w3.org/Graphics/SVG/1.1/DTD/svg11.dtd">
<!-- Generated by graphviz version 2.38.0 (20140413.2041)
 -->
<!-- Title: svg Pages: 1 -->
<svg width="763pt" height="692pt"
 viewBox="0.00 0.00 762.59 692.00" xmlns="http://www.w3.org/2000/svg" xmlns:xlink="http://www.w3.org/1999/xlink">
<g id="graph0" class="graph" transform="scale(1 1) rotate(0) translate(4 688)">
<title>svg</title>
<polygon fill="white" stroke="none" points="-4,4 -4,-688 758.593,-688 758.593,4 -4,4"/>
<!-- (count&#45;change 11) -->
<g id="node1" class="node"><title>(count&#45;change 11)</title>
<ellipse fill="none" stroke="black" cx="487.246" cy="-666" rx="75.2868" ry="18"/>
<text text-anchor="middle" x="487.246" y="-662.3" font-family="Times,serif" font-size="14.00">(count&#45;change 11)</text>
</g>
<!-- (cc 11 5) -->
<g id="node2" class="node"><title>(cc 11 5)</title>
<ellipse fill="none" stroke="black" cx="487.246" cy="-594" rx="42.4939" ry="18"/>
<text text-anchor="middle" x="487.246" y="-590.3" font-family="Times,serif" font-size="14.00">(cc 11 5)</text>
</g>
<!-- (count&#45;change 11)&#45;&gt;(cc 11 5) -->
<g id="edge1" class="edge"><title>(count&#45;change 11)&#45;&gt;(cc 11 5)</title>
<path fill="none" stroke="black" d="M487.246,-647.697C487.246,-639.983 487.246,-630.712 487.246,-622.112"/>
<polygon fill="black" stroke="black" points="490.746,-622.104 487.246,-612.104 483.746,-622.104 490.746,-622.104"/>
</g>
<!-- (cc 11 4) -->
<g id="node3" class="node"><title>(cc 11 4)</title>
<ellipse fill="none" stroke="black" cx="434.246" cy="-522" rx="42.4939" ry="18"/>
<text text-anchor="middle" x="434.246" y="-518.3" font-family="Times,serif" font-size="14.00">(cc 11 4)</text>
</g>
<!-- (cc 11 5)&#45;&gt;(cc 11 4) -->
<g id="edge2" class="edge"><title>(cc 11 5)&#45;&gt;(cc 11 4)</title>
<path fill="none" stroke="black" d="M474.954,-576.765C468.426,-568.143 460.265,-557.365 452.968,-547.727"/>
<polygon fill="black" stroke="black" points="455.667,-545.493 446.84,-539.633 450.086,-549.719 455.667,-545.493"/>
</g>
<!-- (cc &#45;39 5) -->
<g id="node4" class="node"><title>(cc &#45;39 5)</title>
<ellipse fill="none" stroke="black" cx="540.246" cy="-522" rx="45.4919" ry="18"/>
<text text-anchor="middle" x="540.246" y="-518.3" font-family="Times,serif" font-size="14.00">(cc &#45;39 5)</text>
</g>
<!-- (cc 11 5)&#45;&gt;(cc &#45;39 5) -->
<g id="edge3" class="edge"><title>(cc 11 5)&#45;&gt;(cc &#45;39 5)</title>
<path fill="none" stroke="black" d="M499.539,-576.765C506.067,-568.143 514.227,-557.365 521.525,-547.727"/>
<polygon fill="black" stroke="black" points="524.406,-549.719 527.652,-539.633 518.826,-545.493 524.406,-549.719"/>
</g>
<!-- (cc 11 3) -->
<g id="node5" class="node"><title>(cc 11 3)</title>
<ellipse fill="none" stroke="black" cx="381.246" cy="-450" rx="42.4939" ry="18"/>
<text text-anchor="middle" x="381.246" y="-446.3" font-family="Times,serif" font-size="14.00">(cc 11 3)</text>
</g>
<!-- (cc 11 4)&#45;&gt;(cc 11 3) -->
<g id="edge4" class="edge"><title>(cc 11 4)&#45;&gt;(cc 11 3)</title>
<path fill="none" stroke="black" d="M421.954,-504.765C415.426,-496.143 407.265,-485.365 399.968,-475.727"/>
<polygon fill="black" stroke="black" points="402.667,-473.493 393.84,-467.633 397.086,-477.719 402.667,-473.493"/>
</g>
<!-- (cc &#45;14 4) -->
<g id="node6" class="node"><title>(cc &#45;14 4)</title>
<ellipse fill="none" stroke="black" cx="487.246" cy="-450" rx="45.4919" ry="18"/>
<text text-anchor="middle" x="487.246" y="-446.3" font-family="Times,serif" font-size="14.00">(cc &#45;14 4)</text>
</g>
<!-- (cc 11 4)&#45;&gt;(cc &#45;14 4) -->
<g id="edge5" class="edge"><title>(cc 11 4)&#45;&gt;(cc &#45;14 4)</title>
<path fill="none" stroke="black" d="M446.539,-504.765C453.067,-496.143 461.227,-485.365 468.525,-475.727"/>
<polygon fill="black" stroke="black" points="471.406,-477.719 474.652,-467.633 465.826,-473.493 471.406,-477.719"/>
</g>
<!-- (cc 11 2) -->
<g id="node7" class="node"><title>(cc 11 2)</title>
<ellipse fill="none" stroke="black" cx="332.246" cy="-378" rx="42.4939" ry="18"/>
<text text-anchor="middle" x="332.246" y="-374.3" font-family="Times,serif" font-size="14.00">(cc 11 2)</text>
</g>
<!-- (cc 11 3)&#45;&gt;(cc 11 2) -->
<g id="edge6" class="edge"><title>(cc 11 3)&#45;&gt;(cc 11 2)</title>
<path fill="none" stroke="black" d="M369.634,-432.411C363.654,-423.868 356.241,-413.278 349.597,-403.787"/>
<polygon fill="black" stroke="black" points="352.377,-401.655 343.775,-395.47 346.643,-405.669 352.377,-401.655"/>
</g>
<!-- (cc 1 3) -->
<g id="node8" class="node"><title>(cc 1 3)</title>
<ellipse fill="none" stroke="black" cx="431.246" cy="-378" rx="38.1938" ry="18"/>
<text text-anchor="middle" x="431.246" y="-374.3" font-family="Times,serif" font-size="14.00">(cc 1 3)</text>
</g>
<!-- (cc 11 3)&#45;&gt;(cc 1 3) -->
<g id="edge7" class="edge"><title>(cc 11 3)&#45;&gt;(cc 1 3)</title>
<path fill="none" stroke="black" d="M393.096,-432.411C399.198,-423.868 406.762,-413.278 413.541,-403.787"/>
<polygon fill="black" stroke="black" points="416.518,-405.642 419.482,-395.47 410.822,-401.573 416.518,-405.642"/>
</g>
<!-- (cc 11 1) -->
<g id="node9" class="node"><title>(cc 11 1)</title>
<ellipse fill="none" stroke="black" cx="144.246" cy="-306" rx="42.4939" ry="18"/>
<text text-anchor="middle" x="144.246" y="-302.3" font-family="Times,serif" font-size="14.00">(cc 11 1)</text>
</g>
<!-- (cc 11 2)&#45;&gt;(cc 11 1) -->
<g id="edge8" class="edge"><title>(cc 11 2)&#45;&gt;(cc 11 1)</title>
<path fill="none" stroke="black" d="M301.622,-365.597C269.762,-353.735 219.72,-335.102 184.64,-322.04"/>
<polygon fill="black" stroke="black" points="185.762,-318.723 175.17,-318.514 183.32,-325.283 185.762,-318.723"/>
</g>
<!-- (cc 6 2) -->
<g id="node10" class="node"><title>(cc 6 2)</title>
<ellipse fill="none" stroke="black" cx="333.246" cy="-306" rx="38.1938" ry="18"/>
<text text-anchor="middle" x="333.246" y="-302.3" font-family="Times,serif" font-size="14.00">(cc 6 2)</text>
</g>
<!-- (cc 11 2)&#45;&gt;(cc 6 2) -->
<g id="edge9" class="edge"><title>(cc 11 2)&#45;&gt;(cc 6 2)</title>
<path fill="none" stroke="black" d="M332.493,-359.697C332.604,-351.983 332.736,-342.712 332.859,-334.112"/>
<polygon fill="black" stroke="black" points="336.359,-334.153 333.002,-324.104 329.359,-334.053 336.359,-334.153"/>
</g>
<!-- cc&#45;4&#45;2.1 -->
<g id="node11" class="node"><title>cc&#45;4&#45;2.1</title>
<ellipse fill="none" stroke="black" cx="431.246" cy="-306" rx="40.8928" ry="18"/>
<text text-anchor="middle" x="431.246" y="-302.3" font-family="Times,serif" font-size="14.00">(cc &#45;4 2)</text>
</g>
<!-- (cc 1 3)&#45;&gt;cc&#45;4&#45;2.1 -->
<g id="edge10" class="edge"><title>(cc 1 3)&#45;&gt;cc&#45;4&#45;2.1</title>
<path fill="none" stroke="black" d="M431.246,-359.697C431.246,-351.983 431.246,-342.712 431.246,-334.112"/>
<polygon fill="black" stroke="black" points="434.746,-334.104 431.246,-324.104 427.746,-334.104 434.746,-334.104"/>
</g>
<!-- (cc 1 2) -->
<g id="node12" class="node"><title>(cc 1 2)</title>
<ellipse fill="none" stroke="black" cx="528.246" cy="-306" rx="38.1938" ry="18"/>
<text text-anchor="middle" x="528.246" y="-302.3" font-family="Times,serif" font-size="14.00">(cc 1 2)</text>
</g>
<!-- (cc 1 3)&#45;&gt;(cc 1 2) -->
<g id="edge11" class="edge"><title>(cc 1 3)&#45;&gt;(cc 1 2)</title>
<path fill="none" stroke="black" d="M451.345,-362.496C465.391,-352.359 484.345,-338.681 499.921,-327.441"/>
<polygon fill="black" stroke="black" points="502.113,-330.176 508.174,-321.485 498.016,-324.499 502.113,-330.176"/>
</g>
<!-- (cc 11 0) -->
<g id="node13" class="node"><title>(cc 11 0)</title>
<ellipse fill="none" stroke="black" cx="42.2463" cy="-234" rx="42.4939" ry="18"/>
<text text-anchor="middle" x="42.2463" y="-230.3" font-family="Times,serif" font-size="14.00">(cc 11 0)</text>
</g>
<!-- (cc 11 1)&#45;&gt;(cc 11 0) -->
<g id="edge12" class="edge"><title>(cc 11 1)&#45;&gt;(cc 11 0)</title>
<path fill="none" stroke="black" d="M122.615,-290.155C107.911,-280.064 88.2665,-266.583 72.0802,-255.474"/>
<polygon fill="black" stroke="black" points="73.7225,-252.356 63.4969,-249.584 69.7616,-258.128 73.7225,-252.356"/>
</g>
<!-- (cc 10 1) -->
<g id="node14" class="node"><title>(cc 10 1)</title>
<ellipse fill="none" stroke="black" cx="144.246" cy="-234" rx="42.4939" ry="18"/>
<text text-anchor="middle" x="144.246" y="-230.3" font-family="Times,serif" font-size="14.00">(cc 10 1)</text>
</g>
<!-- (cc 11 1)&#45;&gt;(cc 10 1) -->
<g id="edge13" class="edge"><title>(cc 11 1)&#45;&gt;(cc 10 1)</title>
<path fill="none" stroke="black" d="M144.246,-287.697C144.246,-279.983 144.246,-270.712 144.246,-262.112"/>
<polygon fill="black" stroke="black" points="147.746,-262.104 144.246,-252.104 140.746,-262.104 147.746,-262.104"/>
</g>
<!-- cc5&#45;1.1 -->
<g id="node15" class="node"><title>cc5&#45;1.1</title>
<ellipse fill="none" stroke="black" cx="333.246" cy="-234" rx="38.1938" ry="18"/>
<text text-anchor="middle" x="333.246" y="-230.3" font-family="Times,serif" font-size="14.00">(cc 5 1)</text>
</g>
<!-- (cc 6 2)&#45;&gt;cc5&#45;1.1 -->
<g id="edge14" class="edge"><title>(cc 6 2)&#45;&gt;cc5&#45;1.1</title>
<path fill="none" stroke="black" d="M333.246,-287.697C333.246,-279.983 333.246,-270.712 333.246,-262.112"/>
<polygon fill="black" stroke="black" points="336.746,-262.104 333.246,-252.104 329.746,-262.104 336.746,-262.104"/>
</g>
<!-- cc6&#45;1.1 -->
<g id="node16" class="node"><title>cc6&#45;1.1</title>
<ellipse fill="none" stroke="black" cx="429.246" cy="-234" rx="38.1938" ry="18"/>
<text text-anchor="middle" x="429.246" y="-230.3" font-family="Times,serif" font-size="14.00">(cc 6 1)</text>
</g>
<!-- (cc 6 2)&#45;&gt;cc6&#45;1.1 -->
<g id="edge15" class="edge"><title>(cc 6 2)&#45;&gt;cc6&#45;1.1</title>
<path fill="none" stroke="black" d="M353.138,-290.496C367.039,-280.359 385.797,-266.681 401.213,-255.441"/>
<polygon fill="black" stroke="black" points="403.362,-258.205 409.38,-249.485 399.238,-252.549 403.362,-258.205"/>
</g>
<!-- cc&#45;4&#45;2.2 -->
<g id="node17" class="node"><title>cc&#45;4&#45;2.2</title>
<ellipse fill="none" stroke="black" cx="527.246" cy="-234" rx="40.8928" ry="18"/>
<text text-anchor="middle" x="527.246" y="-230.3" font-family="Times,serif" font-size="14.00">(cc &#45;4 2)</text>
</g>
<!-- (cc 1 2)&#45;&gt;cc&#45;4&#45;2.2 -->
<g id="edge16" class="edge"><title>(cc 1 2)&#45;&gt;cc&#45;4&#45;2.2</title>
<path fill="none" stroke="black" d="M527.999,-287.697C527.889,-279.983 527.756,-270.712 527.634,-262.112"/>
<polygon fill="black" stroke="black" points="531.133,-262.053 527.491,-252.104 524.134,-262.153 531.133,-262.053"/>
</g>
<!-- (cc 1 1) -->
<g id="node18" class="node"><title>(cc 1 1)</title>
<ellipse fill="none" stroke="black" cx="624.246" cy="-234" rx="38.1938" ry="18"/>
<text text-anchor="middle" x="624.246" y="-230.3" font-family="Times,serif" font-size="14.00">(cc 1 1)</text>
</g>
<!-- (cc 1 2)&#45;&gt;(cc 1 1) -->
<g id="edge17" class="edge"><title>(cc 1 2)&#45;&gt;(cc 1 1)</title>
<path fill="none" stroke="black" d="M548.138,-290.496C562.039,-280.359 580.797,-266.681 596.213,-255.441"/>
<polygon fill="black" stroke="black" points="598.362,-258.205 604.38,-249.485 594.238,-252.549 598.362,-258.205"/>
</g>
<!-- (cc 10 0) -->
<g id="node19" class="node"><title>(cc 10 0)</title>
<ellipse fill="none" stroke="black" cx="45.2463" cy="-162" rx="42.4939" ry="18"/>
<text text-anchor="middle" x="45.2463" y="-158.3" font-family="Times,serif" font-size="14.00">(cc 10 0)</text>
</g>
<!-- (cc 10 1)&#45;&gt;(cc 10 0) -->
<g id="edge18" class="edge"><title>(cc 10 1)&#45;&gt;(cc 10 0)</title>
<path fill="none" stroke="black" d="M123.251,-218.155C109.075,-208.132 90.1687,-194.763 74.5195,-183.698"/>
<polygon fill="black" stroke="black" points="76.3971,-180.739 66.2113,-177.824 72.3558,-186.455 76.3971,-180.739"/>
</g>
<!-- (cc 9 1) -->
<g id="node20" class="node"><title>(cc 9 1)</title>
<ellipse fill="none" stroke="black" cx="144.246" cy="-162" rx="38.1938" ry="18"/>
<text text-anchor="middle" x="144.246" y="-158.3" font-family="Times,serif" font-size="14.00">(cc 9 1)</text>
</g>
<!-- (cc 10 1)&#45;&gt;(cc 9 1) -->
<g id="edge19" class="edge"><title>(cc 10 1)&#45;&gt;(cc 9 1)</title>
<path fill="none" stroke="black" d="M144.246,-215.697C144.246,-207.983 144.246,-198.712 144.246,-190.112"/>
<polygon fill="black" stroke="black" points="147.746,-190.104 144.246,-180.104 140.746,-190.104 147.746,-190.104"/>
</g>
<!-- (cc 5 0) -->
<g id="node23" class="node"><title>(cc 5 0)</title>
<ellipse fill="none" stroke="black" cx="239.246" cy="-162" rx="38.1938" ry="18"/>
<text text-anchor="middle" x="239.246" y="-158.3" font-family="Times,serif" font-size="14.00">(cc 5 0)</text>
</g>
<!-- cc5&#45;1.1&#45;&gt;(cc 5 0) -->
<g id="edge22" class="edge"><title>cc5&#45;1.1&#45;&gt;(cc 5 0)</title>
<path fill="none" stroke="black" d="M313.311,-218.155C299.886,-208.157 281.992,-194.832 267.155,-183.783"/>
<polygon fill="black" stroke="black" points="268.941,-180.749 258.83,-177.584 264.76,-186.364 268.941,-180.749"/>
</g>
<!-- (cc 4 1) -->
<g id="node24" class="node"><title>(cc 4 1)</title>
<ellipse fill="none" stroke="black" cx="334.246" cy="-162" rx="38.1938" ry="18"/>
<text text-anchor="middle" x="334.246" y="-158.3" font-family="Times,serif" font-size="14.00">(cc 4 1)</text>
</g>
<!-- cc5&#45;1.1&#45;&gt;(cc 4 1) -->
<g id="edge23" class="edge"><title>cc5&#45;1.1&#45;&gt;(cc 4 1)</title>
<path fill="none" stroke="black" d="M333.493,-215.697C333.604,-207.983 333.736,-198.712 333.859,-190.112"/>
<polygon fill="black" stroke="black" points="337.359,-190.153 334.002,-180.104 330.359,-190.053 337.359,-190.153"/>
</g>
<!-- cc5&#45;1.2 -->
<g id="node21" class="node"><title>cc5&#45;1.2</title>
<ellipse fill="none" stroke="black" cx="429.246" cy="-162" rx="38.1938" ry="18"/>
<text text-anchor="middle" x="429.246" y="-158.3" font-family="Times,serif" font-size="14.00">(cc 5 1)</text>
</g>
<!-- cc6&#45;1.1&#45;&gt;cc5&#45;1.2 -->
<g id="edge20" class="edge"><title>cc6&#45;1.1&#45;&gt;cc5&#45;1.2</title>
<path fill="none" stroke="black" d="M429.246,-215.697C429.246,-207.983 429.246,-198.712 429.246,-190.112"/>
<polygon fill="black" stroke="black" points="432.746,-190.104 429.246,-180.104 425.746,-190.104 432.746,-190.104"/>
</g>
<!-- (cc 6 0) -->
<g id="node22" class="node"><title>(cc 6 0)</title>
<ellipse fill="none" stroke="black" cx="524.246" cy="-162" rx="38.1938" ry="18"/>
<text text-anchor="middle" x="524.246" y="-158.3" font-family="Times,serif" font-size="14.00">(cc 6 0)</text>
</g>
<!-- cc6&#45;1.1&#45;&gt;(cc 6 0) -->
<g id="edge21" class="edge"><title>cc6&#45;1.1&#45;&gt;(cc 6 0)</title>
<path fill="none" stroke="black" d="M448.93,-218.496C462.687,-208.359 481.25,-194.681 496.505,-183.441"/>
<polygon fill="black" stroke="black" points="498.613,-186.235 504.587,-177.485 494.461,-180.6 498.613,-186.235"/>
</g>
<!-- (cc 1 0) -->
<g id="node25" class="node"><title>(cc 1 0)</title>
<ellipse fill="none" stroke="black" cx="621.246" cy="-162" rx="38.1938" ry="18"/>
<text text-anchor="middle" x="621.246" y="-158.3" font-family="Times,serif" font-size="14.00">(cc 1 0)</text>
</g>
<!-- (cc 1 1)&#45;&gt;(cc 1 0) -->
<g id="edge24" class="edge"><title>(cc 1 1)&#45;&gt;(cc 1 0)</title>
<path fill="none" stroke="black" d="M623.505,-215.697C623.174,-207.983 622.777,-198.712 622.408,-190.112"/>
<polygon fill="black" stroke="black" points="625.904,-189.945 621.979,-180.104 618.911,-190.245 625.904,-189.945"/>
</g>
<!-- (cc 0 1) -->
<g id="node26" class="node"><title>(cc 0 1)</title>
<ellipse fill="none" stroke="black" cx="716.246" cy="-162" rx="38.1938" ry="18"/>
<text text-anchor="middle" x="716.246" y="-158.3" font-family="Times,serif" font-size="14.00">(cc 0 1)</text>
</g>
<!-- (cc 1 1)&#45;&gt;(cc 0 1) -->
<g id="edge25" class="edge"><title>(cc 1 1)&#45;&gt;(cc 0 1)</title>
<path fill="none" stroke="black" d="M643.757,-218.155C656.808,-208.225 674.175,-195.011 688.638,-184.006"/>
<polygon fill="black" stroke="black" points="690.925,-186.664 696.764,-177.824 686.686,-181.094 690.925,-186.664"/>
</g>
<!-- (cc 9 0) -->
<g id="node27" class="node"><title>(cc 9 0)</title>
<ellipse fill="none" stroke="black" cx="97.2463" cy="-90" rx="38.1938" ry="18"/>
<text text-anchor="middle" x="97.2463" y="-86.3" font-family="Times,serif" font-size="14.00">(cc 9 0)</text>
</g>
<!-- (cc 9 1)&#45;&gt;(cc 9 0) -->
<g id="edge26" class="edge"><title>(cc 9 1)&#45;&gt;(cc 9 0)</title>
<path fill="none" stroke="black" d="M133.108,-144.411C127.372,-135.868 120.262,-125.278 113.889,-115.787"/>
<polygon fill="black" stroke="black" points="116.785,-113.821 108.305,-107.47 110.973,-117.723 116.785,-113.821"/>
</g>
<!-- (cc 8 1) -->
<g id="node28" class="node"><title>(cc 8 1)</title>
<ellipse fill="none" stroke="black" cx="192.246" cy="-90" rx="38.1938" ry="18"/>
<text text-anchor="middle" x="192.246" y="-86.3" font-family="Times,serif" font-size="14.00">(cc 8 1)</text>
</g>
<!-- (cc 9 1)&#45;&gt;(cc 8 1) -->
<g id="edge27" class="edge"><title>(cc 9 1)&#45;&gt;(cc 8 1)</title>
<path fill="none" stroke="black" d="M155.379,-144.765C161.231,-136.23 168.533,-125.582 175.09,-116.019"/>
<polygon fill="black" stroke="black" points="178.072,-117.86 180.84,-107.633 172.299,-113.901 178.072,-117.86"/>
</g>
<!-- 5 4 ... -->
<g id="node31" class="node"><title>5 4 ...</title>
<ellipse fill="none" stroke="black" cx="429.246" cy="-90" rx="31.6951" ry="18"/>
<text text-anchor="middle" x="429.246" y="-86.3" font-family="Times,serif" font-size="14.00">5 4 ...</text>
</g>
<!-- cc5&#45;1.2&#45;&gt;5 4 ... -->
<g id="edge30" class="edge"><title>cc5&#45;1.2&#45;&gt;5 4 ...</title>
<path fill="none" stroke="black" d="M429.246,-143.697C429.246,-135.983 429.246,-126.712 429.246,-118.112"/>
<polygon fill="black" stroke="black" points="432.746,-118.104 429.246,-108.104 425.746,-118.104 432.746,-118.104"/>
</g>
<!-- 3 2 ... -->
<g id="node30" class="node"><title>3 2 ...</title>
<ellipse fill="none" stroke="black" cx="334.246" cy="-90" rx="31.6951" ry="18"/>
<text text-anchor="middle" x="334.246" y="-86.3" font-family="Times,serif" font-size="14.00">3 2 ...</text>
</g>
<!-- (cc 4 1)&#45;&gt;3 2 ... -->
<g id="edge29" class="edge"><title>(cc 4 1)&#45;&gt;3 2 ...</title>
<path fill="none" stroke="black" d="M334.246,-143.697C334.246,-135.983 334.246,-126.712 334.246,-118.112"/>
<polygon fill="black" stroke="black" points="337.746,-118.104 334.246,-108.104 330.746,-118.104 337.746,-118.104"/>
</g>
<!-- 7 6 ... -->
<g id="node29" class="node"><title>7 6 ...</title>
<ellipse fill="none" stroke="black" cx="192.246" cy="-18" rx="31.6951" ry="18"/>
<text text-anchor="middle" x="192.246" y="-14.3" font-family="Times,serif" font-size="14.00">7 6 ...</text>
</g>
<!-- (cc 8 1)&#45;&gt;7 6 ... -->
<g id="edge28" class="edge"><title>(cc 8 1)&#45;&gt;7 6 ...</title>
<path fill="none" stroke="black" d="M192.246,-71.6966C192.246,-63.9827 192.246,-54.7125 192.246,-46.1124"/>
<polygon fill="black" stroke="black" points="195.746,-46.1043 192.246,-36.1043 188.746,-46.1044 195.746,-46.1043"/>
</g>
</g>
</svg>
