<?xml version="1.0" encoding="UTF-8" standalone="no"?>
<!DOCTYPE svg PUBLIC "-//W3C//DTD SVG 1.1//EN"
 "http://www.w3.org/Graphics/SVG/1.1/DTD/svg11.dtd">
<!-- Generated by graphviz version 2.38.0 (20140413.2041)
 -->
<!-- Title: arrow Pages: 1 -->
<svg width="933pt" height="126pt"
 viewBox="0.00 0.00 933.47 126.00" xmlns="http://www.w3.org/2000/svg" xmlns:xlink="http://www.w3.org/1999/xlink">
<g id="graph0" class="graph" transform="scale(1 1) rotate(0) translate(4 122)">
<title>arrow</title>
<polygon fill="white" stroke="none" points="-4,4 -4,-122 929.471,-122 929.471,4 -4,4"/>
<!-- box -->
<g id="node1" class="node"><title>box</title>
<ellipse fill="none" stroke="black" cx="27" cy="-23" rx="27" ry="18"/>
<text text-anchor="middle" x="27" y="-19.3" font-family="Times,serif" font-size="14.00">box</text>
</g>
<!-- crow -->
<g id="node2" class="node"><title>crow</title>
<ellipse fill="none" stroke="black" cx="118.597" cy="-46" rx="28.6953" ry="18"/>
<text text-anchor="middle" x="118.597" y="-42.3" font-family="Times,serif" font-size="14.00">crow</text>
</g>
<!-- box&#45;&gt;crow -->
<g id="edge1" class="edge"><title>box&#45;&gt;crow</title>
<path fill="none" stroke="black" d="M52.4829,-29.2849C61.5582,-31.6145 72.0448,-34.3065 81.9149,-36.8402"/>
<polygon fill="black" stroke="black" points="92.887,-35.527 90.8978,-43.2758 83.1491,-41.2866 85.1383,-33.5378 92.887,-35.527"/>
<polyline fill="none" stroke="black" points="84.1437,-37.4122 82.2065,-36.9149 "/>
</g>
<!-- curve -->
<g id="node3" class="node"><title>curve</title>
<ellipse fill="none" stroke="black" cx="213.742" cy="-46" rx="30.5947" ry="18"/>
<text text-anchor="middle" x="213.742" y="-42.3" font-family="Times,serif" font-size="14.00">curve</text>
</g>
<!-- crow&#45;&gt;curve -->
<g id="edge2" class="edge"><title>crow&#45;&gt;curve</title>
<path fill="none" stroke="black" d="M147.292,-46C155.298,-46 164.2,-46 172.795,-46"/>
<polygon fill="black" stroke="black" points="173.046,-46.0001 183.046,-50.5 178.046,-46 183.046,-46 183.046,-46 183.046,-46 178.046,-46 183.046,-41.5 173.046,-46.0001 173.046,-46.0001"/>
</g>
<!-- diamond -->
<g id="node4" class="node"><title>diamond</title>
<ellipse fill="none" stroke="black" cx="322.536" cy="-46" rx="42.4939" ry="18"/>
<text text-anchor="middle" x="322.536" y="-42.3" font-family="Times,serif" font-size="14.00">diamond</text>
</g>
<!-- curve&#45;&gt;diamond -->
<g id="edge3" class="edge"><title>curve&#45;&gt;diamond</title>
<path fill="none" stroke="black" d="M244.49,-46C252.386,-46 261.147,-46 269.847,-46"/>
<polyline fill="none" stroke="black" points="279.977,-46 269.977,-46.0001 "/>
<path fill="none" stroke="black" d="M274.977,-41C281.643,-41 281.643,-51 274.977,-51"/>
</g>
<!-- dot -->
<g id="node5" class="node"><title>dot</title>
<ellipse fill="none" stroke="black" cx="427.782" cy="-46" rx="27" ry="18"/>
<text text-anchor="middle" x="427.782" y="-42.3" font-family="Times,serif" font-size="14.00">dot</text>
</g>
<!-- diamond&#45;&gt;dot -->
<g id="edge4" class="edge"><title>diamond&#45;&gt;dot</title>
<path fill="none" stroke="black" d="M364.935,-46C372.72,-46 380.828,-46 388.512,-46"/>
<polygon fill="black" stroke="black" points="388.518,-46.0001 394.518,-42 400.518,-46 394.518,-50 388.518,-46.0001"/>
</g>
<!-- inv -->
<g id="node6" class="node"><title>inv</title>
<ellipse fill="none" stroke="black" cx="517.782" cy="-46" rx="27" ry="18"/>
<text text-anchor="middle" x="517.782" y="-42.3" font-family="Times,serif" font-size="14.00">inv</text>
</g>
<!-- dot&#45;&gt;inv -->
<g id="edge5" class="edge"><title>dot&#45;&gt;inv</title>
<path fill="none" stroke="black" d="M455.185,-46C463.79,-46 473.47,-46 482.563,-46"/>
<ellipse fill="black" stroke="black" cx="486.701" cy="-46" rx="4" ry="4"/>
</g>
<!-- none -->
<g id="node7" class="node"><title>none</title>
<ellipse fill="none" stroke="black" cx="608.73" cy="-46" rx="27.8951" ry="18"/>
<text text-anchor="middle" x="608.73" y="-42.3" font-family="Times,serif" font-size="14.00">none</text>
</g>
<!-- inv&#45;&gt;none -->
<g id="edge6" class="edge"><title>inv&#45;&gt;none</title>
<path fill="none" stroke="black" d="M544.988,-46C552.93,-46 561.813,-46 570.339,-46"/>
<polygon fill="black" stroke="black" points="580.476,-49.5 570.476,-46.0001 580.476,-42.5 580.476,-49.5"/>
</g>
<!-- normal -->
<g id="node8" class="node"><title>normal</title>
<ellipse fill="none" stroke="black" cx="709.074" cy="-46" rx="36.2938" ry="18"/>
<text text-anchor="middle" x="709.074" y="-42.3" font-family="Times,serif" font-size="14.00">normal</text>
</g>
<!-- none&#45;&gt;normal -->
<g id="edge7" class="edge"><title>none&#45;&gt;normal</title>
<path fill="none" stroke="black" d="M636.863,-46C647.893,-46 660.788,-46 672.551,-46"/>
</g>
<!-- tee -->
<g id="node9" class="node"><title>tee</title>
<ellipse fill="none" stroke="black" cx="808.471" cy="-46" rx="27" ry="18"/>
<text text-anchor="middle" x="808.471" y="-42.3" font-family="Times,serif" font-size="14.00">tee</text>
</g>
<!-- normal&#45;&gt;tee -->
<g id="edge8" class="edge"><title>normal&#45;&gt;tee</title>
<path fill="none" stroke="black" d="M745.512,-46C753.849,-46 762.747,-46 771.124,-46"/>
<polygon fill="black" stroke="black" points="771.373,-49.5001 781.373,-46 771.373,-42.5001 771.373,-49.5001"/>
</g>
<!-- vee -->
<g id="node10" class="node"><title>vee</title>
<ellipse fill="none" stroke="black" cx="898.471" cy="-23" rx="27" ry="18"/>
<text text-anchor="middle" x="898.471" y="-19.3" font-family="Times,serif" font-size="14.00">vee</text>
</g>
<!-- tee&#45;&gt;vee -->
<g id="edge9" class="edge"><title>tee&#45;&gt;vee</title>
<path fill="none" stroke="black" d="M833.983,-39.5932C844.568,-36.8268 857.038,-33.5676 868.111,-30.6734"/>
<polygon fill="black" stroke="black" points="870.857,-24.7878 873.386,-34.4628 871.451,-34.9686 868.922,-25.2936 870.857,-24.7878"/>
<polyline fill="none" stroke="black" points="873.089,-29.3724 868.252,-30.6368 "/>
</g>
<!-- vee&#45;&gt;box -->
<g id="edge10" class="edge"><title>vee&#45;&gt;box</title>
<path fill="none" stroke="black" d="M872.432,-17.9526C836.608,-11.1821 768.583,-0 710.074,-0 212.742,-0 212.742,-0 212.742,-0 160.38,-7.10543e-15 100.304,-9.21128 63.2487,-15.9752"/>
<polygon fill="black" stroke="black" points="52.9776,-17.8956 61.9803,-11.6343 57.8925,-16.9766 62.8073,-16.0577 62.8073,-16.0577 62.8073,-16.0577 57.8925,-16.9766 63.6344,-20.481 52.9776,-17.8956 52.9776,-17.8956"/>
</g>
<!-- a -->
<g id="node11" class="node"><title>a</title>
<ellipse fill="none" stroke="black" cx="27" cy="-100" rx="27" ry="18"/>
<text text-anchor="middle" x="27" y="-96.3" font-family="Times,serif" font-size="14.00">a</text>
</g>
<!-- b -->
<g id="node12" class="node"><title>b</title>
<ellipse fill="none" stroke="black" cx="118.597" cy="-100" rx="27" ry="18"/>
<text text-anchor="middle" x="118.597" y="-96.3" font-family="Times,serif" font-size="14.00">b</text>
</g>
<!-- a&#45;&gt;b -->
<g id="edge11" class="edge"><title>a&#45;&gt;b</title>
<path fill="none" stroke="black" d="M54.3976,-100C61.2331,-100 68.7604,-100 76.1644,-100"/>
<polygon fill="black" stroke="black" points="81.3885,-100 91.3886,-104.5 86.3885,-100 91.3885,-100 91.3885,-100 91.3885,-100 81.3885,-100"/>
<polygon fill="black" stroke="black" points="80.3885,-95.0001 80.3885,-100 78.3885,-100 78.3885,-95.0001 80.3885,-95.0001"/>
<polyline fill="none" stroke="black" points="81.3885,-100 76.3885,-100 "/>
</g>
</g>
</svg>
