<?xml version="1.0" encoding="UTF-8" standalone="no"?>
<!DOCTYPE svg PUBLIC "-//W3C//DTD SVG 1.1//EN"
 "http://www.w3.org/Graphics/SVG/1.1/DTD/svg11.dtd">
<!-- Generated by graphviz version 2.38.0 (20140413.2041)
 -->
<!-- Title: demo_graph Pages: 1 -->
<svg width="707pt" height="281pt"
 viewBox="0.00 0.00 707.19 281.00" xmlns="http://www.w3.org/2000/svg" xmlns:xlink="http://www.w3.org/1999/xlink">
<g id="graph0" class="graph" transform="scale(1 1) rotate(0) translate(4 277)">
<title>demo_graph</title>
<polygon fill="beige" stroke="none" points="-4,4 -4,-277 703.194,-277 703.194,4 -4,4"/>
<text text-anchor="middle" x="349.597" y="-7.4" font-family="Times,serif" font-size="12.00" fill="#1a1a1a">this is demo</text>
<!-- level1 -->
<g id="node1" class="node"><title>level1</title>
<ellipse fill="none" stroke="black" cx="32.4971" cy="-255" rx="32.4942" ry="18"/>
<text text-anchor="middle" x="32.4971" y="-251.3" font-family="Times,serif" font-size="14.00">level1</text>
</g>
<!-- level2 -->
<g id="node5" class="node"><title>level2</title>
<ellipse fill="none" stroke="black" cx="32.4971" cy="-183" rx="32.4942" ry="18"/>
<text text-anchor="middle" x="32.4971" y="-179.3" font-family="Times,serif" font-size="14.00">level2</text>
</g>
<!-- level1&#45;&gt;level2 -->
<g id="edge1" class="edge"><title>level1&#45;&gt;level2</title>
<path fill="none" stroke="black" d="M32.4971,-236.697C32.4971,-228.983 32.4971,-219.712 32.4971,-211.112"/>
<polygon fill="black" stroke="black" points="35.9972,-211.104 32.4971,-201.104 28.9972,-211.104 35.9972,-211.104"/>
</g>
<!-- a&#45;level1 -->
<g id="node2" class="node"><title>a&#45;level1</title>
<ellipse fill="none" stroke="black" cx="122.497" cy="-255" rx="38.9931" ry="18"/>
<text text-anchor="middle" x="122.497" y="-251.3" font-family="Times,serif" font-size="14.00">a&#45;level1</text>
</g>
<!-- d&#45;level2 -->
<g id="node6" class="node"><title>d&#45;level2</title>
<ellipse fill="none" stroke="black" cx="122.497" cy="-183" rx="39.7935" ry="18"/>
<text text-anchor="middle" x="122.497" y="-179.3" font-family="Times,serif" font-size="14.00">d&#45;level2</text>
</g>
<!-- a&#45;level1&#45;&gt;d&#45;level2 -->
<g id="edge4" class="edge"><title>a&#45;level1&#45;&gt;d&#45;level2</title>
<path fill="none" stroke="black" d="M122.497,-236.697C122.497,-228.983 122.497,-219.712 122.497,-211.112"/>
<polygon fill="black" stroke="black" points="125.997,-211.104 122.497,-201.104 118.997,-211.104 125.997,-211.104"/>
</g>
<!-- b&#45;level1 -->
<g id="node3" class="node"><title>b&#45;level1</title>
<ellipse fill="none" stroke="black" cx="456.497" cy="-255" rx="39.7935" ry="18"/>
<text text-anchor="middle" x="456.497" y="-251.3" font-family="Times,serif" font-size="14.00">b&#45;level1</text>
</g>
<!-- e&#45;level2 -->
<g id="node7" class="node"><title>e&#45;level2</title>
<ellipse fill="none" stroke="black" cx="340.497" cy="-183" rx="38.9931" ry="18"/>
<text text-anchor="middle" x="340.497" y="-179.3" font-family="Times,serif" font-size="14.00">e&#45;level2</text>
</g>
<!-- b&#45;level1&#45;&gt;e&#45;level2 -->
<g id="edge7" class="edge"><title>b&#45;level1&#45;&gt;e&#45;level2</title>
<path fill="none" stroke="black" d="M433.579,-240.17C416.023,-229.576 391.598,-214.837 372.173,-203.115"/>
<polygon fill="black" stroke="black" points="373.738,-199.971 363.367,-197.801 370.121,-205.964 373.738,-199.971"/>
</g>
<!-- f&#45;level3 -->
<g id="node9" class="node"><title>f&#45;level3</title>
<ellipse fill="none" stroke="black" cx="567.497" cy="-111" rx="38.1938" ry="18"/>
<text text-anchor="middle" x="567.497" y="-107.3" font-family="Times,serif" font-size="14.00">f&#45;level3</text>
</g>
<!-- b&#45;level1&#45;&gt;f&#45;level3 -->
<g id="edge8" class="edge"><title>b&#45;level1&#45;&gt;f&#45;level3</title>
<path fill="none" stroke="black" d="M469.23,-237.711C488.718,-212.78 526.056,-165.015 548.676,-136.078"/>
<polygon fill="black" stroke="black" points="551.511,-138.133 554.913,-128.099 545.996,-133.822 551.511,-138.133"/>
</g>
<!-- i&#45;level3 -->
<g id="node12" class="node"><title>i&#45;level3</title>
<ellipse fill="none" stroke="black" cx="661.497" cy="-111" rx="37.8943" ry="18"/>
<text text-anchor="middle" x="661.497" y="-107.3" font-family="Times,serif" font-size="14.00">i&#45;level3</text>
</g>
<!-- b&#45;level1&#45;&gt;i&#45;level3 -->
<g id="edge9" class="edge"><title>b&#45;level1&#45;&gt;i&#45;level3</title>
<path fill="none" stroke="black" d="M477.282,-239.603C514.059,-214.128 590.664,-161.065 632.573,-132.035"/>
<polygon fill="black" stroke="black" points="634.735,-134.796 640.962,-126.224 630.749,-129.041 634.735,-134.796"/>
</g>
<!-- k&#45;level4 -->
<g id="node15" class="node"><title>k&#45;level4</title>
<ellipse fill="none" stroke="black" cx="407.497" cy="-39" rx="39.7935" ry="18"/>
<text text-anchor="middle" x="407.497" y="-35.3" font-family="Times,serif" font-size="14.00">k&#45;level4</text>
</g>
<!-- b&#45;level1&#45;&gt;k&#45;level4 -->
<g id="edge10" class="edge"><title>b&#45;level1&#45;&gt;k&#45;level4</title>
<path fill="none" stroke="black" d="M452.285,-237.048C446.353,-213.041 435.28,-167.742 426.497,-129 421.811,-108.328 416.818,-84.8809 413.128,-67.2439"/>
<polygon fill="black" stroke="black" points="416.478,-66.1659 411.012,-57.09 409.625,-67.5936 416.478,-66.1659"/>
</g>
<!-- c&#45;level1 -->
<g id="node4" class="node"><title>c&#45;level1</title>
<ellipse fill="none" stroke="black" cx="218.497" cy="-255" rx="38.9931" ry="18"/>
<text text-anchor="middle" x="218.497" y="-251.3" font-family="Times,serif" font-size="14.00">c&#45;level1</text>
</g>
<!-- c&#45;level1&#45;&gt;d&#45;level2 -->
<g id="edge11" class="edge"><title>c&#45;level1&#45;&gt;d&#45;level2</title>
<path fill="none" stroke="black" d="M198.606,-239.496C184.797,-229.427 166.196,-215.864 150.84,-204.666"/>
<polygon fill="black" stroke="black" points="152.835,-201.79 142.693,-198.726 148.711,-207.446 152.835,-201.79"/>
</g>
<!-- g&#45;level3 -->
<g id="node10" class="node"><title>g&#45;level3</title>
<ellipse fill="none" stroke="black" cx="204.497" cy="-111" rx="39.7935" ry="18"/>
<text text-anchor="middle" x="204.497" y="-107.3" font-family="Times,serif" font-size="14.00">g&#45;level3</text>
</g>
<!-- c&#45;level1&#45;&gt;g&#45;level3 -->
<g id="edge12" class="edge"><title>c&#45;level1&#45;&gt;g&#45;level3</title>
<path fill="none" stroke="black" d="M216.808,-236.871C214.422,-212.67 210.039,-168.211 207.198,-139.393"/>
<polygon fill="black" stroke="black" points="210.656,-138.798 206.192,-129.189 203.69,-139.484 210.656,-138.798"/>
</g>
<!-- h&#45;level3 -->
<g id="node11" class="node"><title>h&#45;level3</title>
<ellipse fill="none" stroke="black" cx="301.497" cy="-111" rx="39.7935" ry="18"/>
<text text-anchor="middle" x="301.497" y="-107.3" font-family="Times,serif" font-size="14.00">h&#45;level3</text>
</g>
<!-- c&#45;level1&#45;&gt;h&#45;level3 -->
<g id="edge13" class="edge"><title>c&#45;level1&#45;&gt;h&#45;level3</title>
<path fill="none" stroke="black" d="M228.181,-237.433C242.535,-212.875 269.581,-166.604 286.507,-137.646"/>
<polygon fill="black" stroke="black" points="289.593,-139.301 291.618,-128.902 283.55,-135.769 289.593,-139.301"/>
</g>
<!-- level3 -->
<g id="node8" class="node"><title>level3</title>
<ellipse fill="none" stroke="black" cx="32.4971" cy="-111" rx="32.4942" ry="18"/>
<text text-anchor="middle" x="32.4971" y="-107.3" font-family="Times,serif" font-size="14.00">level3</text>
</g>
<!-- level2&#45;&gt;level3 -->
<g id="edge2" class="edge"><title>level2&#45;&gt;level3</title>
<path fill="none" stroke="black" d="M32.4971,-164.697C32.4971,-156.983 32.4971,-147.712 32.4971,-139.112"/>
<polygon fill="black" stroke="black" points="35.9972,-139.104 32.4971,-129.104 28.9972,-139.104 35.9972,-139.104"/>
</g>
<!-- e&#45;level2&#45;&gt;h&#45;level3 -->
<g id="edge5" class="edge"><title>e&#45;level2&#45;&gt;h&#45;level3</title>
<path fill="none" stroke="black" d="M331.255,-165.411C326.66,-157.163 321.002,-147.009 315.858,-137.777"/>
<polygon fill="black" stroke="black" points="318.869,-135.988 310.944,-128.956 312.754,-139.395 318.869,-135.988"/>
</g>
<!-- e&#45;level2&#45;&gt;k&#45;level4 -->
<g id="edge6" class="edge"><title>e&#45;level2&#45;&gt;k&#45;level4</title>
<path fill="none" stroke="black" d="M348.446,-165.153C360.031,-140.6 381.654,-94.7727 395.273,-65.9083"/>
<polygon fill="black" stroke="black" points="398.457,-67.3624 399.559,-56.825 392.126,-64.3753 398.457,-67.3624"/>
</g>
<!-- level4 -->
<g id="node14" class="node"><title>level4</title>
<ellipse fill="none" stroke="black" cx="32.4971" cy="-39" rx="32.4942" ry="18"/>
<text text-anchor="middle" x="32.4971" y="-35.3" font-family="Times,serif" font-size="14.00">level4</text>
</g>
<!-- level3&#45;&gt;level4 -->
<g id="edge3" class="edge"><title>level3&#45;&gt;level4</title>
<path fill="none" stroke="black" d="M32.4971,-92.6966C32.4971,-84.9827 32.4971,-75.7125 32.4971,-67.1124"/>
<polygon fill="black" stroke="black" points="35.9972,-67.1043 32.4971,-57.1043 28.9972,-67.1044 35.9972,-67.1043"/>
</g>
<!-- j&#45;level3 -->
<g id="node13" class="node"><title>j&#45;level3</title>
<ellipse fill="none" stroke="black" cx="473.497" cy="-111" rx="37.8943" ry="18"/>
<text text-anchor="middle" x="473.497" y="-107.3" font-family="Times,serif" font-size="14.00">j&#45;level3</text>
</g>
<!-- j&#45;level3&#45;&gt;f&#45;level3 -->
<g id="edge14" class="edge"><title>j&#45;level3&#45;&gt;f&#45;level3</title>
<path fill="none" stroke="black" d="M511.317,-111C513.786,-111 516.255,-111 518.724,-111"/>
<polygon fill="black" stroke="black" points="518.874,-114.5 528.874,-111 518.874,-107.5 518.874,-114.5"/>
</g>
<!-- j&#45;level3&#45;&gt;k&#45;level4 -->
<g id="edge15" class="edge"><title>j&#45;level3&#45;&gt;k&#45;level4</title>
<path fill="none" stroke="black" d="M458.521,-94.1159C449.913,-84.987 438.946,-73.3552 429.387,-63.2168"/>
<polygon fill="black" stroke="black" points="431.821,-60.6961 422.414,-55.8212 426.728,-65.4982 431.821,-60.6961"/>
</g>
</g>
</svg>
