<?xml version="1.0" encoding="UTF-8" standalone="no"?>
<!DOCTYPE svg PUBLIC "-//W3C//DTD SVG 1.1//EN"
 "http://www.w3.org/Graphics/SVG/1.1/DTD/svg11.dtd">
<!-- Generated by graphviz version 2.38.0 (20140413.2041)
 -->
<!-- Title: html Pages: 1 -->
<svg width="135pt" height="83pt"
 viewBox="0.00 0.00 135.00 83.00" xmlns="http://www.w3.org/2000/svg" xmlns:xlink="http://www.w3.org/1999/xlink">
<g id="graph0" class="graph" transform="scale(1 1) rotate(0) translate(4 79)">
<title>html</title>
<polygon fill="white" stroke="none" points="-4,4 -4,-79 131,-79 131,4 -4,4"/>
<!-- abc -->
<g id="node1" class="node"><title>abc</title>
<polygon fill="none" stroke="black" points="0.5,0.5 0.5,-74.5 42.5,-74.5 42.5,0.5 0.5,0.5"/>
<text text-anchor="start" x="7.5" y="-40.8" font-family="Times,serif" font-size="14.00" fill="red">hello</text>
<text text-anchor="start" x="5.5" y="-25.8" font-family="Times,serif" font-size="14.00">world</text>
<polygon fill="none" stroke="black" points="42.5,-49.5 42.5,-74.5 93.5,-74.5 93.5,-49.5 42.5,-49.5"/>
<text text-anchor="start" x="64.5" y="-58.3" font-family="Times,serif" font-size="14.00">b</text>
<polygon fill="lightgrey" stroke="none" points="93.5,0.5 93.5,-74.5 110.5,-74.5 110.5,0.5 93.5,0.5"/>
<polygon fill="none" stroke="black" points="93.5,0.5 93.5,-74.5 110.5,-74.5 110.5,0.5 93.5,0.5"/>
<text text-anchor="start" x="98.5" y="-33.3" font-family="Times,serif" font-size="14.00">g</text>
<polygon fill="none" stroke="black" points="110.5,0.5 110.5,-74.5 127.5,-74.5 127.5,0.5 110.5,0.5"/>
<text text-anchor="start" x="115.5" y="-33.3" font-family="Times,serif" font-size="14.00">h</text>
<polygon fill="none" stroke="black" points="42.5,-24.5 42.5,-49.5 59.5,-49.5 59.5,-24.5 42.5,-24.5"/>
<text text-anchor="start" x="47.5" y="-33.3" font-family="Times,serif" font-size="14.00">c</text>
<polygon fill="none" stroke="black" points="59.5,-24.5 59.5,-49.5 76.5,-49.5 76.5,-24.5 59.5,-24.5"/>
<text text-anchor="start" x="64.5" y="-33.3" font-family="Times,serif" font-size="14.00">d</text>
<polygon fill="none" stroke="black" points="76.5,-24.5 76.5,-49.5 93.5,-49.5 93.5,-24.5 76.5,-24.5"/>
<text text-anchor="start" x="81.5" y="-33.3" font-family="Times,serif" font-size="14.00">e</text>
<polygon fill="none" stroke="black" points="42.5,0.5 42.5,-24.5 93.5,-24.5 93.5,0.5 42.5,0.5"/>
<text text-anchor="start" x="65.5" y="-8.3" font-family="Times,serif" font-size="14.00">f</text>
</g>
</g>
</svg>
