<?xml version="1.0" encoding="UTF-8" standalone="no"?>
<!DOCTYPE svg PUBLIC "-//W3C//DTD SVG 1.1//EN"
 "http://www.w3.org/Graphics/SVG/1.1/DTD/svg11.dtd">
<!-- Generated by graphviz version 2.38.0 (20140413.2041)
 -->
<!-- Title: lines2 Pages: 1 -->
<svg width="453pt" height="67pt"
 viewBox="0.00 0.00 452.98 67.00" xmlns="http://www.w3.org/2000/svg" xmlns:xlink="http://www.w3.org/1999/xlink">
<g id="graph0" class="graph" transform="scale(1 1) rotate(0) translate(4 63)">
<title>lines2</title>
<polygon fill="white" stroke="none" points="-4,4 -4,-63 448.978,-63 448.978,4 -4,4"/>
<!-- solid -->
<g id="node1" class="node"><title>solid</title>
<ellipse fill="none" stroke="black" cx="27.9475" cy="-18" rx="27.8951" ry="18"/>
<text text-anchor="middle" x="27.9475" y="-14.3" font-family="Times,serif" font-size="14.00">solid</text>
</g>
<!-- dashed -->
<g id="node2" class="node"><title>dashed</title>
<ellipse fill="none" stroke="black" cx="126.992" cy="-41" rx="35.194" ry="18"/>
<text text-anchor="middle" x="126.992" y="-37.3" font-family="Times,serif" font-size="14.00">dashed</text>
</g>
<!-- solid&#45;&gt;dashed -->
<g id="edge1" class="edge"><title>solid&#45;&gt;dashed</title>
<path fill="none" stroke="black" d="M54.4448,-24.043C63.8073,-26.2619 74.6586,-28.8338 85.0366,-31.2934"/>
<polygon fill="black" stroke="black" points="84.2397,-34.7014 94.7774,-33.602 85.8541,-27.8901 84.2397,-34.7014"/>
</g>
<!-- dotted -->
<g id="node3" class="node"><title>dotted</title>
<ellipse fill="none" stroke="black" cx="230.586" cy="-41" rx="32.4942" ry="18"/>
<text text-anchor="middle" x="230.586" y="-37.3" font-family="Times,serif" font-size="14.00">dotted</text>
</g>
<!-- dashed&#45;&gt;dotted -->
<g id="edge2" class="edge"><title>dashed&#45;&gt;dotted</title>
<path fill="none" stroke="black" stroke-dasharray="5,2" d="M162.104,-41C170.3,-41 179.149,-41 187.655,-41"/>
<polygon fill="black" stroke="black" points="187.794,-44.5001 197.794,-41 187.794,-37.5001 187.794,-44.5001"/>
</g>
<!-- bold -->
<g id="node4" class="node"><title>bold</title>
<ellipse fill="none" stroke="black" cx="326.083" cy="-41" rx="27" ry="18"/>
<text text-anchor="middle" x="326.083" y="-37.3" font-family="Times,serif" font-size="14.00">bold</text>
</g>
<!-- dotted&#45;&gt;bold -->
<g id="edge3" class="edge"><title>dotted&#45;&gt;bold</title>
<path fill="none" stroke="black" stroke-dasharray="1,5" d="M263.24,-41C271.526,-41 280.52,-41 289.018,-41"/>
<polygon fill="black" stroke="black" points="289.054,-44.5001 299.054,-41 289.054,-37.5001 289.054,-44.5001"/>
</g>
<!-- invis -->
<g id="node5" class="node"><title>invis</title>
<ellipse fill="none" stroke="black" cx="417.031" cy="-18" rx="27.8951" ry="18"/>
<text text-anchor="middle" x="417.031" y="-14.3" font-family="Times,serif" font-size="14.00">invis</text>
</g>
<!-- bold&#45;&gt;invis -->
<g id="edge4" class="edge"><title>bold&#45;&gt;invis</title>
<path fill="none" stroke="black" stroke-width="2" d="M351.388,-34.7151C360.474,-32.3657 370.985,-29.6479 380.856,-27.0955"/>
<polygon fill="black" stroke="black" stroke-width="2" points="382.019,-30.4099 390.824,-24.5178 380.266,-23.6328 382.019,-30.4099"/>
</g>
<!-- invis&#45;&gt;solid -->
</g>
</svg>
