<?xml version="1.0" encoding="UTF-8" standalone="no"?>
<!DOCTYPE svg PUBLIC "-//W3C//DTD SVG 1.1//EN"
 "http://www.w3.org/Graphics/SVG/1.1/DTD/svg11.dtd">
<!-- Generated by graphviz version 2.38.0 (20140413.2041)
 -->
<!-- Title: lines Pages: 1 -->
<svg width="224pt" height="188pt"
 viewBox="0.00 0.00 224.44 188.00" xmlns="http://www.w3.org/2000/svg" xmlns:xlink="http://www.w3.org/1999/xlink">
<g id="graph0" class="graph" transform="scale(1 1) rotate(0) translate(4 184)">
<title>lines</title>
<polygon fill="white" stroke="none" points="-4,4 -4,-184 220.441,-184 220.441,4 -4,4"/>
<!-- Undirected1 -->
<g id="node1" class="node"><title>Undirected1</title>
<ellipse fill="none" stroke="black" cx="111.945" cy="-162" rx="53.8905" ry="18"/>
<text text-anchor="middle" x="111.945" y="-158.3" font-family="Times,serif" font-size="14.00">Undirected1</text>
</g>
<!-- Undirected2 -->
<g id="node2" class="node"><title>Undirected2</title>
<ellipse fill="none" stroke="black" cx="53.9452" cy="-90" rx="53.8905" ry="18"/>
<text text-anchor="middle" x="53.9452" y="-86.3" font-family="Times,serif" font-size="14.00">Undirected2</text>
</g>
<!-- Undirected1&#45;&gt;Undirected2 -->
<g id="edge1" class="edge"><title>Undirected1&#45;&gt;Undirected2</title>
<path fill="none" stroke="black" d="M98.2,-144.411C88.9544,-133.252 76.8167,-118.604 67.5917,-107.47"/>
</g>
<!-- Directed1 -->
<g id="node3" class="node"><title>Directed1</title>
<ellipse fill="none" stroke="black" cx="170.945" cy="-90" rx="45.4919" ry="18"/>
<text text-anchor="middle" x="170.945" y="-86.3" font-family="Times,serif" font-size="14.00">Directed1</text>
</g>
<!-- Undirected1&#45;&gt;Directed1 -->
<g id="edge2" class="edge"><title>Undirected1&#45;&gt;Directed1</title>
<path fill="none" stroke="black" d="M125.927,-144.411C133.275,-135.693 142.418,-124.845 150.542,-115.208"/>
<polygon fill="black" stroke="black" points="153.295,-117.372 157.063,-107.47 147.942,-112.861 153.295,-117.372"/>
</g>
<!-- Directed2 -->
<g id="node4" class="node"><title>Directed2</title>
<ellipse fill="none" stroke="black" cx="170.945" cy="-18" rx="45.4919" ry="18"/>
<text text-anchor="middle" x="170.945" y="-14.3" font-family="Times,serif" font-size="14.00">Directed2</text>
</g>
<!-- Directed1&#45;&gt;Directed2 -->
<g id="edge3" class="edge"><title>Directed1&#45;&gt;Directed2</title>
<path fill="none" stroke="black" d="M170.945,-61.6651C170.945,-56.6867 170.945,-51.4906 170.945,-46.5072"/>
<polygon fill="black" stroke="black" points="167.445,-61.6966 170.945,-71.6966 174.445,-61.6967 167.445,-61.6966"/>
<polygon fill="black" stroke="black" points="174.445,-46.1043 170.945,-36.1043 167.445,-46.1044 174.445,-46.1043"/>
</g>
</g>
</svg>
