<?xml version="1.0" encoding="UTF-8" standalone="no"?>
<!DOCTYPE svg PUBLIC "-//W3C//DTD SVG 1.1//EN"
 "http://www.w3.org/Graphics/SVG/1.1/DTD/svg11.dtd">
<!-- Generated by graphviz version 2.34.0 (20140110.0949)
 -->
<!-- Title: lines2 Pages: 1 -->
<svg width="454pt" height="67pt"
 viewBox="0.00 0.00 454.00 67.00" xmlns="http://www.w3.org/2000/svg" xmlns:xlink="http://www.w3.org/1999/xlink">
<g id="graph0" class="graph" transform="scale(1 1) rotate(0) translate(4 63)">
<title>lines2</title>
<polygon fill="white" stroke="white" points="-4,4 -4,-63 450,-63 450,4 -4,4"/>
<!-- solid -->
<g id="node1" class="node"><title>solid</title>
<ellipse fill="none" stroke="black" cx="28" cy="-18" rx="27.8951" ry="18"/>
<text text-anchor="middle" x="28" y="-14.3" font-family="Times,serif" font-size="14.00">solid</text>
</g>
<!-- dashed -->
<g id="node2" class="node"><title>dashed</title>
<ellipse fill="none" stroke="black" cx="127" cy="-41" rx="35.194" ry="18"/>
<text text-anchor="middle" x="127" y="-37.3" font-family="Times,serif" font-size="14.00">dashed</text>
</g>
<!-- solid&#45;&gt;dashed -->
<g id="edge1" class="edge"><title>solid&#45;&gt;dashed</title>
<path fill="none" stroke="black" d="M54.4856,-24.043C63.8438,-26.2619 74.6902,-28.8338 85.0634,-31.2934"/>
<polygon fill="black" stroke="black" points="84.262,-34.7003 94.7997,-33.602 85.8771,-27.8892 84.262,-34.7003"/>
</g>
<!-- dotted -->
<g id="node3" class="node"><title>dotted</title>
<ellipse fill="none" stroke="black" cx="231" cy="-41" rx="32.4942" ry="18"/>
<text text-anchor="middle" x="231" y="-37.3" font-family="Times,serif" font-size="14.00">dotted</text>
</g>
<!-- dashed&#45;&gt;dotted -->
<g id="edge2" class="edge"><title>dashed&#45;&gt;dotted</title>
<path fill="none" stroke="black" stroke-dasharray="5,2" d="M162.248,-41C170.56,-41 179.539,-41 188.157,-41"/>
<polygon fill="black" stroke="black" points="188.422,-44.5001 198.422,-41 188.422,-37.5001 188.422,-44.5001"/>
</g>
<!-- bold -->
<g id="node4" class="node"><title>bold</title>
<ellipse fill="none" stroke="black" cx="327" cy="-41" rx="27" ry="18"/>
<text text-anchor="middle" x="327" y="-37.3" font-family="Times,serif" font-size="14.00">bold</text>
</g>
<!-- dotted&#45;&gt;bold -->
<g id="edge3" class="edge"><title>dotted&#45;&gt;bold</title>
<path fill="none" stroke="black" stroke-dasharray="1,5" d="M263.562,-41C271.98,-41 281.141,-41 289.788,-41"/>
<polygon fill="black" stroke="black" points="289.994,-44.5001 299.994,-41 289.994,-37.5001 289.994,-44.5001"/>
</g>
<!-- invis -->
<g id="node5" class="node"><title>invis</title>
<ellipse fill="none" stroke="black" cx="418" cy="-18" rx="27.8951" ry="18"/>
<text text-anchor="middle" x="418" y="-14.3" font-family="Times,serif" font-size="14.00">invis</text>
</g>
<!-- bold&#45;&gt;invis -->
<g id="edge4" class="edge"><title>bold&#45;&gt;invis</title>
<path fill="none" stroke="black" stroke-width="2" d="M352.32,-34.7151C361.411,-32.3657 371.928,-29.6479 381.805,-27.0955"/>
<polygon fill="black" stroke="black" points="382.973,-30.4087 391.779,-24.5178 381.221,-23.6313 382.973,-30.4087"/>
</g>
<!-- invis&#45;&gt;solid -->
</g>
</svg>
