<?xml version="1.0" encoding="UTF-8" standalone="no"?>
<!DOCTYPE svg PUBLIC "-//W3C//DTD SVG 1.1//EN"
 "http://www.w3.org/Graphics/SVG/1.1/DTD/svg11.dtd">
<!-- Generated by graphviz version 2.34.0 (20140110.0949)
 -->
<!-- Title: brain Pages: 1 -->
<svg width="926pt" height="1232pt"
 viewBox="0.00 0.00 926.00 1232.00" xmlns="http://www.w3.org/2000/svg" xmlns:xlink="http://www.w3.org/1999/xlink">
<g id="graph0" class="graph" transform="scale(1 1) rotate(0) translate(4 1228)">
<title>brain</title>
<polygon fill="white" stroke="white" points="-4,4 -4,-1228 922,-1228 922,4 -4,4"/>
<!-- technology -->
<g id="node1" class="node"><title>technology</title>
<ellipse fill="cadetblue" stroke="cadetblue" cx="163" cy="-693" rx="50.0912" ry="18"/>
<text text-anchor="middle" x="163" y="-689.3" font-family="Times,serif" font-size="14.00">technology</text>
</g>
<!-- language -->
<g id="node5" class="node"><title>language</title>
<ellipse fill="cadetblue" stroke="cadetblue" cx="354" cy="-288" rx="42.4939" ry="18"/>
<text text-anchor="middle" x="354" y="-284.3" font-family="Times,serif" font-size="14.00">language</text>
</g>
<!-- technology&#45;&gt;language -->
<g id="edge4" class="edge"><title>technology&#45;&gt;language</title>
<path fill="none" stroke="black" d="M172.365,-675.075C202.311,-610.905 304.3,-392.357 340.295,-315.225"/>
<polygon fill="black" stroke="black" points="343.674,-316.26 344.732,-305.718 337.331,-313.3 343.674,-316.26"/>
</g>
<!-- basic -->
<g id="node6" class="node"><title>basic</title>
<ellipse fill="gray" stroke="gray" cx="354" cy="-1152" rx="28.6953" ry="18"/>
<text text-anchor="middle" x="354" y="-1148.3" font-family="Times,serif" font-size="14.00">basic</text>
</g>
<!-- technology&#45;&gt;basic -->
<g id="edge5" class="edge"><title>technology&#45;&gt;basic</title>
<path fill="none" stroke="black" d="M171.219,-710.946C190.981,-760.026 247.711,-900.584 296,-1017 311.626,-1054.67 330.034,-1098.1 341.612,-1125.31"/>
<polygon fill="black" stroke="black" points="338.412,-1126.73 345.551,-1134.55 344.852,-1123.98 338.412,-1126.73"/>
</g>
<!-- database -->
<g id="node7" class="node"><title>database</title>
<ellipse fill="aquamarine" stroke="aquamarine" cx="354" cy="-990" rx="40.8928" ry="18"/>
<text text-anchor="middle" x="354" y="-986.3" font-family="Times,serif" font-size="14.00">database</text>
</g>
<!-- technology&#45;&gt;database -->
<g id="edge6" class="edge"><title>technology&#45;&gt;database</title>
<path fill="none" stroke="black" d="M175.257,-710.689C207.241,-760.95 298.77,-904.782 336.468,-964.022"/>
<polygon fill="black" stroke="black" points="333.717,-966.218 342.039,-972.775 339.623,-962.46 333.717,-966.218"/>
</g>
<!-- tool -->
<g id="node8" class="node"><title>tool</title>
<ellipse fill="coral" stroke="coral" cx="354" cy="-693" rx="27" ry="18"/>
<text text-anchor="middle" x="354" y="-689.3" font-family="Times,serif" font-size="14.00">tool</text>
</g>
<!-- technology&#45;&gt;tool -->
<g id="edge7" class="edge"><title>technology&#45;&gt;tool</title>
<path fill="none" stroke="black" d="M213.164,-693C245.505,-693 287.13,-693 316.529,-693"/>
<polygon fill="black" stroke="black" points="316.767,-696.5 326.767,-693 316.767,-689.5 316.767,-696.5"/>
</g>
<!-- 广告技术 -->
<g id="node2" class="node"><title>广告技术</title>
<ellipse fill="cadetblue" stroke="cadetblue" cx="163" cy="-423" rx="48.1917" ry="18"/>
<text text-anchor="middle" x="163" y="-419.3" font-family="Times,serif" font-size="14.00">广告技术</text>
</g>
<!-- 这半年读的书 -->
<g id="node3" class="node"><title>这半年读的书</title>
<ellipse fill="cadetblue" stroke="cadetblue" cx="163" cy="-153" rx="66.0889" ry="18"/>
<text text-anchor="middle" x="163" y="-149.3" font-family="Times,serif" font-size="14.00">这半年读的书</text>
</g>
<!-- 汤姆叔叔的小屋 -->
<g id="node40" class="node"><title>汤姆叔叔的小屋</title>
<polygon fill="beige" stroke="beige" points="412,-144 296,-144 296,-108 412,-108 412,-144"/>
<text text-anchor="middle" x="354" y="-122.3" font-family="Times,serif" font-size="14.00">汤姆叔叔的小屋</text>
</g>
<!-- 这半年读的书&#45;&gt;汤姆叔叔的小屋 -->
<g id="edge41" class="edge"><title>这半年读的书&#45;&gt;汤姆叔叔的小屋</title>
<path fill="none" stroke="#ff4040" stroke-width="2" d="M221.991,-144.716C242.133,-141.838 264.89,-138.587 285.719,-135.612"/>
<polygon fill="#ff4040" stroke="#ff4040" points="286.364,-139.055 295.769,-134.176 285.374,-132.125 286.364,-139.055"/>
<text text-anchor="middle" x="263" y="-144" font-family="Times,serif" font-size="10.00">以完成</text>
</g>
<!-- 全球通史 -->
<g id="node41" class="node"><title>全球通史</title>
<polygon fill="beige" stroke="beige" points="391,-90 317,-90 317,-54 391,-54 391,-90"/>
<text text-anchor="middle" x="354" y="-68.3" font-family="Times,serif" font-size="14.00">全球通史</text>
</g>
<!-- 这半年读的书&#45;&gt;全球通史 -->
<g id="edge42" class="edge"><title>这半年读的书&#45;&gt;全球通史</title>
<path fill="none" stroke="#ff4040" stroke-width="2" d="M199.549,-137.765C230.109,-124.667 274.363,-105.701 307.502,-91.499"/>
<polygon fill="#ff4040" stroke="#ff4040" points="309.155,-94.5988 316.967,-87.4426 306.397,-88.1648 309.155,-94.5988"/>
<text text-anchor="middle" x="263" y="-118" font-family="Times,serif" font-size="10.00">已完成</text>
</g>
<!-- 追寻生命的意义 -->
<g id="node42" class="node"><title>追寻生命的意义</title>
<polygon fill="beige" stroke="beige" points="412,-36 296,-36 296,-0 412,-0 412,-36"/>
<text text-anchor="middle" x="354" y="-14.3" font-family="Times,serif" font-size="14.00">追寻生命的意义</text>
</g>
<!-- 这半年读的书&#45;&gt;追寻生命的意义 -->
<g id="edge43" class="edge"><title>这半年读的书&#45;&gt;追寻生命的意义</title>
<path fill="none" stroke="#ff4040" stroke-width="2" d="M182.13,-135.726C206.605,-112.999 252.21,-72.7021 296,-45 298.146,-43.6426 300.37,-42.3096 302.642,-41.0077"/>
<polygon fill="#ff4040" stroke="#ff4040" points="304.455,-44.0057 311.57,-36.1546 301.112,-37.8557 304.455,-44.0057"/>
<text text-anchor="middle" x="263" y="-81" font-family="Times,serif" font-size="10.00">已完成</text>
</g>
<!-- 清醒思考的艺术 -->
<g id="node43" class="node"><title>清醒思考的艺术</title>
<polygon fill="beige" stroke="beige" points="412,-252 296,-252 296,-216 412,-216 412,-252"/>
<text text-anchor="middle" x="354" y="-230.3" font-family="Times,serif" font-size="14.00">清醒思考的艺术</text>
</g>
<!-- 这半年读的书&#45;&gt;清醒思考的艺术 -->
<g id="edge44" class="edge"><title>这半年读的书&#45;&gt;清醒思考的艺术</title>
<path fill="none" stroke="#ff4040" stroke-width="2" d="M199.549,-168.235C228.26,-180.54 269.058,-198.025 301.37,-211.873"/>
<polygon fill="#ff4040" stroke="#ff4040" points="300.101,-215.137 310.671,-215.859 302.858,-208.703 300.101,-215.137"/>
<text text-anchor="middle" x="263" y="-204" font-family="Times,serif" font-size="10.00">已完成</text>
</g>
<!-- SICP -->
<g id="node44" class="node"><title>SICP</title>
<polygon fill="beige" stroke="beige" points="381,-198 327,-198 327,-162 381,-162 381,-198"/>
<text text-anchor="middle" x="354" y="-176.3" font-family="Times,serif" font-size="14.00">SICP</text>
</g>
<!-- 这半年读的书&#45;&gt;SICP -->
<g id="edge45" class="edge"><title>这半年读的书&#45;&gt;SICP</title>
<path fill="none" stroke="#1a1a1a" d="M221.991,-161.284C252.932,-165.705 290.045,-171.006 316.857,-174.837"/>
<polygon fill="#1a1a1a" stroke="#1a1a1a" points="316.557,-178.329 326.952,-176.279 317.547,-171.4 316.557,-178.329"/>
<text text-anchor="middle" x="263" y="-172" font-family="Times,serif" font-size="10.00">在阅</text>
</g>
<!-- brain -->
<g id="node4" class="node"><title>brain</title>
<ellipse fill="none" stroke="black" cx="29" cy="-423" rx="28.6953" ry="18"/>
<text text-anchor="middle" x="29" y="-419.3" font-family="Times,serif" font-size="14.00">brain</text>
</g>
<!-- brain&#45;&gt;technology -->
<g id="edge1" class="edge"><title>brain&#45;&gt;technology</title>
<path fill="none" stroke="black" d="M38.458,-440.3C60.8421,-486.086 121.759,-610.689 148.784,-665.967"/>
<polygon fill="black" stroke="black" points="145.733,-667.695 153.269,-675.142 152.021,-664.621 145.733,-667.695"/>
</g>
<!-- brain&#45;&gt;广告技术 -->
<g id="edge2" class="edge"><title>brain&#45;&gt;广告技术</title>
<path fill="none" stroke="black" d="M57.6715,-423C71.3821,-423 88.4697,-423 104.822,-423"/>
<polygon fill="black" stroke="black" points="104.871,-426.5 114.871,-423 104.871,-419.5 104.871,-426.5"/>
</g>
<!-- brain&#45;&gt;这半年读的书 -->
<g id="edge3" class="edge"><title>brain&#45;&gt;这半年读的书</title>
<path fill="none" stroke="black" d="M38.458,-405.7C60.8421,-359.914 121.759,-235.311 148.784,-180.033"/>
<polygon fill="black" stroke="black" points="152.021,-181.379 153.269,-170.858 145.733,-178.305 152.021,-181.379"/>
</g>
<!-- java -->
<g id="node9" class="node"><title>java</title>
<ellipse fill="#98f5ff" stroke="#98f5ff" cx="555" cy="-396" rx="27" ry="18"/>
<text text-anchor="middle" x="555" y="-392.3" font-family="Times,serif" font-size="14.00">java</text>
</g>
<!-- language&#45;&gt;java -->
<g id="edge16" class="edge"><title>language&#45;&gt;java</title>
<path fill="none" stroke="#ff4040" stroke-width="2" d="M378.005,-303.119C392.692,-312.594 412.241,-324.885 430,-335 458.672,-351.331 466.37,-354.479 496,-369 504.716,-373.272 514.24,-377.773 523.005,-381.85"/>
<polygon fill="#ff4040" stroke="#ff4040" points="521.598,-385.056 532.144,-386.076 524.536,-378.702 521.598,-385.056"/>
<text text-anchor="middle" x="454" y="-364" font-family="Times,serif" font-size="10.00">熟练</text>
</g>
<!-- CSharp -->
<g id="node15" class="node"><title>CSharp</title>
<ellipse fill="#98f5ff" stroke="#98f5ff" cx="555" cy="-342" rx="37.0935" ry="18"/>
<text text-anchor="middle" x="555" y="-338.3" font-family="Times,serif" font-size="14.00">CSharp</text>
</g>
<!-- language&#45;&gt;CSharp -->
<g id="edge17" class="edge"><title>language&#45;&gt;CSharp</title>
<path fill="none" stroke="#ff4040" d="M390.119,-297.53C424.286,-306.801 476.203,-320.889 512.417,-330.716"/>
<polygon fill="#ff4040" stroke="#ff4040" points="511.619,-334.126 522.187,-333.367 513.452,-327.37 511.619,-334.126"/>
<text text-anchor="middle" x="454" y="-323" font-family="Times,serif" font-size="10.00">熟练</text>
</g>
<!-- shell -->
<g id="node17" class="node"><title>shell</title>
<ellipse fill="#98f5ff" stroke="#98f5ff" cx="555" cy="-288" rx="27.0966" ry="18"/>
<text text-anchor="middle" x="555" y="-284.3" font-family="Times,serif" font-size="14.00">shell</text>
</g>
<!-- language&#45;&gt;shell -->
<g id="edge18" class="edge"><title>language&#45;&gt;shell</title>
<path fill="none" stroke="#1a1a1a" d="M396.717,-288C432.454,-288 483.41,-288 517.54,-288"/>
<polygon fill="#1a1a1a" stroke="#1a1a1a" points="517.557,-291.5 527.557,-288 517.557,-284.5 517.557,-291.5"/>
<text text-anchor="middle" x="454" y="-291" font-family="Times,serif" font-size="10.00">熟悉</text>
</g>
<!-- C -->
<g id="node18" class="node"><title>C</title>
<ellipse fill="#98f5ff" stroke="#98f5ff" cx="555" cy="-234" rx="27" ry="18"/>
<text text-anchor="middle" x="555" y="-230.3" font-family="Times,serif" font-size="14.00">C</text>
</g>
<!-- language&#45;&gt;C -->
<g id="edge19" class="edge"><title>language&#45;&gt;C</title>
<path fill="none" stroke="#1a1a1a" d="M390.119,-278.47C426.577,-268.577 483.246,-253.2 519.48,-243.367"/>
<polygon fill="#1a1a1a" stroke="#1a1a1a" points="520.84,-246.625 529.575,-240.628 519.007,-239.869 520.84,-246.625"/>
<text text-anchor="middle" x="454" y="-271" font-family="Times,serif" font-size="10.00">熟悉</text>
</g>
<!-- C++ -->
<g id="node19" class="node"><title>C++</title>
<ellipse fill="#98f5ff" stroke="#98f5ff" cx="555" cy="-180" rx="27.0966" ry="18"/>
<text text-anchor="middle" x="555" y="-176.3" font-family="Times,serif" font-size="14.00">C++</text>
</g>
<!-- language&#45;&gt;C++ -->
<g id="edge20" class="edge"><title>language&#45;&gt;C++</title>
<path fill="none" stroke="#1a1a1a" d="M385.755,-275.962C394.608,-271.84 404.022,-266.785 412,-261 421.417,-254.171 420.74,-249.04 430,-242 456.432,-221.906 466.273,-221.789 496,-207 504.69,-202.677 514.207,-198.159 522.972,-194.083"/>
<polygon fill="#1a1a1a" stroke="#1a1a1a" points="524.501,-197.232 532.114,-189.863 521.567,-190.876 524.501,-197.232"/>
<text text-anchor="middle" x="454" y="-245" font-family="Times,serif" font-size="10.00">熟悉</text>
</g>
<!-- scheme -->
<g id="node20" class="node"><title>scheme</title>
<ellipse fill="#98f5ff" stroke="#98f5ff" cx="555" cy="-126" rx="37.8943" ry="18"/>
<text text-anchor="middle" x="555" y="-122.3" font-family="Times,serif" font-size="14.00">scheme</text>
</g>
<!-- language&#45;&gt;scheme -->
<g id="edge21" class="edge"><title>language&#45;&gt;scheme</title>
<path fill="none" stroke="#333333" d="M388.904,-277.542C397.416,-273.532 405.862,-268.142 412,-261 430.146,-239.885 413.898,-223.712 430,-201 450.978,-171.411 464.747,-171.406 496,-153 502.514,-149.164 509.664,-145.459 516.652,-142.087"/>
<polygon fill="#333333" stroke="#333333" points="518.428,-145.12 526.004,-137.713 515.463,-138.779 518.428,-145.12"/>
<text text-anchor="middle" x="454" y="-204" font-family="Times,serif" font-size="10.00">了解</text>
</g>
<!-- elisp -->
<g id="node21" class="node"><title>elisp</title>
<ellipse fill="#98f5ff" stroke="#98f5ff" cx="555" cy="-72" rx="27.0966" ry="18"/>
<text text-anchor="middle" x="555" y="-68.3" font-family="Times,serif" font-size="14.00">elisp</text>
</g>
<!-- language&#45;&gt;elisp -->
<g id="edge22" class="edge"><title>language&#45;&gt;elisp</title>
<path fill="none" stroke="#333333" d="M389.552,-278.063C398.066,-274.055 406.352,-268.535 412,-261 442.501,-220.306 403.633,-191.486 430,-148 450.171,-114.733 490.982,-93.9793 520.279,-82.7277"/>
<polygon fill="#333333" stroke="#333333" points="521.538,-85.9941 529.727,-79.2718 519.133,-79.4201 521.538,-85.9941"/>
<text text-anchor="middle" x="454" y="-151" font-family="Times,serif" font-size="10.00">了解</text>
</g>
<!-- go -->
<g id="node22" class="node"><title>go</title>
<ellipse fill="#98f5ff" stroke="#98f5ff" cx="555" cy="-18" rx="27" ry="18"/>
<text text-anchor="middle" x="555" y="-14.3" font-family="Times,serif" font-size="14.00">go</text>
</g>
<!-- language&#45;&gt;go -->
<g id="edge23" class="edge"><title>language&#45;&gt;go</title>
<path fill="none" stroke="#333333" stroke-dasharray="1,5" d="M389.816,-278.255C398.331,-274.248 406.552,-268.681 412,-261 455.957,-199.029 391.342,-156.408 430,-91 449.642,-57.7666 490.754,-38.0555 520.258,-27.651"/>
<polygon fill="#333333" stroke="#333333" points="521.395,-30.9613 529.771,-24.4732 519.177,-24.3219 521.395,-30.9613"/>
<text text-anchor="middle" x="454" y="-94" font-family="Times,serif" font-size="10.00">略懂</text>
</g>
<!-- dot -->
<g id="node23" class="node"><title>dot</title>
<g id="a_node23"><a xlink:href="../../study_dot.html" xlink:title="dot" target="_blank">
<ellipse fill="#98f5ff" stroke="#98f5ff" cx="555" cy="-450" rx="27" ry="18"/>
<text text-anchor="middle" x="555" y="-446.3" font-family="Times,serif" font-size="14.00">dot</text>
</a>
</g>
</g>
<!-- language&#45;&gt;dot -->
<g id="edge24" class="edge"><title>language&#45;&gt;dot</title>
<path fill="none" stroke="#1a1a1a" d="M367.694,-305.308C381.777,-323.897 405.731,-353.756 430,-376 456.547,-400.332 464.88,-404.881 496,-423 504.388,-427.884 513.809,-432.58 522.579,-436.647"/>
<polygon fill="#1a1a1a" stroke="#1a1a1a" points="521.206,-439.867 531.76,-440.792 524.086,-433.487 521.206,-439.867"/>
<text text-anchor="middle" x="454" y="-415" font-family="Times,serif" font-size="10.00">熟悉</text>
</g>
<!-- algorithms -->
<g id="node24" class="node"><title>algorithms</title>
<ellipse fill="#5e5e5e" stroke="#5e5e5e" cx="555" cy="-1152" rx="48.9926" ry="18"/>
<text text-anchor="middle" x="555" y="-1148.3" font-family="Times,serif" font-size="14.00">algorithms</text>
</g>
<!-- basic&#45;&gt;algorithms -->
<g id="edge27" class="edge"><title>basic&#45;&gt;algorithms</title>
<path fill="none" stroke="#1a1a1a" d="M382.67,-1152C411.76,-1152 458.391,-1152 495.664,-1152"/>
<polygon fill="#1a1a1a" stroke="#1a1a1a" points="495.907,-1155.5 505.907,-1152 495.907,-1148.5 495.907,-1155.5"/>
<text text-anchor="middle" x="454" y="-1155" font-family="Times,serif" font-size="10.00">熟悉</text>
</g>
<!-- data&#45;structure -->
<g id="node25" class="node"><title>data&#45;structure</title>
<ellipse fill="#5e5e5e" stroke="#5e5e5e" cx="555" cy="-1206" rx="59.2899" ry="18"/>
<text text-anchor="middle" x="555" y="-1202.3" font-family="Times,serif" font-size="14.00">data&#45;structure</text>
</g>
<!-- basic&#45;&gt;data&#45;structure -->
<g id="edge28" class="edge"><title>basic&#45;&gt;data&#45;structure</title>
<path fill="none" stroke="#ff4040" stroke-width="2" d="M380.608,-1158.95C410.674,-1167.11 461.359,-1180.86 500.188,-1191.4"/>
<polygon fill="#ff4040" stroke="#ff4040" points="499.723,-1194.9 510.29,-1194.14 501.556,-1188.14 499.723,-1194.9"/>
<text text-anchor="middle" x="454" y="-1186" font-family="Times,serif" font-size="10.00">熟练</text>
</g>
<!-- Oracle -->
<g id="node36" class="node"><title>Oracle</title>
<ellipse fill="#7fffd4" stroke="#7fffd4" cx="555" cy="-936" rx="34.394" ry="18"/>
<text text-anchor="middle" x="555" y="-932.3" font-family="Times,serif" font-size="14.00">Oracle</text>
</g>
<!-- database&#45;&gt;Oracle -->
<g id="edge37" class="edge"><title>database&#45;&gt;Oracle</title>
<path fill="none" stroke="#1a1a1a" d="M389.209,-980.717C423.949,-971.29 477.699,-956.705 514.295,-946.774"/>
<polygon fill="#1a1a1a" stroke="#1a1a1a" points="515.398,-950.102 524.132,-944.105 513.564,-943.346 515.398,-950.102"/>
<text text-anchor="middle" x="454" y="-972" font-family="Times,serif" font-size="10.00">熟悉</text>
</g>
<!-- MSSqlServer -->
<g id="node37" class="node"><title>MSSqlServer</title>
<ellipse fill="#7fffd4" stroke="#7fffd4" cx="555" cy="-1098" rx="58.4896" ry="18"/>
<text text-anchor="middle" x="555" y="-1094.3" font-family="Times,serif" font-size="14.00">MSSqlServer</text>
</g>
<!-- database&#45;&gt;MSSqlServer -->
<g id="edge38" class="edge"><title>database&#45;&gt;MSSqlServer</title>
<path fill="none" stroke="#1a1a1a" d="M378.086,-1004.68C392.804,-1013.9 412.359,-1025.93 430,-1036 458.832,-1052.47 466.273,-1056.21 496,-1071 501.224,-1073.6 506.746,-1076.27 512.224,-1078.87"/>
<polygon fill="#1a1a1a" stroke="#1a1a1a" points="510.803,-1082.07 521.342,-1083.16 513.783,-1075.73 510.803,-1082.07"/>
<text text-anchor="middle" x="454" y="-1064" font-family="Times,serif" font-size="10.00">熟悉</text>
</g>
<!-- MongoDB -->
<g id="node38" class="node"><title>MongoDB</title>
<ellipse fill="#7fffd4" stroke="#7fffd4" cx="555" cy="-1044" rx="48.9926" ry="18"/>
<text text-anchor="middle" x="555" y="-1040.3" font-family="Times,serif" font-size="14.00">MongoDB</text>
</g>
<!-- database&#45;&gt;MongoDB -->
<g id="edge39" class="edge"><title>database&#45;&gt;MongoDB</title>
<path fill="none" stroke="#1a1a1a" d="M389.209,-999.283C421.206,-1007.97 469.331,-1021.02 505.325,-1030.79"/>
<polygon fill="#1a1a1a" stroke="#1a1a1a" points="504.564,-1034.21 515.132,-1033.45 506.397,-1027.46 504.564,-1034.21"/>
<text text-anchor="middle" x="454" y="-1024" font-family="Times,serif" font-size="10.00">熟悉</text>
</g>
<!-- Memcached -->
<g id="node39" class="node"><title>Memcached</title>
<ellipse fill="#7fffd4" stroke="#7fffd4" cx="555" cy="-990" rx="54.6905" ry="18"/>
<text text-anchor="middle" x="555" y="-986.3" font-family="Times,serif" font-size="14.00">Memcached</text>
</g>
<!-- database&#45;&gt;Memcached -->
<g id="edge40" class="edge"><title>database&#45;&gt;Memcached</title>
<path fill="none" stroke="#1a1a1a" d="M395.271,-990C422.412,-990 458.799,-990 489.886,-990"/>
<polygon fill="#1a1a1a" stroke="#1a1a1a" points="490.205,-993.5 500.205,-990 490.205,-986.5 490.205,-993.5"/>
<text text-anchor="middle" x="454" y="-993" font-family="Times,serif" font-size="10.00">熟悉</text>
</g>
<!-- linux -->
<g id="node28" class="node"><title>linux</title>
<ellipse fill="#ee6a50" stroke="#ee6a50" cx="555" cy="-504" rx="28.6953" ry="18"/>
<text text-anchor="middle" x="555" y="-500.3" font-family="Times,serif" font-size="14.00">linux</text>
</g>
<!-- tool&#45;&gt;linux -->
<g id="edge29" class="edge"><title>tool&#45;&gt;linux</title>
<path fill="none" stroke="#ff4040" stroke-width="2" d="M363.824,-675.997C376.444,-652.68 401.317,-610.235 430,-580 455.144,-553.495 464.611,-549.694 496,-531 503.973,-526.251 512.921,-521.726 521.357,-517.784"/>
<polygon fill="#ff4040" stroke="#ff4040" points="522.922,-520.918 530.585,-513.601 520.032,-514.542 522.922,-520.918"/>
<text text-anchor="middle" x="454" y="-583" font-family="Times,serif" font-size="10.00">fedora 熟练</text>
</g>
<!-- windows -->
<g id="node29" class="node"><title>windows</title>
<ellipse fill="#ee6a50" stroke="#ee6a50" cx="555" cy="-882" rx="42.4939" ry="18"/>
<text text-anchor="middle" x="555" y="-878.3" font-family="Times,serif" font-size="14.00">windows</text>
</g>
<!-- tool&#45;&gt;windows -->
<g id="edge30" class="edge"><title>tool&#45;&gt;windows</title>
<path fill="none" stroke="#ff4040" stroke-width="2" d="M364.263,-709.8C377.202,-732.421 402.242,-773.261 430,-803 455.481,-830.3 464.193,-835.433 496,-855 501.911,-858.636 508.392,-862.106 514.813,-865.274"/>
<polygon fill="#ff4040" stroke="#ff4040" points="513.568,-868.557 524.102,-869.683 516.569,-862.234 513.568,-868.557"/>
<text text-anchor="middle" x="454" y="-846" font-family="Times,serif" font-size="10.00">熟练</text>
</g>
<!-- emacs -->
<g id="node30" class="node"><title>emacs</title>
<ellipse fill="#ee6a50" stroke="#ee6a50" cx="555" cy="-828" rx="33.2948" ry="18"/>
<text text-anchor="middle" x="555" y="-824.3" font-family="Times,serif" font-size="14.00">emacs</text>
</g>
<!-- tool&#45;&gt;emacs -->
<g id="edge31" class="edge"><title>tool&#45;&gt;emacs</title>
<path fill="none" stroke="#1a1a1a" d="M370.926,-707.472C396.056,-729.76 447.092,-772.855 496,-801 503.323,-805.214 511.415,-809.308 519.173,-812.981"/>
<polygon fill="#1a1a1a" stroke="#1a1a1a" points="517.849,-816.224 528.396,-817.232 520.779,-809.867 517.849,-816.224"/>
<text text-anchor="middle" x="454" y="-791" font-family="Times,serif" font-size="10.00">熟悉</text>
</g>
<!-- VS -->
<g id="node31" class="node"><title>VS</title>
<ellipse fill="#cd5b45" stroke="#cd5b45" cx="555" cy="-774" rx="27" ry="18"/>
<text text-anchor="middle" x="555" y="-770.3" font-family="Times,serif" font-size="14.00">VS</text>
</g>
<!-- tool&#45;&gt;VS -->
<g id="edge33" class="edge"><title>tool&#45;&gt;VS</title>
<path fill="none" stroke="#1a1a1a" d="M377.441,-702.134C412.843,-716.544 481.78,-744.604 522.247,-761.075"/>
<polygon fill="#1a1a1a" stroke="#1a1a1a" points="521.059,-764.371 531.641,-764.899 523.698,-757.887 521.059,-764.371"/>
<text text-anchor="middle" x="454" y="-743" font-family="Times,serif" font-size="10.00">熟悉</text>
</g>
<!-- eclipse -->
<g id="node32" class="node"><title>eclipse</title>
<ellipse fill="#cd5b45" stroke="#cd5b45" cx="555" cy="-720" rx="35.194" ry="18"/>
<text text-anchor="middle" x="555" y="-716.3" font-family="Times,serif" font-size="14.00">eclipse</text>
</g>
<!-- tool&#45;&gt;eclipse -->
<g id="edge34" class="edge"><title>tool&#45;&gt;eclipse</title>
<path fill="none" stroke="#1a1a1a" d="M380.608,-696.475C413.538,-700.942 471.205,-708.766 510.935,-714.157"/>
<polygon fill="#1a1a1a" stroke="#1a1a1a" points="510.495,-717.629 520.875,-715.506 511.436,-710.693 510.495,-717.629"/>
<text text-anchor="middle" x="454" y="-711" font-family="Times,serif" font-size="10.00">熟悉</text>
</g>
<!-- org&#45;mode -->
<g id="node33" class="node"><title>org&#45;mode</title>
<ellipse fill="#cd5b45" stroke="#cd5b45" cx="555" cy="-666" rx="45.4919" ry="18"/>
<text text-anchor="middle" x="555" y="-662.3" font-family="Times,serif" font-size="14.00">org&#45;mode</text>
</g>
<!-- tool&#45;&gt;org&#45;mode -->
<g id="edge32" class="edge"><title>tool&#45;&gt;org&#45;mode</title>
<path fill="none" stroke="#1a1a1a" d="M380.608,-689.525C411.059,-685.394 462.662,-678.393 501.675,-673.099"/>
<polygon fill="#1a1a1a" stroke="#1a1a1a" points="502.37,-676.537 511.809,-671.724 501.429,-669.601 502.37,-676.537"/>
<text text-anchor="middle" x="454" y="-685" font-family="Times,serif" font-size="10.00">熟悉</text>
</g>
<!-- iis -->
<g id="node34" class="node"><title>iis</title>
<ellipse fill="#cd5b45" stroke="#cd5b45" cx="555" cy="-612" rx="27" ry="18"/>
<text text-anchor="middle" x="555" y="-608.3" font-family="Times,serif" font-size="14.00">iis</text>
</g>
<!-- tool&#45;&gt;iis -->
<g id="edge35" class="edge"><title>tool&#45;&gt;iis</title>
<path fill="none" stroke="#1a1a1a" d="M377.295,-683.725C392.202,-677.539 412.26,-669.243 430,-662 461.303,-649.22 497.13,-634.795 522.197,-624.736"/>
<polygon fill="#1a1a1a" stroke="#1a1a1a" points="523.597,-627.945 531.575,-620.974 520.991,-621.448 523.597,-627.945"/>
<text text-anchor="middle" x="454" y="-665" font-family="Times,serif" font-size="10.00">熟悉</text>
</g>
<!-- tomcat -->
<g id="node35" class="node"><title>tomcat</title>
<ellipse fill="#cd5b45" stroke="#cd5b45" cx="555" cy="-558" rx="35.194" ry="18"/>
<text text-anchor="middle" x="555" y="-554.3" font-family="Times,serif" font-size="14.00">tomcat</text>
</g>
<!-- tool&#45;&gt;tomcat -->
<g id="edge36" class="edge"><title>tool&#45;&gt;tomcat</title>
<path fill="none" stroke="#1a1a1a" d="M370.205,-678.36C384.951,-664.472 408.226,-643.354 430,-627 457.801,-606.119 465.507,-601.706 496,-585 503.123,-581.098 510.909,-577.221 518.398,-573.675"/>
<polygon fill="#1a1a1a" stroke="#1a1a1a" points="520.055,-576.765 527.654,-569.382 517.109,-570.415 520.055,-576.765"/>
<text text-anchor="middle" x="454" y="-630" font-family="Times,serif" font-size="10.00">熟悉</text>
</g>
<!-- JVM -->
<g id="node10" class="node"><title>JVM</title>
<ellipse fill="#8ee5ee" stroke="#8ee5ee" cx="718" cy="-433" rx="28.6953" ry="18"/>
<text text-anchor="middle" x="718" y="-429.3" font-family="Times,serif" font-size="14.00">JVM</text>
</g>
<!-- java&#45;&gt;JVM -->
<g id="edge8" class="edge"><title>java&#45;&gt;JVM</title>
<path fill="none" stroke="#1a1a1a" d="M580.803,-401.7C607.589,-407.856 650.512,-417.72 681.008,-424.728"/>
<polygon fill="#1a1a1a" stroke="#1a1a1a" points="680.302,-428.157 690.832,-426.986 681.87,-421.335 680.302,-428.157"/>
<text text-anchor="middle" x="642" y="-421" font-family="Times,serif" font-size="10.00">熟练</text>
</g>
<!-- Threads -->
<g id="node11" class="node"><title>Threads</title>
<ellipse fill="#8ee5ee" stroke="#8ee5ee" cx="718" cy="-322" rx="38.9931" ry="18"/>
<text text-anchor="middle" x="718" y="-318.3" font-family="Times,serif" font-size="14.00">Threads</text>
</g>
<!-- java&#45;&gt;Threads -->
<g id="edge9" class="edge"><title>java&#45;&gt;Threads</title>
<path fill="none" stroke="#ff4040" d="M577.713,-386.02C604.005,-373.936 648.691,-353.396 680.353,-338.844"/>
<polygon fill="#ff4040" stroke="#ff4040" points="682.101,-341.893 689.726,-334.536 679.178,-335.532 682.101,-341.893"/>
<text text-anchor="middle" x="642" y="-362" font-family="Times,serif" font-size="10.00">熟练</text>
</g>
<!-- 反射技术 -->
<g id="node12" class="node"><title>反射技术</title>
<ellipse fill="#8ee5ee" stroke="#8ee5ee" cx="718" cy="-378" rx="48.1917" ry="18"/>
<text text-anchor="middle" x="718" y="-374.3" font-family="Times,serif" font-size="14.00">反射技术</text>
</g>
<!-- java&#45;&gt;反射技术 -->
<g id="edge10" class="edge"><title>java&#45;&gt;反射技术</title>
<path fill="none" stroke="#1a1a1a" d="M581.867,-393.108C603.306,-390.711 634.534,-387.22 661.57,-384.197"/>
<polygon fill="#1a1a1a" stroke="#1a1a1a" points="662.148,-387.654 671.697,-383.065 661.37,-380.698 662.148,-387.654"/>
<text text-anchor="middle" x="642" y="-390" font-family="Times,serif" font-size="10.00">熟悉</text>
</g>
<!-- Servlet -->
<g id="node13" class="node"><title>Servlet</title>
<ellipse fill="#8ee5ee" stroke="#8ee5ee" cx="718" cy="-541" rx="35.9954" ry="18"/>
<text text-anchor="middle" x="718" y="-537.3" font-family="Times,serif" font-size="14.00">Servlet</text>
</g>
<!-- java&#45;&gt;Servlet -->
<g id="edge11" class="edge"><title>java&#45;&gt;Servlet</title>
<path fill="none" stroke="#1a1a1a" d="M580.075,-402.84C591.529,-407.099 604.714,-413.594 614,-423 627.696,-436.873 622.118,-446.196 632,-463 646.329,-487.366 648.86,-495.235 670,-514 673.86,-517.426 678.223,-520.623 682.696,-523.533"/>
<polygon fill="#1a1a1a" stroke="#1a1a1a" points="680.965,-526.575 691.332,-528.757 684.588,-520.586 680.965,-526.575"/>
<text text-anchor="middle" x="642" y="-498" font-family="Times,serif" font-size="10.00">熟悉</text>
</g>
<!-- GC -->
<g id="node14" class="node"><title>GC</title>
<ellipse fill="#8ee5ee" stroke="#8ee5ee" cx="718" cy="-487" rx="27" ry="18"/>
<text text-anchor="middle" x="718" y="-483.3" font-family="Times,serif" font-size="14.00">GC</text>
</g>
<!-- java&#45;&gt;GC -->
<g id="edge12" class="edge"><title>java&#45;&gt;GC</title>
<path fill="none" stroke="#ff4040" d="M578.141,-405.38C589.119,-410.262 602.463,-416.55 614,-423 640.038,-437.557 644.61,-444.34 670,-460 675.677,-463.501 681.813,-467.133 687.718,-470.555"/>
<polygon fill="#ff4040" stroke="#ff4040" points="686.294,-473.773 696.71,-475.711 689.776,-467.701 686.294,-473.773"/>
<text text-anchor="middle" x="642" y="-451" font-family="Times,serif" font-size="10.00">熟练</text>
</g>
<!-- CSharp&#45;&gt;Threads -->
<g id="edge14" class="edge"><title>CSharp&#45;&gt;Threads</title>
<path fill="none" stroke="#ff4040" d="M583.692,-330.402C593.474,-325.97 604.42,-320.621 614,-315 622.511,-310.006 622.61,-305.036 632,-302 648.092,-296.796 666.302,-299.926 681.727,-305.115"/>
<polygon fill="#ff4040" stroke="#ff4040" points="680.819,-308.513 691.411,-308.755 683.281,-301.96 680.819,-308.513"/>
<text text-anchor="middle" x="642" y="-305" font-family="Times,serif" font-size="10.00">熟练</text>
</g>
<!-- CSharp&#45;&gt;反射技术 -->
<g id="edge15" class="edge"><title>CSharp&#45;&gt;反射技术</title>
<path fill="none" stroke="#1a1a1a" d="M588.746,-334.068C607.662,-330.924 631.662,-329.424 652,-336 661.39,-339.036 661.795,-343.517 670,-349 674.07,-351.72 678.387,-354.509 682.69,-357.231"/>
<polygon fill="#1a1a1a" stroke="#1a1a1a" points="681.082,-360.354 691.418,-362.681 684.789,-354.416 681.082,-360.354"/>
<text text-anchor="middle" x="642" y="-339" font-family="Times,serif" font-size="10.00">熟悉</text>
</g>
<!-- Linq -->
<g id="node16" class="node"><title>Linq</title>
<ellipse fill="#8ee5ee" stroke="#8ee5ee" cx="718" cy="-267" rx="27.0966" ry="18"/>
<text text-anchor="middle" x="718" y="-263.3" font-family="Times,serif" font-size="14.00">Linq</text>
</g>
<!-- CSharp&#45;&gt;Linq -->
<g id="edge13" class="edge"><title>CSharp&#45;&gt;Linq</title>
<path fill="none" stroke="#ff4040" d="M586.063,-332.034C595.727,-327.831 605.993,-322.209 614,-315 625.555,-304.596 619.341,-294.029 632,-285 646.003,-275.013 664.395,-270.352 680.488,-268.253"/>
<polygon fill="#ff4040" stroke="#ff4040" points="681.069,-271.712 690.662,-267.214 680.358,-264.748 681.069,-271.712"/>
<text text-anchor="middle" x="642" y="-288" font-family="Times,serif" font-size="10.00">熟练</text>
</g>
<!-- sort -->
<g id="node26" class="node"><title>sort</title>
<ellipse fill="#525252" stroke="#525252" cx="718" cy="-1152" rx="27" ry="18"/>
<text text-anchor="middle" x="718" y="-1148.3" font-family="Times,serif" font-size="14.00">sort</text>
</g>
<!-- algorithms&#45;&gt;sort -->
<g id="edge26" class="edge"><title>algorithms&#45;&gt;sort</title>
<path fill="none" stroke="#ff4040" stroke-width="2" d="M603.869,-1152C628.355,-1152 657.69,-1152 680.351,-1152"/>
<polygon fill="#ff4040" stroke="#ff4040" points="680.571,-1155.5 690.57,-1152 680.57,-1148.5 680.571,-1155.5"/>
<text text-anchor="middle" x="642" y="-1155" font-family="Times,serif" font-size="10.00">熟练</text>
</g>
<!-- 插入排序 -->
<g id="node27" class="node"><title>插入排序</title>
<ellipse fill="#525252" stroke="#525252" cx="870" cy="-1152" rx="48.1917" ry="18"/>
<text text-anchor="middle" x="870" y="-1148.3" font-family="Times,serif" font-size="14.00">插入排序</text>
</g>
<!-- sort&#45;&gt;插入排序 -->
<g id="edge25" class="edge"><title>sort&#45;&gt;插入排序</title>
<path fill="none" stroke="#ff4040" stroke-width="2" d="M745.128,-1152C763.398,-1152 788.522,-1152 811.369,-1152"/>
<polygon fill="#ff4040" stroke="#ff4040" points="811.674,-1155.5 821.674,-1152 811.674,-1148.5 811.674,-1155.5"/>
<text text-anchor="middle" x="794" y="-1155" font-family="Times,serif" font-size="10.00">熟练</text>
</g>
</g>
</svg>
