<?xml version="1.0" encoding="UTF-8" standalone="no"?>
<!DOCTYPE svg PUBLIC "-//W3C//DTD SVG 1.1//EN"
 "http://www.w3.org/Graphics/SVG/1.1/DTD/svg11.dtd">
<!-- Generated by graphviz version 2.38.0 (20140413.2041)
 -->
<!-- Title: brain Pages: 1 -->
<svg width="923pt" height="1520pt"
 viewBox="0.00 0.00 923.46 1520.00" xmlns="http://www.w3.org/2000/svg" xmlns:xlink="http://www.w3.org/1999/xlink">
<g id="graph0" class="graph" transform="scale(1 1) rotate(0) translate(4 1516)">
<title>brain</title>
<polygon fill="white" stroke="none" points="-4,4 -4,-1516 919.456,-1516 919.456,4 -4,4"/>
<!-- technology -->
<g id="node1" class="node"><title>technology</title>
<ellipse fill="cadetblue" stroke="cadetblue" cx="160.489" cy="-846" rx="50.0912" ry="18"/>
<text text-anchor="middle" x="160.489" y="-842.3" font-family="Times,serif" font-size="14.00">technology</text>
</g>
<!-- language -->
<g id="node5" class="node"><title>language</title>
<ellipse fill="cadetblue" stroke="cadetblue" cx="350.783" cy="-414" rx="42.4939" ry="18"/>
<text text-anchor="middle" x="350.783" y="-410.3" font-family="Times,serif" font-size="14.00">language</text>
</g>
<!-- technology&#45;&gt;language -->
<g id="edge4" class="edge"><title>technology&#45;&gt;language</title>
<path fill="none" stroke="black" d="M169.221,-828.26C198.488,-761.113 302.599,-522.253 337.944,-441.163"/>
<polygon fill="black" stroke="black" points="341.303,-442.215 342.09,-431.65 334.886,-439.418 341.303,-442.215"/>
</g>
<!-- basic -->
<g id="node6" class="node"><title>basic</title>
<ellipse fill="gray" stroke="gray" cx="350.783" cy="-1305" rx="28.6953" ry="18"/>
<text text-anchor="middle" x="350.783" y="-1301.3" font-family="Times,serif" font-size="14.00">basic</text>
</g>
<!-- technology&#45;&gt;basic -->
<g id="edge5" class="edge"><title>technology&#45;&gt;basic</title>
<path fill="none" stroke="black" d="M168.657,-863.95C188.283,-913.042 244.64,-1053.63 292.783,-1170 308.374,-1207.69 326.791,-1251.11 338.381,-1278.31"/>
<polygon fill="black" stroke="black" points="335.181,-1279.73 342.324,-1287.56 341.62,-1276.99 335.181,-1279.73"/>
</g>
<!-- database -->
<g id="node7" class="node"><title>database</title>
<ellipse fill="aquamarine" stroke="aquamarine" cx="350.783" cy="-1143" rx="40.8928" ry="18"/>
<text text-anchor="middle" x="350.783" y="-1139.3" font-family="Times,serif" font-size="14.00">database</text>
</g>
<!-- technology&#45;&gt;database -->
<g id="edge6" class="edge"><title>technology&#45;&gt;database</title>
<path fill="none" stroke="black" d="M172.704,-863.689C204.568,-913.95 295.756,-1057.78 333.313,-1117.02"/>
<polygon fill="black" stroke="black" points="330.553,-1119.2 338.863,-1125.78 336.465,-1115.46 330.553,-1119.2"/>
</g>
<!-- tool -->
<g id="node8" class="node"><title>tool</title>
<ellipse fill="coral" stroke="coral" cx="350.783" cy="-846" rx="27" ry="18"/>
<text text-anchor="middle" x="350.783" y="-842.3" font-family="Times,serif" font-size="14.00">tool</text>
</g>
<!-- technology&#45;&gt;tool -->
<g id="edge7" class="edge"><title>technology&#45;&gt;tool</title>
<path fill="none" stroke="black" d="M210.961,-846C243.083,-846 284.236,-846 313.373,-846"/>
<polygon fill="black" stroke="black" points="313.524,-849.5 323.524,-846 313.524,-842.5 313.524,-849.5"/>
</g>
<!-- 广告技术 -->
<g id="node2" class="node"><title>广告技术</title>
<ellipse fill="cadetblue" stroke="cadetblue" cx="160.489" cy="-549" rx="48.1917" ry="18"/>
<text text-anchor="middle" x="160.489" y="-545.3" font-family="Times,serif" font-size="14.00">广告技术</text>
</g>
<!-- 这半年读的书 -->
<g id="node3" class="node"><title>这半年读的书</title>
<ellipse fill="cadetblue" stroke="cadetblue" cx="160.489" cy="-279" rx="66.0889" ry="18"/>
<text text-anchor="middle" x="160.489" y="-275.3" font-family="Times,serif" font-size="14.00">这半年读的书</text>
</g>
<!-- 汤姆叔叔的小屋 -->
<g id="node46" class="node"><title>汤姆叔叔的小屋</title>
<polygon fill="beige" stroke="beige" points="408.783,-270 292.783,-270 292.783,-234 408.783,-234 408.783,-270"/>
<text text-anchor="middle" x="350.783" y="-248.3" font-family="Times,serif" font-size="14.00">汤姆叔叔的小屋</text>
</g>
<!-- 这半年读的书&#45;&gt;汤姆叔叔的小屋 -->
<g id="edge47" class="edge"><title>这半年读的书&#45;&gt;汤姆叔叔的小屋</title>
<path fill="none" stroke="#ff4040" stroke-width="2" d="M219.52,-270.679C239.485,-267.816 262.005,-264.587 282.635,-261.629"/>
<polygon fill="#ff4040" stroke="#ff4040" stroke-width="2" points="283.189,-265.085 292.591,-260.201 282.195,-258.156 283.189,-265.085"/>
<text text-anchor="middle" x="259.783" y="-270" font-family="Times,serif" font-size="10.00">以完成</text>
</g>
<!-- 全球通史 -->
<g id="node47" class="node"><title>全球通史</title>
<polygon fill="beige" stroke="beige" points="387.783,-216 313.783,-216 313.783,-180 387.783,-180 387.783,-216"/>
<text text-anchor="middle" x="350.783" y="-194.3" font-family="Times,serif" font-size="14.00">全球通史</text>
</g>
<!-- 这半年读的书&#45;&gt;全球通史 -->
<g id="edge48" class="edge"><title>这半年读的书&#45;&gt;全球通史</title>
<path fill="none" stroke="#ff4040" stroke-width="2" d="M196.906,-263.765C227.254,-250.709 271.159,-231.822 304.14,-217.635"/>
<polygon fill="#ff4040" stroke="#ff4040" stroke-width="2" points="305.76,-220.748 313.564,-213.581 302.994,-214.317 305.76,-220.748"/>
<text text-anchor="middle" x="259.783" y="-244" font-family="Times,serif" font-size="10.00">已完成</text>
</g>
<!-- 追寻生命的意义 -->
<g id="node48" class="node"><title>追寻生命的意义</title>
<polygon fill="beige" stroke="beige" points="408.783,-162 292.783,-162 292.783,-126 408.783,-126 408.783,-162"/>
<text text-anchor="middle" x="350.783" y="-140.3" font-family="Times,serif" font-size="14.00">追寻生命的意义</text>
</g>
<!-- 这半年读的书&#45;&gt;追寻生命的意义 -->
<g id="edge49" class="edge"><title>这半年读的书&#45;&gt;追寻生命的意义</title>
<path fill="none" stroke="#ff4040" stroke-width="2" d="M179.505,-261.716C203.83,-238.979 249.169,-198.671 292.783,-171 294.927,-169.64 297.15,-168.304 299.421,-167.001"/>
<polygon fill="#ff4040" stroke="#ff4040" stroke-width="2" points="301.236,-169.998 308.345,-162.142 297.889,-163.85 301.236,-169.998"/>
<text text-anchor="middle" x="259.783" y="-207" font-family="Times,serif" font-size="10.00">已完成</text>
</g>
<!-- 清醒思考的艺术 -->
<g id="node49" class="node"><title>清醒思考的艺术</title>
<polygon fill="beige" stroke="beige" points="408.783,-378 292.783,-378 292.783,-342 408.783,-342 408.783,-378"/>
<text text-anchor="middle" x="350.783" y="-356.3" font-family="Times,serif" font-size="14.00">清醒思考的艺术</text>
</g>
<!-- 这半年读的书&#45;&gt;清醒思考的艺术 -->
<g id="edge50" class="edge"><title>这半年读的书&#45;&gt;清醒思考的艺术</title>
<path fill="none" stroke="#ff4040" stroke-width="2" d="M196.906,-294.235C225.509,-306.54 266.154,-324.025 298.346,-337.873"/>
<polygon fill="#ff4040" stroke="#ff4040" stroke-width="2" points="297.043,-341.122 307.612,-341.859 299.809,-334.692 297.043,-341.122"/>
<text text-anchor="middle" x="259.783" y="-330" font-family="Times,serif" font-size="10.00">已完成</text>
</g>
<!-- SICP -->
<g id="node50" class="node"><title>SICP</title>
<polygon fill="beige" stroke="beige" points="377.783,-324 323.783,-324 323.783,-288 377.783,-288 377.783,-324"/>
<text text-anchor="middle" x="350.783" y="-302.3" font-family="Times,serif" font-size="14.00">SICP</text>
</g>
<!-- 这半年读的书&#45;&gt;SICP -->
<g id="edge51" class="edge"><title>这半年读的书&#45;&gt;SICP</title>
<path fill="none" stroke="#1a1a1a" d="M219.52,-287.321C250.237,-291.726 286.999,-296.997 313.626,-300.815"/>
<polygon fill="#1a1a1a" stroke="#1a1a1a" points="313.26,-304.299 323.656,-302.254 314.254,-297.369 313.26,-304.299"/>
<text text-anchor="middle" x="259.783" y="-298" font-family="Times,serif" font-size="10.00">在阅</text>
</g>
<!-- brain -->
<g id="node4" class="node"><title>brain</title>
<ellipse fill="none" stroke="black" cx="28.5975" cy="-549" rx="28.6953" ry="18"/>
<text text-anchor="middle" x="28.5975" y="-545.3" font-family="Times,serif" font-size="14.00">brain</text>
</g>
<!-- brain&#45;&gt;technology -->
<g id="edge1" class="edge"><title>brain&#45;&gt;technology</title>
<path fill="none" stroke="black" d="M37.1424,-566.252C58.7865,-615.741 121.213,-758.481 147.546,-818.692"/>
<polygon fill="black" stroke="black" points="144.381,-820.19 151.595,-827.95 150.795,-817.385 144.381,-820.19"/>
</g>
<!-- brain&#45;&gt;广告技术 -->
<g id="edge2" class="edge"><title>brain&#45;&gt;广告技术</title>
<path fill="none" stroke="black" d="M57.4625,-549C70.5484,-549 86.6548,-549 102.172,-549"/>
<polygon fill="black" stroke="black" points="102.246,-552.5 112.246,-549 102.246,-545.5 102.246,-552.5"/>
</g>
<!-- brain&#45;&gt;这半年读的书 -->
<g id="edge3" class="edge"><title>brain&#45;&gt;这半年读的书</title>
<path fill="none" stroke="black" d="M37.9204,-531.7C59.9469,-485.914 119.891,-361.311 146.484,-306.033"/>
<polygon fill="black" stroke="black" points="149.717,-307.387 150.898,-296.858 143.409,-304.352 149.717,-307.387"/>
</g>
<!-- java -->
<g id="node9" class="node"><title>java</title>
<ellipse fill="#98f5ff" stroke="#98f5ff" cx="551.928" cy="-171" rx="27" ry="18"/>
<text text-anchor="middle" x="551.928" y="-167.3" font-family="Times,serif" font-size="14.00">java</text>
</g>
<!-- language&#45;&gt;java -->
<g id="edge16" class="edge"><title>language&#45;&gt;java</title>
<path fill="none" stroke="#ff4040" stroke-width="2" d="M386.486,-404.174C395.001,-400.167 403.249,-394.619 408.783,-387 445.649,-336.24 395.068,-301.127 426.783,-247 446.583,-213.208 487.908,-192.477 517.44,-181.378"/>
<polygon fill="#ff4040" stroke="#ff4040" stroke-width="2" points="518.716,-184.639 526.955,-177.978 516.36,-178.047 518.716,-184.639"/>
<text text-anchor="middle" x="450.783" y="-250" font-family="Times,serif" font-size="10.00">熟练</text>
</g>
<!-- CSharp -->
<g id="node15" class="node"><title>CSharp</title>
<ellipse fill="#98f5ff" stroke="#98f5ff" cx="551.928" cy="-69" rx="37.0935" ry="18"/>
<text text-anchor="middle" x="551.928" y="-65.3" font-family="Times,serif" font-size="14.00">CSharp</text>
</g>
<!-- language&#45;&gt;CSharp -->
<g id="edge17" class="edge"><title>language&#45;&gt;CSharp</title>
<path fill="none" stroke="#ff4040" d="M386.68,-404.312C395.195,-400.305 403.396,-394.723 408.783,-387 434.314,-350.401 407.363,-227.177 426.783,-187 447.395,-144.358 490.416,-109.1 519.981,-88.5437"/>
<polygon fill="#ff4040" stroke="#ff4040" points="521.999,-91.4042 528.309,-82.8932 518.069,-85.6117 521.999,-91.4042"/>
<text text-anchor="middle" x="450.783" y="-190" font-family="Times,serif" font-size="10.00">熟练</text>
</g>
<!-- shell -->
<g id="node17" class="node"><title>shell</title>
<ellipse fill="#98f5ff" stroke="#98f5ff" cx="551.928" cy="-603" rx="27.0966" ry="18"/>
<text text-anchor="middle" x="551.928" y="-599.3" font-family="Times,serif" font-size="14.00">shell</text>
</g>
<!-- language&#45;&gt;shell -->
<g id="edge18" class="edge"><title>language&#45;&gt;shell</title>
<path fill="none" stroke="#1a1a1a" d="M361.117,-431.596C373.952,-454.811 398.681,-496.211 426.783,-526 452.036,-552.769 461.248,-557.031 492.783,-576 501.048,-580.971 510.38,-585.671 519.109,-589.713"/>
<polygon fill="#1a1a1a" stroke="#1a1a1a" points="517.71,-592.921 528.266,-593.823 520.576,-586.535 517.71,-592.921"/>
<text text-anchor="middle" x="450.783" y="-568" font-family="Times,serif" font-size="10.00">熟悉</text>
</g>
<!-- C -->
<g id="node18" class="node"><title>C</title>
<ellipse fill="#98f5ff" stroke="#98f5ff" cx="551.928" cy="-549" rx="27" ry="18"/>
<text text-anchor="middle" x="551.928" y="-545.3" font-family="Times,serif" font-size="14.00">C</text>
</g>
<!-- language&#45;&gt;C -->
<g id="edge19" class="edge"><title>language&#45;&gt;C</title>
<path fill="none" stroke="#1a1a1a" d="M369.392,-430.476C384.236,-444.065 406.279,-463.55 426.783,-479 454.743,-500.069 462.162,-505.029 492.783,-522 501.29,-526.715 510.765,-531.357 519.556,-535.427"/>
<polygon fill="#1a1a1a" stroke="#1a1a1a" points="518.194,-538.653 528.747,-539.595 521.085,-532.277 518.194,-538.653"/>
<text text-anchor="middle" x="450.783" y="-514" font-family="Times,serif" font-size="10.00">熟悉</text>
</g>
<!-- C++ -->
<g id="node19" class="node"><title>C++</title>
<ellipse fill="#98f5ff" stroke="#98f5ff" cx="551.928" cy="-495" rx="27.0966" ry="18"/>
<text text-anchor="middle" x="551.928" y="-491.3" font-family="Times,serif" font-size="14.00">C++</text>
</g>
<!-- language&#45;&gt;C++ -->
<g id="edge20" class="edge"><title>language&#45;&gt;C++</title>
<path fill="none" stroke="#1a1a1a" d="M381.684,-426.432C395.412,-432.121 411.912,-438.932 426.783,-445 457.93,-457.709 493.554,-472.035 518.629,-482.085"/>
<polygon fill="#1a1a1a" stroke="#1a1a1a" points="517.437,-485.378 528.022,-485.847 520.04,-478.879 517.437,-485.378"/>
<text text-anchor="middle" x="450.783" y="-467" font-family="Times,serif" font-size="10.00">熟悉</text>
</g>
<!-- scheme -->
<g id="node20" class="node"><title>scheme</title>
<ellipse fill="#98f5ff" stroke="#98f5ff" cx="551.928" cy="-441" rx="37.8943" ry="18"/>
<text text-anchor="middle" x="551.928" y="-437.3" font-family="Times,serif" font-size="14.00">scheme</text>
</g>
<!-- language&#45;&gt;scheme -->
<g id="edge21" class="edge"><title>language&#45;&gt;scheme</title>
<path fill="none" stroke="#333333" d="M391.604,-419.399C424.419,-423.848 470.971,-430.159 505.286,-434.812"/>
<polygon fill="#333333" stroke="#333333" points="505.134,-438.323 515.514,-436.199 506.075,-431.387 505.134,-438.323"/>
<text text-anchor="middle" x="450.783" y="-433" font-family="Times,serif" font-size="10.00">了解</text>
</g>
<!-- elisp -->
<g id="node21" class="node"><title>elisp</title>
<ellipse fill="#98f5ff" stroke="#98f5ff" cx="551.928" cy="-387" rx="27.0966" ry="18"/>
<text text-anchor="middle" x="551.928" y="-383.3" font-family="Times,serif" font-size="14.00">elisp</text>
</g>
<!-- language&#45;&gt;elisp -->
<g id="edge22" class="edge"><title>language&#45;&gt;elisp</title>
<path fill="none" stroke="#333333" d="M391.604,-408.601C427.607,-403.72 480.149,-396.596 514.92,-391.882"/>
<polygon fill="#333333" stroke="#333333" points="515.663,-395.313 525.102,-390.501 514.723,-388.377 515.663,-395.313"/>
<text text-anchor="middle" x="450.783" y="-406" font-family="Times,serif" font-size="10.00">了解</text>
</g>
<!-- go -->
<g id="node22" class="node"><title>go</title>
<ellipse fill="#98f5ff" stroke="#98f5ff" cx="551.928" cy="-333" rx="27" ry="18"/>
<text text-anchor="middle" x="551.928" y="-329.3" font-family="Times,serif" font-size="14.00">go</text>
</g>
<!-- language&#45;&gt;go -->
<g id="edge23" class="edge"><title>language&#45;&gt;go</title>
<path fill="none" stroke="#333333" stroke-dasharray="1,5" d="M380.912,-401.353C394.769,-395.392 411.592,-388.237 426.783,-382 457.816,-369.258 493.455,-355.256 518.565,-345.495"/>
<polygon fill="#333333" stroke="#333333" points="519.915,-348.725 527.972,-341.844 517.383,-342.199 519.915,-348.725"/>
<text text-anchor="middle" x="450.783" y="-385" font-family="Times,serif" font-size="10.00">略懂</text>
</g>
<!-- dot -->
<g id="node23" class="node"><title>dot</title>
<g id="a_node23"><a xlink:href="../../study_dot.html" xlink:title="dot" target="_blank">
<ellipse fill="#98f5ff" stroke="#98f5ff" cx="551.928" cy="-279" rx="27" ry="18"/>
<text text-anchor="middle" x="551.928" y="-275.3" font-family="Times,serif" font-size="14.00">dot</text>
</a>
</g>
</g>
<!-- language&#45;&gt;dot -->
<g id="edge24" class="edge"><title>language&#45;&gt;dot</title>
<path fill="none" stroke="#1a1a1a" d="M384.788,-403.128C393.393,-399.099 402.113,-393.802 408.783,-387 422.433,-373.081 413.945,-361.671 426.783,-347 449.525,-321.013 462.401,-322.413 492.783,-306 501.341,-301.377 510.831,-296.764 519.621,-292.693"/>
<polygon fill="#1a1a1a" stroke="#1a1a1a" points="521.154,-295.841 528.806,-288.513 518.255,-289.469 521.154,-295.841"/>
<text text-anchor="middle" x="450.783" y="-350" font-family="Times,serif" font-size="10.00">熟悉</text>
</g>
<!-- plantuml -->
<g id="node24" class="node"><title>plantuml</title>
<g id="a_node24"><a xlink:href="../../study_plantuml.html" xlink:title="plantuml" target="_blank">
<ellipse fill="#98f5ff" stroke="#98f5ff" cx="551.928" cy="-225" rx="42.4939" ry="18"/>
<text text-anchor="middle" x="551.928" y="-221.3" font-family="Times,serif" font-size="14.00">plantuml</text>
</a>
</g>
</g>
<!-- language&#45;&gt;plantuml -->
<g id="edge25" class="edge"><title>language&#45;&gt;plantuml</title>
<path fill="none" stroke="#1a1a1a" d="M386.108,-403.888C394.621,-399.879 402.963,-394.403 408.783,-387 433.186,-355.958 405.376,-333.179 426.783,-300 446.448,-269.523 461.521,-270.391 492.783,-252 498.777,-248.474 505.309,-245.06 511.759,-241.915"/>
<polygon fill="#1a1a1a" stroke="#1a1a1a" points="513.53,-244.95 521.079,-237.516 510.542,-238.619 513.53,-244.95"/>
<text text-anchor="middle" x="450.783" y="-303" font-family="Times,serif" font-size="10.00">熟悉</text>
</g>
<!-- algorithms -->
<g id="node25" class="node"><title>algorithms</title>
<ellipse fill="#5e5e5e" stroke="#5e5e5e" cx="551.928" cy="-1359" rx="48.9926" ry="18"/>
<text text-anchor="middle" x="551.928" y="-1355.3" font-family="Times,serif" font-size="14.00">algorithms</text>
</g>
<!-- basic&#45;&gt;algorithms -->
<g id="edge33" class="edge"><title>basic&#45;&gt;algorithms</title>
<path fill="none" stroke="#1a1a1a" d="M377.41,-1311.95C408.884,-1320.48 462.94,-1335.14 502.372,-1345.83"/>
<polygon fill="#1a1a1a" stroke="#1a1a1a" points="501.491,-1349.22 512.059,-1348.46 503.324,-1342.47 501.491,-1349.22"/>
<text text-anchor="middle" x="450.783" y="-1341" font-family="Times,serif" font-size="10.00">熟悉</text>
</g>
<!-- data&#45;structure -->
<g id="node26" class="node"><title>data&#45;structure</title>
<ellipse fill="#5e5e5e" stroke="#5e5e5e" cx="551.928" cy="-1305" rx="59.2899" ry="18"/>
<text text-anchor="middle" x="551.928" y="-1301.3" font-family="Times,serif" font-size="14.00">data&#45;structure</text>
</g>
<!-- basic&#45;&gt;data&#45;structure -->
<g id="edge34" class="edge"><title>basic&#45;&gt;data&#45;structure</title>
<path fill="none" stroke="#ff4040" stroke-width="2" d="M379.473,-1305C405.931,-1305 446.888,-1305 482.137,-1305"/>
<polygon fill="#ff4040" stroke="#ff4040" stroke-width="2" points="482.389,-1308.5 492.389,-1305 482.389,-1301.5 482.389,-1308.5"/>
<text text-anchor="middle" x="450.783" y="-1308" font-family="Times,serif" font-size="10.00">熟练</text>
</g>
<!-- Oracle -->
<g id="node42" class="node"><title>Oracle</title>
<ellipse fill="#7fffd4" stroke="#7fffd4" cx="551.928" cy="-1143" rx="34.394" ry="18"/>
<text text-anchor="middle" x="551.928" y="-1139.3" font-family="Times,serif" font-size="14.00">Oracle</text>
</g>
<!-- database&#45;&gt;Oracle -->
<g id="edge43" class="edge"><title>database&#45;&gt;Oracle</title>
<path fill="none" stroke="#1a1a1a" d="M392.083,-1143C425.455,-1143 472.792,-1143 507.101,-1143"/>
<polygon fill="#1a1a1a" stroke="#1a1a1a" points="507.301,-1146.5 517.301,-1143 507.301,-1139.5 507.301,-1146.5"/>
<text text-anchor="middle" x="450.783" y="-1146" font-family="Times,serif" font-size="10.00">熟悉</text>
</g>
<!-- MSSqlServer -->
<g id="node43" class="node"><title>MSSqlServer</title>
<ellipse fill="#7fffd4" stroke="#7fffd4" cx="551.928" cy="-1089" rx="58.4896" ry="18"/>
<text text-anchor="middle" x="551.928" y="-1085.3" font-family="Times,serif" font-size="14.00">MSSqlServer</text>
</g>
<!-- database&#45;&gt;MSSqlServer -->
<g id="edge44" class="edge"><title>database&#45;&gt;MSSqlServer</title>
<path fill="none" stroke="#1a1a1a" d="M386.017,-1133.72C416.716,-1125.39 462.249,-1113.05 497.697,-1103.43"/>
<polygon fill="#1a1a1a" stroke="#1a1a1a" points="498.672,-1106.8 507.407,-1100.8 496.84,-1100.04 498.672,-1106.8"/>
<text text-anchor="middle" x="450.783" y="-1125" font-family="Times,serif" font-size="10.00">熟悉</text>
</g>
<!-- MongoDB -->
<g id="node44" class="node"><title>MongoDB</title>
<ellipse fill="#7fffd4" stroke="#7fffd4" cx="551.928" cy="-1251" rx="48.9926" ry="18"/>
<text text-anchor="middle" x="551.928" y="-1247.3" font-family="Times,serif" font-size="14.00">MongoDB</text>
</g>
<!-- database&#45;&gt;MongoDB -->
<g id="edge45" class="edge"><title>database&#45;&gt;MongoDB</title>
<path fill="none" stroke="#1a1a1a" d="M374.047,-1158.13C388.771,-1167.91 408.635,-1180.69 426.783,-1191 455.301,-1207.2 463.241,-1209.76 492.783,-1224 498.846,-1226.92 505.288,-1229.97 511.593,-1232.92"/>
<polygon fill="#1a1a1a" stroke="#1a1a1a" points="510.129,-1236.1 520.672,-1237.15 513.085,-1229.76 510.129,-1236.1"/>
<text text-anchor="middle" x="450.783" y="-1218" font-family="Times,serif" font-size="10.00">熟悉</text>
</g>
<!-- Memcached -->
<g id="node45" class="node"><title>Memcached</title>
<ellipse fill="#7fffd4" stroke="#7fffd4" cx="551.928" cy="-1197" rx="54.6905" ry="18"/>
<text text-anchor="middle" x="551.928" y="-1193.3" font-family="Times,serif" font-size="14.00">Memcached</text>
</g>
<!-- database&#45;&gt;Memcached -->
<g id="edge46" class="edge"><title>database&#45;&gt;Memcached</title>
<path fill="none" stroke="#1a1a1a" d="M386.017,-1152.28C417.224,-1160.74 463.761,-1173.36 499.45,-1183.04"/>
<polygon fill="#1a1a1a" stroke="#1a1a1a" points="498.639,-1186.45 509.206,-1185.69 500.471,-1179.69 498.639,-1186.45"/>
<text text-anchor="middle" x="450.783" y="-1179" font-family="Times,serif" font-size="10.00">熟悉</text>
</g>
<!-- linux -->
<g id="node34" class="node"><title>linux</title>
<ellipse fill="#ee6a50" stroke="#ee6a50" cx="551.928" cy="-927" rx="28.6953" ry="18"/>
<text text-anchor="middle" x="551.928" y="-923.3" font-family="Times,serif" font-size="14.00">linux</text>
</g>
<!-- tool&#45;&gt;linux -->
<g id="edge35" class="edge"><title>tool&#45;&gt;linux</title>
<path fill="none" stroke="#ff4040" stroke-width="2" d="M374.077,-855.277C388.984,-861.464 409.042,-869.761 426.783,-877 457.551,-889.554 492.686,-903.686 517.707,-913.715"/>
<polygon fill="#ff4040" stroke="#ff4040" stroke-width="2" points="516.518,-917.009 527.103,-917.479 519.121,-910.511 516.518,-917.009"/>
<text text-anchor="middle" x="450.783" y="-899" font-family="Times,serif" font-size="10.00">fedora 熟练</text>
</g>
<!-- windows -->
<g id="node35" class="node"><title>windows</title>
<ellipse fill="#ee6a50" stroke="#ee6a50" cx="551.928" cy="-873" rx="42.4939" ry="18"/>
<text text-anchor="middle" x="551.928" y="-869.3" font-family="Times,serif" font-size="14.00">windows</text>
</g>
<!-- tool&#45;&gt;windows -->
<g id="edge36" class="edge"><title>tool&#45;&gt;windows</title>
<path fill="none" stroke="#ff4040" stroke-width="2" d="M377.41,-849.475C408.624,-853.707 462.049,-860.95 501.392,-866.284"/>
<polygon fill="#ff4040" stroke="#ff4040" stroke-width="2" points="500.942,-869.755 511.322,-867.63 501.883,-862.818 500.942,-869.755"/>
<text text-anchor="middle" x="450.783" y="-865" font-family="Times,serif" font-size="10.00">熟练</text>
</g>
<!-- emacs -->
<g id="node36" class="node"><title>emacs</title>
<ellipse fill="#ee6a50" stroke="#ee6a50" cx="551.928" cy="-819" rx="33.2948" ry="18"/>
<text text-anchor="middle" x="551.928" y="-815.3" font-family="Times,serif" font-size="14.00">emacs</text>
</g>
<!-- tool&#45;&gt;emacs -->
<g id="edge37" class="edge"><title>tool&#45;&gt;emacs</title>
<path fill="none" stroke="#1a1a1a" d="M377.41,-842.525C410.847,-837.992 469.77,-830.003 509.569,-824.607"/>
<polygon fill="#1a1a1a" stroke="#1a1a1a" points="510.059,-828.073 519.498,-823.261 509.119,-821.137 510.059,-828.073"/>
<text text-anchor="middle" x="450.783" y="-838" font-family="Times,serif" font-size="10.00">熟悉</text>
</g>
<!-- VS -->
<g id="node37" class="node"><title>VS</title>
<ellipse fill="#cd5b45" stroke="#cd5b45" cx="551.928" cy="-765" rx="27" ry="18"/>
<text text-anchor="middle" x="551.928" y="-761.3" font-family="Times,serif" font-size="14.00">VS</text>
</g>
<!-- tool&#45;&gt;VS -->
<g id="edge39" class="edge"><title>tool&#45;&gt;VS</title>
<path fill="none" stroke="#1a1a1a" d="M373.705,-836.46C388.624,-830.013 408.842,-821.366 426.783,-814 457.816,-801.258 493.455,-787.256 518.565,-777.495"/>
<polygon fill="#1a1a1a" stroke="#1a1a1a" points="519.915,-780.725 527.972,-773.844 517.383,-774.199 519.915,-780.725"/>
<text text-anchor="middle" x="450.783" y="-817" font-family="Times,serif" font-size="10.00">熟悉</text>
</g>
<!-- eclipse -->
<g id="node38" class="node"><title>eclipse</title>
<ellipse fill="#cd5b45" stroke="#cd5b45" cx="551.928" cy="-711" rx="35.194" ry="18"/>
<text text-anchor="middle" x="551.928" y="-707.3" font-family="Times,serif" font-size="14.00">eclipse</text>
</g>
<!-- tool&#45;&gt;eclipse -->
<g id="edge40" class="edge"><title>tool&#45;&gt;eclipse</title>
<path fill="none" stroke="#1a1a1a" d="M366.631,-831.329C381.305,-817.177 404.697,-795.53 426.783,-779 454.43,-758.308 462.401,-754.413 492.783,-738 499.944,-734.132 507.758,-730.27 515.268,-726.728"/>
<polygon fill="#1a1a1a" stroke="#1a1a1a" points="516.94,-729.81 524.546,-722.434 514,-723.458 516.94,-729.81"/>
<text text-anchor="middle" x="450.783" y="-782" font-family="Times,serif" font-size="10.00">熟悉</text>
</g>
<!-- org&#45;mode -->
<g id="node39" class="node"><title>org&#45;mode</title>
<ellipse fill="#cd5b45" stroke="#cd5b45" cx="551.928" cy="-657" rx="45.4919" ry="18"/>
<text text-anchor="middle" x="551.928" y="-653.3" font-family="Times,serif" font-size="14.00">org&#45;mode</text>
</g>
<!-- tool&#45;&gt;org&#45;mode -->
<g id="edge38" class="edge"><title>tool&#45;&gt;org&#45;mode</title>
<path fill="none" stroke="#1a1a1a" d="M360.607,-828.997C373.227,-805.68 398.1,-763.235 426.783,-733 451.927,-706.495 461.386,-702.679 492.783,-684 498.37,-680.676 504.434,-677.464 510.467,-674.485"/>
<polygon fill="#1a1a1a" stroke="#1a1a1a" points="512.327,-677.475 519.848,-670.013 509.315,-671.157 512.327,-677.475"/>
<text text-anchor="middle" x="450.783" y="-736" font-family="Times,serif" font-size="10.00">熟悉</text>
</g>
<!-- iis -->
<g id="node40" class="node"><title>iis</title>
<ellipse fill="#cd5b45" stroke="#cd5b45" cx="551.928" cy="-1035" rx="27" ry="18"/>
<text text-anchor="middle" x="551.928" y="-1031.3" font-family="Times,serif" font-size="14.00">iis</text>
</g>
<!-- tool&#45;&gt;iis -->
<g id="edge41" class="edge"><title>tool&#45;&gt;iis</title>
<path fill="none" stroke="#1a1a1a" d="M360.682,-862.807C373.388,-885.864 398.36,-927.87 426.783,-958 452.036,-984.769 461.248,-989.031 492.783,-1008 501.118,-1013.01 510.538,-1017.75 519.331,-1021.82"/>
<polygon fill="#1a1a1a" stroke="#1a1a1a" points="517.989,-1025.05 528.546,-1025.94 520.851,-1018.66 517.989,-1025.05"/>
<text text-anchor="middle" x="450.783" y="-1000" font-family="Times,serif" font-size="10.00">熟悉</text>
</g>
<!-- tomcat -->
<g id="node41" class="node"><title>tomcat</title>
<ellipse fill="#cd5b45" stroke="#cd5b45" cx="551.928" cy="-981" rx="35.194" ry="18"/>
<text text-anchor="middle" x="551.928" y="-977.3" font-family="Times,serif" font-size="14.00">tomcat</text>
</g>
<!-- tool&#45;&gt;tomcat -->
<g id="edge42" class="edge"><title>tool&#45;&gt;tomcat</title>
<path fill="none" stroke="#1a1a1a" d="M367.348,-860.601C382.162,-874.225 405.316,-894.824 426.783,-911 454.743,-932.069 462.162,-937.029 492.783,-954 499.902,-957.945 507.698,-961.84 515.203,-965.39"/>
<polygon fill="#1a1a1a" stroke="#1a1a1a" points="513.937,-968.661 524.482,-969.682 516.875,-962.307 513.937,-968.661"/>
<text text-anchor="middle" x="450.783" y="-946" font-family="Times,serif" font-size="10.00">熟悉</text>
</g>
<!-- JVM -->
<g id="node10" class="node"><title>JVM</title>
<ellipse fill="#8ee5ee" stroke="#8ee5ee" cx="715.168" cy="-184" rx="28.6953" ry="18"/>
<text text-anchor="middle" x="715.168" y="-180.3" font-family="Times,serif" font-size="14.00">JVM</text>
</g>
<!-- java&#45;&gt;JVM -->
<g id="edge8" class="edge"><title>java&#45;&gt;JVM</title>
<path fill="none" stroke="#1a1a1a" d="M578.834,-173.089C605.272,-175.22 646.573,-178.55 676.6,-180.971"/>
<polygon fill="#1a1a1a" stroke="#1a1a1a" points="676.459,-184.471 686.708,-181.786 677.021,-177.494 676.459,-184.471"/>
<text text-anchor="middle" x="639.073" y="-182" font-family="Times,serif" font-size="10.00">熟练</text>
</g>
<!-- Threads -->
<g id="node11" class="node"><title>Threads</title>
<ellipse fill="#8ee5ee" stroke="#8ee5ee" cx="715.168" cy="-73" rx="38.9931" ry="18"/>
<text text-anchor="middle" x="715.168" y="-69.3" font-family="Times,serif" font-size="14.00">Threads</text>
</g>
<!-- java&#45;&gt;Threads -->
<g id="edge9" class="edge"><title>java&#45;&gt;Threads</title>
<path fill="none" stroke="#ff4040" d="M572.377,-159.179C599.557,-142.66 649.238,-112.464 681.982,-92.5626"/>
<polygon fill="#ff4040" stroke="#ff4040" points="684.008,-95.427 690.735,-87.2423 680.372,-89.4452 684.008,-95.427"/>
<text text-anchor="middle" x="639.073" y="-125" font-family="Times,serif" font-size="10.00">熟练</text>
</g>
<!-- 反射技术 -->
<g id="node12" class="node"><title>反射技术</title>
<ellipse fill="#8ee5ee" stroke="#8ee5ee" cx="715.168" cy="-129" rx="48.1917" ry="18"/>
<text text-anchor="middle" x="715.168" y="-125.3" font-family="Times,serif" font-size="14.00">反射技术</text>
</g>
<!-- java&#45;&gt;反射技术 -->
<g id="edge10" class="edge"><title>java&#45;&gt;反射技术</title>
<path fill="none" stroke="#1a1a1a" d="M577.417,-164.621C600.665,-158.565 636.276,-149.29 665.33,-141.722"/>
<polygon fill="#1a1a1a" stroke="#1a1a1a" points="666.507,-145.032 675.302,-139.124 664.743,-138.258 666.507,-145.032"/>
<text text-anchor="middle" x="639.073" y="-153" font-family="Times,serif" font-size="10.00">熟悉</text>
</g>
<!-- Servlet -->
<g id="node13" class="node"><title>Servlet</title>
<ellipse fill="#8ee5ee" stroke="#8ee5ee" cx="715.168" cy="-292" rx="35.9954" ry="18"/>
<text text-anchor="middle" x="715.168" y="-288.3" font-family="Times,serif" font-size="14.00">Servlet</text>
</g>
<!-- java&#45;&gt;Servlet -->
<g id="edge11" class="edge"><title>java&#45;&gt;Servlet</title>
<path fill="none" stroke="#1a1a1a" d="M576.771,-178.555C588.047,-182.958 601.174,-189.369 611.073,-198 622.223,-207.723 619.864,-214.421 629.073,-226 644.137,-244.941 647.946,-250.172 667.073,-265 671.248,-268.237 675.854,-271.352 680.501,-274.242"/>
<polygon fill="#1a1a1a" stroke="#1a1a1a" points="678.996,-277.418 689.385,-279.496 682.559,-271.393 678.996,-277.418"/>
<text text-anchor="middle" x="639.073" y="-253" font-family="Times,serif" font-size="10.00">熟悉</text>
</g>
<!-- GC -->
<g id="node14" class="node"><title>GC</title>
<ellipse fill="#8ee5ee" stroke="#8ee5ee" cx="715.168" cy="-238" rx="27" ry="18"/>
<text text-anchor="middle" x="715.168" y="-234.3" font-family="Times,serif" font-size="14.00">GC</text>
</g>
<!-- java&#45;&gt;GC -->
<g id="edge12" class="edge"><title>java&#45;&gt;GC</title>
<path fill="none" stroke="#ff4040" d="M575.348,-180.316C603.265,-191.917 651.12,-211.801 682.701,-224.924"/>
<polygon fill="#ff4040" stroke="#ff4040" points="681.361,-228.158 691.939,-228.763 684.048,-221.694 681.361,-228.158"/>
<text text-anchor="middle" x="639.073" y="-214" font-family="Times,serif" font-size="10.00">熟练</text>
</g>
<!-- CSharp&#45;&gt;Threads -->
<g id="edge14" class="edge"><title>CSharp&#45;&gt;Threads</title>
<path fill="none" stroke="#ff4040" d="M583.2,-59.0404C602.112,-54.0408 626.984,-49.6833 649.073,-53 657.56,-54.2744 666.468,-56.4343 674.876,-58.875"/>
<polygon fill="#ff4040" stroke="#ff4040" points="673.874,-62.2286 684.462,-61.8329 675.938,-55.5398 673.874,-62.2286"/>
<text text-anchor="middle" x="639.073" y="-56" font-family="Times,serif" font-size="10.00">熟练</text>
</g>
<!-- CSharp&#45;&gt;反射技术 -->
<g id="edge15" class="edge"><title>CSharp&#45;&gt;反射技术</title>
<path fill="none" stroke="#1a1a1a" d="M588.728,-71.9181C607.305,-74.3606 630.033,-78.8315 649.073,-87 658.142,-90.8908 658.866,-94.5203 667.073,-100 671.15,-102.723 675.475,-105.513 679.786,-108.236"/>
<polygon fill="#1a1a1a" stroke="#1a1a1a" points="678.194,-111.367 688.532,-113.686 681.896,-105.426 678.194,-111.367"/>
<text text-anchor="middle" x="639.073" y="-90" font-family="Times,serif" font-size="10.00">熟悉</text>
</g>
<!-- Linq -->
<g id="node16" class="node"><title>Linq</title>
<ellipse fill="#8ee5ee" stroke="#8ee5ee" cx="715.168" cy="-18" rx="27.0966" ry="18"/>
<text text-anchor="middle" x="715.168" y="-14.3" font-family="Times,serif" font-size="14.00">Linq</text>
</g>
<!-- CSharp&#45;&gt;Linq -->
<g id="edge13" class="edge"><title>CSharp&#45;&gt;Linq</title>
<path fill="none" stroke="#ff4040" d="M579.273,-56.5599C593.738,-50.0799 612.133,-42.4032 629.073,-37 645.008,-31.9171 663.042,-27.6823 678.393,-24.5103"/>
<polygon fill="#ff4040" stroke="#ff4040" points="679.411,-27.8761 688.533,-22.4868 678.041,-21.0115 679.411,-27.8761"/>
<text text-anchor="middle" x="639.073" y="-40" font-family="Times,serif" font-size="10.00">熟练</text>
</g>
<!-- sort -->
<g id="node27" class="node"><title>sort</title>
<ellipse fill="#525252" stroke="#525252" cx="715.168" cy="-1359" rx="27" ry="18"/>
<text text-anchor="middle" x="715.168" y="-1355.3" font-family="Times,serif" font-size="14.00">sort</text>
</g>
<!-- algorithms&#45;&gt;sort -->
<g id="edge32" class="edge"><title>algorithms&#45;&gt;sort</title>
<path fill="none" stroke="#ff4040" stroke-width="2" d="M600.869,-1359C625.552,-1359 655.154,-1359 677.909,-1359"/>
<polygon fill="#ff4040" stroke="#ff4040" stroke-width="2" points="678.159,-1362.5 688.159,-1359 678.159,-1355.5 678.159,-1362.5"/>
<text text-anchor="middle" x="639.073" y="-1362" font-family="Times,serif" font-size="10.00">熟练</text>
</g>
<!-- 插入排序 -->
<g id="node28" class="node"><title>插入排序</title>
<g id="a_node28"><a xlink:href="../../algorithms/sort_InsertionSort.html" xlink:title="插入排序" target="_blank">
<ellipse fill="#525252" stroke="#525252" cx="867.36" cy="-1494" rx="48.1917" ry="18"/>
<text text-anchor="middle" x="867.36" y="-1490.3" font-family="Times,serif" font-size="14.00">插入排序</text>
</a>
</g>
</g>
<!-- sort&#45;&gt;插入排序 -->
<g id="edge26" class="edge"><title>sort&#45;&gt;插入排序</title>
<path fill="none" stroke="#ff4040" stroke-width="2" d="M728.626,-1374.67C746.888,-1396.98 782.74,-1438.38 819.264,-1467 822.429,-1469.48 825.846,-1471.88 829.345,-1474.17"/>
<polygon fill="#ff4040" stroke="#ff4040" stroke-width="2" points="827.76,-1477.3 838.109,-1479.57 831.433,-1471.34 827.76,-1477.3"/>
<text text-anchor="middle" x="791.264" y="-1454" font-family="Times,serif" font-size="10.00">熟练</text>
</g>
<!-- 堆排序 -->
<g id="node29" class="node"><title>堆排序</title>
<g id="a_node29"><a xlink:href="../../algorithms/sort_HeapSort.html" xlink:title="堆排序" target="_blank">
<ellipse fill="#525252" stroke="#525252" cx="867.36" cy="-1440" rx="38.1938" ry="18"/>
<text text-anchor="middle" x="867.36" y="-1436.3" font-family="Times,serif" font-size="14.00">堆排序</text>
</a>
</g>
</g>
<!-- sort&#45;&gt;堆排序 -->
<g id="edge27" class="edge"><title>sort&#45;&gt;堆排序</title>
<path fill="none" stroke="#ff4040" stroke-width="2" d="M736.737,-1370.09C761.385,-1383.39 803.036,-1405.85 832.463,-1421.72"/>
<polygon fill="#ff4040" stroke="#ff4040" stroke-width="2" points="831.088,-1424.95 841.551,-1426.62 834.411,-1418.79 831.088,-1424.95"/>
<text text-anchor="middle" x="791.264" y="-1407" font-family="Times,serif" font-size="10.00">熟练</text>
</g>
<!-- 选择排序 -->
<g id="node30" class="node"><title>选择排序</title>
<g id="a_node30"><a xlink:href="../../algorithms/sort_SelectionSort.html" xlink:title="选择排序" target="_blank">
<ellipse fill="#525252" stroke="#525252" cx="867.36" cy="-1386" rx="48.1917" ry="18"/>
<text text-anchor="middle" x="867.36" y="-1382.3" font-family="Times,serif" font-size="14.00">选择排序</text>
</a>
</g>
</g>
<!-- sort&#45;&gt;选择排序 -->
<g id="edge28" class="edge"><title>sort&#45;&gt;选择排序</title>
<path fill="none" stroke="#ff4040" stroke-width="2" d="M741.307,-1363.52C761.05,-1367.07 789.225,-1372.13 813.835,-1376.56"/>
<polygon fill="#ff4040" stroke="#ff4040" stroke-width="2" points="813.311,-1380.02 823.772,-1378.34 814.549,-1373.13 813.311,-1380.02"/>
<text text-anchor="middle" x="791.264" y="-1377" font-family="Times,serif" font-size="10.00">熟练</text>
</g>
<!-- 合并排序 -->
<g id="node31" class="node"><title>合并排序</title>
<g id="a_node31"><a xlink:href="../../algorithms/sort_MergeSort.html" xlink:title="合并排序" target="_blank">
<ellipse fill="#525252" stroke="#525252" cx="867.36" cy="-1332" rx="48.1917" ry="18"/>
<text text-anchor="middle" x="867.36" y="-1328.3" font-family="Times,serif" font-size="14.00">合并排序</text>
</a>
</g>
</g>
<!-- sort&#45;&gt;合并排序 -->
<g id="edge29" class="edge"><title>sort&#45;&gt;合并排序</title>
<path fill="none" stroke="#ff4040" stroke-width="2" d="M741.307,-1354.48C761.05,-1350.93 789.225,-1345.87 813.835,-1341.44"/>
<polygon fill="#ff4040" stroke="#ff4040" stroke-width="2" points="814.549,-1344.87 823.772,-1339.66 813.311,-1337.98 814.549,-1344.87"/>
<text text-anchor="middle" x="791.264" y="-1350" font-family="Times,serif" font-size="10.00">熟练</text>
</g>
<!-- 快速排序 -->
<g id="node32" class="node"><title>快速排序</title>
<g id="a_node32"><a xlink:href="../../algorithms/sort_QuickSort.html" xlink:title="快速排序" target="_blank">
<ellipse fill="#525252" stroke="#525252" cx="867.36" cy="-1278" rx="48.1917" ry="18"/>
<text text-anchor="middle" x="867.36" y="-1274.3" font-family="Times,serif" font-size="14.00">快速排序</text>
</a>
</g>
</g>
<!-- sort&#45;&gt;快速排序 -->
<g id="edge30" class="edge"><title>sort&#45;&gt;快速排序</title>
<path fill="none" stroke="#ff4040" stroke-width="2" d="M736.737,-1347.91C760.732,-1334.97 800.843,-1313.33 830.101,-1297.55"/>
<polygon fill="#ff4040" stroke="#ff4040" stroke-width="2" points="832.045,-1300.48 839.185,-1292.66 828.722,-1294.32 832.045,-1300.48"/>
<text text-anchor="middle" x="791.264" y="-1326" font-family="Times,serif" font-size="10.00">熟练</text>
</g>
<!-- 基数排序 -->
<g id="node33" class="node"><title>基数排序</title>
<g id="a_node33"><a xlink:href="../../algorithms/sort_RadixSort.html" xlink:title="基数排序" target="_blank">
<ellipse fill="#525252" stroke="#525252" cx="867.36" cy="-1224" rx="48.1917" ry="18"/>
<text text-anchor="middle" x="867.36" y="-1220.3" font-family="Times,serif" font-size="14.00">基数排序</text>
</a>
</g>
</g>
<!-- sort&#45;&gt;基数排序 -->
<g id="edge31" class="edge"><title>sort&#45;&gt;基数排序</title>
<path fill="none" stroke="#ff4040" stroke-width="2" d="M728.626,-1343.33C746.888,-1321.02 782.74,-1279.62 819.264,-1251 822.429,-1248.52 825.846,-1246.12 829.345,-1243.83"/>
<polygon fill="#ff4040" stroke="#ff4040" stroke-width="2" points="831.433,-1246.66 838.109,-1238.43 827.76,-1240.7 831.433,-1246.66"/>
<text text-anchor="middle" x="791.264" y="-1286" font-family="Times,serif" font-size="10.00">熟练</text>
</g>
</g>
</svg>
