<?xml version="1.0" encoding="UTF-8" standalone="no"?>
<!DOCTYPE svg PUBLIC "-//W3C//DTD SVG 1.1//EN"
 "http://www.w3.org/Graphics/SVG/1.1/DTD/svg11.dtd">
<!-- Generated by graphviz version 2.34.0 (20140110.0949)
 -->
<!-- Title: brain Pages: 1 -->
<svg width="926pt" height="1520pt"
 viewBox="0.00 0.00 926.00 1520.00" xmlns="http://www.w3.org/2000/svg" xmlns:xlink="http://www.w3.org/1999/xlink">
<g id="graph0" class="graph" transform="scale(1 1) rotate(0) translate(4 1516)">
<title>brain</title>
<polygon fill="white" stroke="white" points="-4,4 -4,-1516 922,-1516 922,4 -4,4"/>
<!-- technology -->
<g id="node1" class="node"><title>technology</title>
<ellipse fill="cadetblue" stroke="cadetblue" cx="163" cy="-846" rx="50.0912" ry="18"/>
<text text-anchor="middle" x="163" y="-842.3" font-family="Times,serif" font-size="14.00">technology</text>
</g>
<!-- language -->
<g id="node5" class="node"><title>language</title>
<ellipse fill="cadetblue" stroke="cadetblue" cx="354" cy="-414" rx="42.4939" ry="18"/>
<text text-anchor="middle" x="354" y="-410.3" font-family="Times,serif" font-size="14.00">language</text>
</g>
<!-- technology&#45;&gt;language -->
<g id="edge4" class="edge"><title>technology&#45;&gt;language</title>
<path fill="none" stroke="black" d="M171.761,-828.26C201.138,-761.113 305.639,-522.253 341.116,-441.163"/>
<polygon fill="black" stroke="black" points="344.477,-442.214 345.278,-431.65 338.063,-439.408 344.477,-442.214"/>
</g>
<!-- basic -->
<g id="node6" class="node"><title>basic</title>
<ellipse fill="gray" stroke="gray" cx="354" cy="-1305" rx="28.6953" ry="18"/>
<text text-anchor="middle" x="354" y="-1301.3" font-family="Times,serif" font-size="14.00">basic</text>
</g>
<!-- technology&#45;&gt;basic -->
<g id="edge5" class="edge"><title>technology&#45;&gt;basic</title>
<path fill="none" stroke="black" d="M171.219,-863.946C190.981,-913.026 247.711,-1053.58 296,-1170 311.626,-1207.67 330.034,-1251.1 341.612,-1278.31"/>
<polygon fill="black" stroke="black" points="338.412,-1279.73 345.551,-1287.55 344.852,-1276.98 338.412,-1279.73"/>
</g>
<!-- database -->
<g id="node7" class="node"><title>database</title>
<ellipse fill="aquamarine" stroke="aquamarine" cx="354" cy="-1143" rx="40.8928" ry="18"/>
<text text-anchor="middle" x="354" y="-1139.3" font-family="Times,serif" font-size="14.00">database</text>
</g>
<!-- technology&#45;&gt;database -->
<g id="edge6" class="edge"><title>technology&#45;&gt;database</title>
<path fill="none" stroke="black" d="M175.257,-863.689C207.241,-913.95 298.77,-1057.78 336.468,-1117.02"/>
<polygon fill="black" stroke="black" points="333.717,-1119.22 342.039,-1125.78 339.623,-1115.46 333.717,-1119.22"/>
</g>
<!-- tool -->
<g id="node8" class="node"><title>tool</title>
<ellipse fill="coral" stroke="coral" cx="354" cy="-846" rx="27" ry="18"/>
<text text-anchor="middle" x="354" y="-842.3" font-family="Times,serif" font-size="14.00">tool</text>
</g>
<!-- technology&#45;&gt;tool -->
<g id="edge7" class="edge"><title>technology&#45;&gt;tool</title>
<path fill="none" stroke="black" d="M213.164,-846C245.505,-846 287.13,-846 316.529,-846"/>
<polygon fill="black" stroke="black" points="316.767,-849.5 326.767,-846 316.767,-842.5 316.767,-849.5"/>
</g>
<!-- 广告技术 -->
<g id="node2" class="node"><title>广告技术</title>
<ellipse fill="cadetblue" stroke="cadetblue" cx="163" cy="-549" rx="48.1917" ry="18"/>
<text text-anchor="middle" x="163" y="-545.3" font-family="Times,serif" font-size="14.00">广告技术</text>
</g>
<!-- 这半年读的书 -->
<g id="node3" class="node"><title>这半年读的书</title>
<ellipse fill="cadetblue" stroke="cadetblue" cx="163" cy="-279" rx="66.0889" ry="18"/>
<text text-anchor="middle" x="163" y="-275.3" font-family="Times,serif" font-size="14.00">这半年读的书</text>
</g>
<!-- 汤姆叔叔的小屋 -->
<g id="node46" class="node"><title>汤姆叔叔的小屋</title>
<polygon fill="beige" stroke="beige" points="412,-270 296,-270 296,-234 412,-234 412,-270"/>
<text text-anchor="middle" x="354" y="-248.3" font-family="Times,serif" font-size="14.00">汤姆叔叔的小屋</text>
</g>
<!-- 这半年读的书&#45;&gt;汤姆叔叔的小屋 -->
<g id="edge47" class="edge"><title>这半年读的书&#45;&gt;汤姆叔叔的小屋</title>
<path fill="none" stroke="#ff4040" stroke-width="2" d="M221.991,-270.716C242.133,-267.838 264.89,-264.587 285.719,-261.612"/>
<polygon fill="#ff4040" stroke="#ff4040" points="286.364,-265.055 295.769,-260.176 285.374,-258.125 286.364,-265.055"/>
<text text-anchor="middle" x="263" y="-270" font-family="Times,serif" font-size="10.00">以完成</text>
</g>
<!-- 全球通史 -->
<g id="node47" class="node"><title>全球通史</title>
<polygon fill="beige" stroke="beige" points="391,-216 317,-216 317,-180 391,-180 391,-216"/>
<text text-anchor="middle" x="354" y="-194.3" font-family="Times,serif" font-size="14.00">全球通史</text>
</g>
<!-- 这半年读的书&#45;&gt;全球通史 -->
<g id="edge48" class="edge"><title>这半年读的书&#45;&gt;全球通史</title>
<path fill="none" stroke="#ff4040" stroke-width="2" d="M199.549,-263.765C230.109,-250.667 274.363,-231.701 307.502,-217.499"/>
<polygon fill="#ff4040" stroke="#ff4040" points="309.155,-220.599 316.967,-213.443 306.397,-214.165 309.155,-220.599"/>
<text text-anchor="middle" x="263" y="-244" font-family="Times,serif" font-size="10.00">已完成</text>
</g>
<!-- 追寻生命的意义 -->
<g id="node48" class="node"><title>追寻生命的意义</title>
<polygon fill="beige" stroke="beige" points="412,-162 296,-162 296,-126 412,-126 412,-162"/>
<text text-anchor="middle" x="354" y="-140.3" font-family="Times,serif" font-size="14.00">追寻生命的意义</text>
</g>
<!-- 这半年读的书&#45;&gt;追寻生命的意义 -->
<g id="edge49" class="edge"><title>这半年读的书&#45;&gt;追寻生命的意义</title>
<path fill="none" stroke="#ff4040" stroke-width="2" d="M182.13,-261.726C206.605,-238.999 252.21,-198.702 296,-171 298.146,-169.643 300.37,-168.31 302.642,-167.008"/>
<polygon fill="#ff4040" stroke="#ff4040" points="304.455,-170.006 311.57,-162.155 301.112,-163.856 304.455,-170.006"/>
<text text-anchor="middle" x="263" y="-207" font-family="Times,serif" font-size="10.00">已完成</text>
</g>
<!-- 清醒思考的艺术 -->
<g id="node49" class="node"><title>清醒思考的艺术</title>
<polygon fill="beige" stroke="beige" points="412,-378 296,-378 296,-342 412,-342 412,-378"/>
<text text-anchor="middle" x="354" y="-356.3" font-family="Times,serif" font-size="14.00">清醒思考的艺术</text>
</g>
<!-- 这半年读的书&#45;&gt;清醒思考的艺术 -->
<g id="edge50" class="edge"><title>这半年读的书&#45;&gt;清醒思考的艺术</title>
<path fill="none" stroke="#ff4040" stroke-width="2" d="M199.549,-294.235C228.26,-306.54 269.058,-324.025 301.37,-337.873"/>
<polygon fill="#ff4040" stroke="#ff4040" points="300.101,-341.137 310.671,-341.859 302.858,-334.703 300.101,-341.137"/>
<text text-anchor="middle" x="263" y="-330" font-family="Times,serif" font-size="10.00">已完成</text>
</g>
<!-- SICP -->
<g id="node50" class="node"><title>SICP</title>
<polygon fill="beige" stroke="beige" points="381,-324 327,-324 327,-288 381,-288 381,-324"/>
<text text-anchor="middle" x="354" y="-302.3" font-family="Times,serif" font-size="14.00">SICP</text>
</g>
<!-- 这半年读的书&#45;&gt;SICP -->
<g id="edge51" class="edge"><title>这半年读的书&#45;&gt;SICP</title>
<path fill="none" stroke="#1a1a1a" d="M221.991,-287.284C252.932,-291.705 290.045,-297.006 316.857,-300.837"/>
<polygon fill="#1a1a1a" stroke="#1a1a1a" points="316.557,-304.329 326.952,-302.279 317.547,-297.4 316.557,-304.329"/>
<text text-anchor="middle" x="263" y="-298" font-family="Times,serif" font-size="10.00">在阅</text>
</g>
<!-- brain -->
<g id="node4" class="node"><title>brain</title>
<ellipse fill="none" stroke="black" cx="29" cy="-549" rx="28.6953" ry="18"/>
<text text-anchor="middle" x="29" y="-545.3" font-family="Times,serif" font-size="14.00">brain</text>
</g>
<!-- brain&#45;&gt;technology -->
<g id="edge1" class="edge"><title>brain&#45;&gt;technology</title>
<path fill="none" stroke="black" d="M37.6674,-566.252C59.6629,-615.741 123.103,-758.481 149.863,-818.692"/>
<polygon fill="black" stroke="black" points="146.718,-820.233 153.978,-827.95 153.115,-817.39 146.718,-820.233"/>
</g>
<!-- brain&#45;&gt;广告技术 -->
<g id="edge2" class="edge"><title>brain&#45;&gt;广告技术</title>
<path fill="none" stroke="black" d="M57.6715,-549C71.3821,-549 88.4697,-549 104.822,-549"/>
<polygon fill="black" stroke="black" points="104.871,-552.5 114.871,-549 104.871,-545.5 104.871,-552.5"/>
</g>
<!-- brain&#45;&gt;这半年读的书 -->
<g id="edge3" class="edge"><title>brain&#45;&gt;这半年读的书</title>
<path fill="none" stroke="black" d="M38.458,-531.7C60.8421,-485.914 121.759,-361.311 148.784,-306.033"/>
<polygon fill="black" stroke="black" points="152.021,-307.379 153.269,-296.858 145.733,-304.305 152.021,-307.379"/>
</g>
<!-- java -->
<g id="node9" class="node"><title>java</title>
<ellipse fill="#98f5ff" stroke="#98f5ff" cx="555" cy="-171" rx="27" ry="18"/>
<text text-anchor="middle" x="555" y="-167.3" font-family="Times,serif" font-size="14.00">java</text>
</g>
<!-- language&#45;&gt;java -->
<g id="edge16" class="edge"><title>language&#45;&gt;java</title>
<path fill="none" stroke="#ff4040" stroke-width="2" d="M389.698,-404.171C398.213,-400.163 406.463,-394.617 412,-387 448.629,-336.614 398.744,-301.885 430,-248 449.705,-214.028 490.998,-192.969 520.518,-181.638"/>
<polygon fill="#ff4040" stroke="#ff4040" points="521.837,-184.882 530.03,-178.163 519.436,-178.307 521.837,-184.882"/>
<text text-anchor="middle" x="454" y="-251" font-family="Times,serif" font-size="10.00">熟练</text>
</g>
<!-- CSharp -->
<g id="node15" class="node"><title>CSharp</title>
<ellipse fill="#98f5ff" stroke="#98f5ff" cx="555" cy="-69" rx="37.0935" ry="18"/>
<text text-anchor="middle" x="555" y="-65.3" font-family="Times,serif" font-size="14.00">CSharp</text>
</g>
<!-- language&#45;&gt;CSharp -->
<g id="edge17" class="edge"><title>language&#45;&gt;CSharp</title>
<path fill="none" stroke="#ff4040" d="M389.894,-404.31C398.41,-400.303 406.611,-394.722 412,-387 437.412,-350.588 410.763,-228.019 430,-188 450.59,-145.168 493.559,-109.568 523.09,-88.7824"/>
<polygon fill="#ff4040" stroke="#ff4040" points="525.148,-91.615 531.408,-83.0672 521.184,-85.8456 525.148,-91.615"/>
<text text-anchor="middle" x="454" y="-191" font-family="Times,serif" font-size="10.00">熟练</text>
</g>
<!-- shell -->
<g id="node17" class="node"><title>shell</title>
<ellipse fill="#98f5ff" stroke="#98f5ff" cx="555" cy="-603" rx="27.0966" ry="18"/>
<text text-anchor="middle" x="555" y="-599.3" font-family="Times,serif" font-size="14.00">shell</text>
</g>
<!-- language&#45;&gt;shell -->
<g id="edge18" class="edge"><title>language&#45;&gt;shell</title>
<path fill="none" stroke="#1a1a1a" d="M364.709,-431.578C377.772,-454.348 402.558,-494.599 430,-524 455.481,-551.3 464.193,-556.433 496,-576 504.198,-581.043 513.492,-585.766 522.2,-589.807"/>
<polygon fill="#1a1a1a" stroke="#1a1a1a" points="520.784,-593.008 531.34,-593.908 523.649,-586.621 520.784,-593.008"/>
<text text-anchor="middle" x="454" y="-567" font-family="Times,serif" font-size="10.00">熟悉</text>
</g>
<!-- C -->
<g id="node18" class="node"><title>C</title>
<ellipse fill="#98f5ff" stroke="#98f5ff" cx="555" cy="-549" rx="27" ry="18"/>
<text text-anchor="middle" x="555" y="-545.3" font-family="Times,serif" font-size="14.00">C</text>
</g>
<!-- language&#45;&gt;C -->
<g id="edge19" class="edge"><title>language&#45;&gt;C</title>
<path fill="none" stroke="#1a1a1a" d="M373.044,-430.344C398.843,-453.104 448.428,-494.624 496,-522 504.413,-526.841 513.841,-531.524 522.611,-535.592"/>
<polygon fill="#1a1a1a" stroke="#1a1a1a" points="521.235,-538.811 531.789,-539.743 524.12,-532.433 521.235,-538.811"/>
<text text-anchor="middle" x="454" y="-512" font-family="Times,serif" font-size="10.00">熟悉</text>
</g>
<!-- C++ -->
<g id="node19" class="node"><title>C++</title>
<ellipse fill="#98f5ff" stroke="#98f5ff" cx="555" cy="-495" rx="27.0966" ry="18"/>
<text text-anchor="middle" x="555" y="-491.3" font-family="Times,serif" font-size="14.00">C++</text>
</g>
<!-- language&#45;&gt;C++ -->
<g id="edge20" class="edge"><title>language&#45;&gt;C++</title>
<path fill="none" stroke="#1a1a1a" d="M385.224,-426.302C422.054,-441.293 484.024,-466.517 521.749,-481.873"/>
<polygon fill="#1a1a1a" stroke="#1a1a1a" points="520.665,-485.21 531.246,-485.738 523.304,-478.727 520.665,-485.21"/>
<text text-anchor="middle" x="454" y="-464" font-family="Times,serif" font-size="10.00">熟悉</text>
</g>
<!-- scheme -->
<g id="node20" class="node"><title>scheme</title>
<ellipse fill="#98f5ff" stroke="#98f5ff" cx="555" cy="-441" rx="37.8943" ry="18"/>
<text text-anchor="middle" x="555" y="-437.3" font-family="Times,serif" font-size="14.00">scheme</text>
</g>
<!-- language&#45;&gt;scheme -->
<g id="edge21" class="edge"><title>language&#45;&gt;scheme</title>
<path fill="none" stroke="#333333" d="M394.792,-419.399C427.583,-423.848 474.101,-430.159 508.391,-434.812"/>
<polygon fill="#333333" stroke="#333333" points="508.232,-438.322 518.612,-436.199 509.173,-431.386 508.232,-438.322"/>
<text text-anchor="middle" x="454" y="-432" font-family="Times,serif" font-size="10.00">了解</text>
</g>
<!-- elisp -->
<g id="node21" class="node"><title>elisp</title>
<ellipse fill="#98f5ff" stroke="#98f5ff" cx="555" cy="-387" rx="27.0966" ry="18"/>
<text text-anchor="middle" x="555" y="-383.3" font-family="Times,serif" font-size="14.00">elisp</text>
</g>
<!-- language&#45;&gt;elisp -->
<g id="edge22" class="edge"><title>language&#45;&gt;elisp</title>
<path fill="none" stroke="#333333" d="M394.792,-408.601C430.769,-403.72 483.272,-396.596 518.018,-391.882"/>
<polygon fill="#333333" stroke="#333333" points="518.754,-395.314 528.193,-390.501 517.813,-388.378 518.754,-395.314"/>
<text text-anchor="middle" x="454" y="-406" font-family="Times,serif" font-size="10.00">了解</text>
</g>
<!-- go -->
<g id="node22" class="node"><title>go</title>
<ellipse fill="#98f5ff" stroke="#98f5ff" cx="555" cy="-333" rx="27" ry="18"/>
<text text-anchor="middle" x="555" y="-329.3" font-family="Times,serif" font-size="14.00">go</text>
</g>
<!-- language&#45;&gt;go -->
<g id="edge23" class="edge"><title>language&#45;&gt;go</title>
<path fill="none" stroke="#333333" stroke-dasharray="1,5" d="M384.902,-401.571C398.631,-395.882 415.13,-389.071 430,-383 461.303,-370.22 497.13,-355.795 522.197,-345.736"/>
<polygon fill="#333333" stroke="#333333" points="523.597,-348.945 531.575,-341.974 520.991,-342.448 523.597,-348.945"/>
<text text-anchor="middle" x="454" y="-386" font-family="Times,serif" font-size="10.00">略懂</text>
</g>
<!-- dot -->
<g id="node23" class="node"><title>dot</title>
<g id="a_node23"><a xlink:href="../../study_dot.html" xlink:title="dot" target="_blank">
<ellipse fill="#98f5ff" stroke="#98f5ff" cx="555" cy="-279" rx="27" ry="18"/>
<text text-anchor="middle" x="555" y="-275.3" font-family="Times,serif" font-size="14.00">dot</text>
</a>
</g>
</g>
<!-- language&#45;&gt;dot -->
<g id="edge24" class="edge"><title>language&#45;&gt;dot</title>
<path fill="none" stroke="#1a1a1a" d="M387.962,-403.086C396.567,-399.056 405.297,-393.77 412,-387 425.432,-373.434 417.437,-362.374 430,-348 452.88,-321.82 465.507,-322.706 496,-306 504.513,-301.336 513.972,-296.71 522.74,-292.64"/>
<polygon fill="#1a1a1a" stroke="#1a1a1a" points="524.256,-295.795 531.906,-288.465 521.354,-289.425 524.256,-295.795"/>
<text text-anchor="middle" x="454" y="-351" font-family="Times,serif" font-size="10.00">熟悉</text>
</g>
<!-- plantuml -->
<g id="node24" class="node"><title>plantuml</title>
<g id="a_node24"><a xlink:href="../../study_plantuml.html" xlink:title="plantuml" target="_blank">
<ellipse fill="#98f5ff" stroke="#98f5ff" cx="555" cy="-225" rx="42.4939" ry="18"/>
<text text-anchor="middle" x="555" y="-221.3" font-family="Times,serif" font-size="14.00">plantuml</text>
</a>
</g>
</g>
<!-- language&#45;&gt;plantuml -->
<g id="edge25" class="edge"><title>language&#45;&gt;plantuml</title>
<path fill="none" stroke="#1a1a1a" d="M389.313,-403.879C397.827,-399.871 406.172,-394.397 412,-387 436.169,-356.328 408.952,-333.893 430,-301 449.691,-270.227 464.611,-270.694 496,-252 501.963,-248.449 508.47,-245.023 514.901,-241.872"/>
<polygon fill="#1a1a1a" stroke="#1a1a1a" points="516.656,-244.914 524.196,-237.471 513.66,-238.587 516.656,-244.914"/>
<text text-anchor="middle" x="454" y="-304" font-family="Times,serif" font-size="10.00">熟悉</text>
</g>
<!-- algorithms -->
<g id="node25" class="node"><title>algorithms</title>
<ellipse fill="#5e5e5e" stroke="#5e5e5e" cx="555" cy="-1359" rx="48.9926" ry="18"/>
<text text-anchor="middle" x="555" y="-1355.3" font-family="Times,serif" font-size="14.00">algorithms</text>
</g>
<!-- basic&#45;&gt;algorithms -->
<g id="edge33" class="edge"><title>basic&#45;&gt;algorithms</title>
<path fill="none" stroke="#1a1a1a" d="M380.608,-1311.95C412.06,-1320.48 466.076,-1335.14 505.479,-1345.83"/>
<polygon fill="#1a1a1a" stroke="#1a1a1a" points="504.592,-1349.22 515.159,-1348.46 506.425,-1342.46 504.592,-1349.22"/>
<text text-anchor="middle" x="454" y="-1339" font-family="Times,serif" font-size="10.00">熟悉</text>
</g>
<!-- data&#45;structure -->
<g id="node26" class="node"><title>data&#45;structure</title>
<ellipse fill="#5e5e5e" stroke="#5e5e5e" cx="555" cy="-1305" rx="59.2899" ry="18"/>
<text text-anchor="middle" x="555" y="-1301.3" font-family="Times,serif" font-size="14.00">data&#45;structure</text>
</g>
<!-- basic&#45;&gt;data&#45;structure -->
<g id="edge34" class="edge"><title>basic&#45;&gt;data&#45;structure</title>
<path fill="none" stroke="#ff4040" stroke-width="2" d="M382.67,-1305C409.109,-1305 450.036,-1305 485.259,-1305"/>
<polygon fill="#ff4040" stroke="#ff4040" points="485.504,-1308.5 495.504,-1305 485.504,-1301.5 485.504,-1308.5"/>
<text text-anchor="middle" x="454" y="-1308" font-family="Times,serif" font-size="10.00">熟练</text>
</g>
<!-- Oracle -->
<g id="node42" class="node"><title>Oracle</title>
<ellipse fill="#7fffd4" stroke="#7fffd4" cx="555" cy="-1143" rx="34.394" ry="18"/>
<text text-anchor="middle" x="555" y="-1139.3" font-family="Times,serif" font-size="14.00">Oracle</text>
</g>
<!-- database&#45;&gt;Oracle -->
<g id="edge43" class="edge"><title>database&#45;&gt;Oracle</title>
<path fill="none" stroke="#1a1a1a" d="M395.271,-1143C428.618,-1143 475.921,-1143 510.205,-1143"/>
<polygon fill="#1a1a1a" stroke="#1a1a1a" points="510.397,-1146.5 520.397,-1143 510.397,-1139.5 510.397,-1146.5"/>
<text text-anchor="middle" x="454" y="-1146" font-family="Times,serif" font-size="10.00">熟悉</text>
</g>
<!-- MSSqlServer -->
<g id="node43" class="node"><title>MSSqlServer</title>
<ellipse fill="#7fffd4" stroke="#7fffd4" cx="555" cy="-1089" rx="58.4896" ry="18"/>
<text text-anchor="middle" x="555" y="-1085.3" font-family="Times,serif" font-size="14.00">MSSqlServer</text>
</g>
<!-- database&#45;&gt;MSSqlServer -->
<g id="edge44" class="edge"><title>database&#45;&gt;MSSqlServer</title>
<path fill="none" stroke="#1a1a1a" d="M389.209,-1133.72C419.886,-1125.39 465.386,-1113.05 500.808,-1103.43"/>
<polygon fill="#1a1a1a" stroke="#1a1a1a" points="501.777,-1106.8 510.511,-1100.8 499.944,-1100.04 501.777,-1106.8"/>
<text text-anchor="middle" x="454" y="-1125" font-family="Times,serif" font-size="10.00">熟悉</text>
</g>
<!-- MongoDB -->
<g id="node44" class="node"><title>MongoDB</title>
<ellipse fill="#7fffd4" stroke="#7fffd4" cx="555" cy="-1251" rx="48.9926" ry="18"/>
<text text-anchor="middle" x="555" y="-1247.3" font-family="Times,serif" font-size="14.00">MongoDB</text>
</g>
<!-- database&#45;&gt;MongoDB -->
<g id="edge45" class="edge"><title>database&#45;&gt;MongoDB</title>
<path fill="none" stroke="#1a1a1a" d="M378.086,-1157.68C392.804,-1166.9 412.359,-1178.93 430,-1189 458.832,-1205.47 466.273,-1209.21 496,-1224 501.808,-1226.89 507.985,-1229.87 514.06,-1232.74"/>
<polygon fill="#1a1a1a" stroke="#1a1a1a" points="512.915,-1236.07 523.455,-1237.14 515.886,-1229.73 512.915,-1236.07"/>
<text text-anchor="middle" x="454" y="-1217" font-family="Times,serif" font-size="10.00">熟悉</text>
</g>
<!-- Memcached -->
<g id="node45" class="node"><title>Memcached</title>
<ellipse fill="#7fffd4" stroke="#7fffd4" cx="555" cy="-1197" rx="54.6905" ry="18"/>
<text text-anchor="middle" x="555" y="-1193.3" font-family="Times,serif" font-size="14.00">Memcached</text>
</g>
<!-- database&#45;&gt;Memcached -->
<g id="edge46" class="edge"><title>database&#45;&gt;Memcached</title>
<path fill="none" stroke="#1a1a1a" d="M389.209,-1152.28C420.393,-1160.74 466.897,-1173.36 502.559,-1183.04"/>
<polygon fill="#1a1a1a" stroke="#1a1a1a" points="501.741,-1186.45 512.309,-1185.69 503.574,-1179.69 501.741,-1186.45"/>
<text text-anchor="middle" x="454" y="-1177" font-family="Times,serif" font-size="10.00">熟悉</text>
</g>
<!-- linux -->
<g id="node34" class="node"><title>linux</title>
<ellipse fill="#ee6a50" stroke="#ee6a50" cx="555" cy="-927" rx="28.6953" ry="18"/>
<text text-anchor="middle" x="555" y="-923.3" font-family="Times,serif" font-size="14.00">linux</text>
</g>
<!-- tool&#45;&gt;linux -->
<g id="edge35" class="edge"><title>tool&#45;&gt;linux</title>
<path fill="none" stroke="#ff4040" stroke-width="2" d="M377.441,-855.134C412.468,-869.391 480.321,-897.01 520.949,-913.547"/>
<polygon fill="#ff4040" stroke="#ff4040" points="519.828,-916.87 530.41,-917.398 522.467,-910.386 519.828,-916.87"/>
<text text-anchor="middle" x="454" y="-896" font-family="Times,serif" font-size="10.00">fedora 熟练</text>
</g>
<!-- windows -->
<g id="node35" class="node"><title>windows</title>
<ellipse fill="#ee6a50" stroke="#ee6a50" cx="555" cy="-873" rx="42.4939" ry="18"/>
<text text-anchor="middle" x="555" y="-869.3" font-family="Times,serif" font-size="14.00">windows</text>
</g>
<!-- tool&#45;&gt;windows -->
<g id="edge36" class="edge"><title>tool&#45;&gt;windows</title>
<path fill="none" stroke="#ff4040" stroke-width="2" d="M380.608,-849.475C411.8,-853.707 465.186,-860.95 504.5,-866.284"/>
<polygon fill="#ff4040" stroke="#ff4040" points="504.043,-869.754 514.423,-867.63 504.984,-862.817 504.043,-869.754"/>
<text text-anchor="middle" x="454" y="-864" font-family="Times,serif" font-size="10.00">熟练</text>
</g>
<!-- emacs -->
<g id="node36" class="node"><title>emacs</title>
<ellipse fill="#ee6a50" stroke="#ee6a50" cx="555" cy="-819" rx="33.2948" ry="18"/>
<text text-anchor="middle" x="555" y="-815.3" font-family="Times,serif" font-size="14.00">emacs</text>
</g>
<!-- tool&#45;&gt;emacs -->
<g id="edge37" class="edge"><title>tool&#45;&gt;emacs</title>
<path fill="none" stroke="#1a1a1a" d="M380.608,-842.525C414.021,-837.992 472.901,-830.003 512.671,-824.607"/>
<polygon fill="#1a1a1a" stroke="#1a1a1a" points="513.154,-828.074 522.593,-823.261 512.213,-821.138 513.154,-828.074"/>
<text text-anchor="middle" x="454" y="-838" font-family="Times,serif" font-size="10.00">熟悉</text>
</g>
<!-- VS -->
<g id="node37" class="node"><title>VS</title>
<ellipse fill="#cd5b45" stroke="#cd5b45" cx="555" cy="-765" rx="27" ry="18"/>
<text text-anchor="middle" x="555" y="-761.3" font-family="Times,serif" font-size="14.00">VS</text>
</g>
<!-- tool&#45;&gt;VS -->
<g id="edge39" class="edge"><title>tool&#45;&gt;VS</title>
<path fill="none" stroke="#1a1a1a" d="M377.295,-836.725C392.202,-830.539 412.26,-822.243 430,-815 461.303,-802.22 497.13,-787.795 522.197,-777.736"/>
<polygon fill="#1a1a1a" stroke="#1a1a1a" points="523.597,-780.945 531.575,-773.974 520.991,-774.448 523.597,-780.945"/>
<text text-anchor="middle" x="454" y="-818" font-family="Times,serif" font-size="10.00">熟悉</text>
</g>
<!-- eclipse -->
<g id="node38" class="node"><title>eclipse</title>
<ellipse fill="#cd5b45" stroke="#cd5b45" cx="555" cy="-711" rx="35.194" ry="18"/>
<text text-anchor="middle" x="555" y="-707.3" font-family="Times,serif" font-size="14.00">eclipse</text>
</g>
<!-- tool&#45;&gt;eclipse -->
<g id="edge40" class="edge"><title>tool&#45;&gt;eclipse</title>
<path fill="none" stroke="#1a1a1a" d="M370.205,-831.36C384.951,-817.472 408.226,-796.354 430,-780 457.801,-759.119 465.507,-754.706 496,-738 503.123,-734.098 510.909,-730.221 518.398,-726.675"/>
<polygon fill="#1a1a1a" stroke="#1a1a1a" points="520.055,-729.765 527.654,-722.382 517.109,-723.415 520.055,-729.765"/>
<text text-anchor="middle" x="454" y="-783" font-family="Times,serif" font-size="10.00">熟悉</text>
</g>
<!-- org&#45;mode -->
<g id="node39" class="node"><title>org&#45;mode</title>
<ellipse fill="#cd5b45" stroke="#cd5b45" cx="555" cy="-657" rx="45.4919" ry="18"/>
<text text-anchor="middle" x="555" y="-653.3" font-family="Times,serif" font-size="14.00">org&#45;mode</text>
</g>
<!-- tool&#45;&gt;org&#45;mode -->
<g id="edge38" class="edge"><title>tool&#45;&gt;org&#45;mode</title>
<path fill="none" stroke="#1a1a1a" d="M363.824,-828.997C376.444,-805.68 401.317,-763.235 430,-733 455.144,-706.495 464.611,-702.694 496,-684 501.574,-680.681 507.623,-677.47 513.641,-674.492"/>
<polygon fill="#1a1a1a" stroke="#1a1a1a" points="515.485,-677.49 522.999,-670.021 512.467,-671.174 515.485,-677.49"/>
<text text-anchor="middle" x="454" y="-736" font-family="Times,serif" font-size="10.00">熟悉</text>
</g>
<!-- iis -->
<g id="node40" class="node"><title>iis</title>
<ellipse fill="#cd5b45" stroke="#cd5b45" cx="555" cy="-1035" rx="27" ry="18"/>
<text text-anchor="middle" x="555" y="-1031.3" font-family="Times,serif" font-size="14.00">iis</text>
</g>
<!-- tool&#45;&gt;iis -->
<g id="edge41" class="edge"><title>tool&#45;&gt;iis</title>
<path fill="none" stroke="#1a1a1a" d="M364.263,-862.8C377.202,-885.421 402.242,-926.261 430,-956 455.481,-983.3 464.193,-988.433 496,-1008 504.198,-1013.04 513.492,-1017.77 522.2,-1021.81"/>
<polygon fill="#1a1a1a" stroke="#1a1a1a" points="520.784,-1025.01 531.34,-1025.91 523.649,-1018.62 520.784,-1025.01"/>
<text text-anchor="middle" x="454" y="-999" font-family="Times,serif" font-size="10.00">熟悉</text>
</g>
<!-- tomcat -->
<g id="node41" class="node"><title>tomcat</title>
<ellipse fill="#cd5b45" stroke="#cd5b45" cx="555" cy="-981" rx="35.194" ry="18"/>
<text text-anchor="middle" x="555" y="-977.3" font-family="Times,serif" font-size="14.00">tomcat</text>
</g>
<!-- tool&#45;&gt;tomcat -->
<g id="edge42" class="edge"><title>tool&#45;&gt;tomcat</title>
<path fill="none" stroke="#1a1a1a" d="M370.926,-860.472C396.056,-882.76 447.092,-925.855 496,-954 502.972,-958.012 510.641,-961.915 518.055,-965.449"/>
<polygon fill="#1a1a1a" stroke="#1a1a1a" points="516.693,-968.676 527.237,-969.71 519.639,-962.326 516.693,-968.676"/>
<text text-anchor="middle" x="454" y="-944" font-family="Times,serif" font-size="10.00">熟悉</text>
</g>
<!-- JVM -->
<g id="node10" class="node"><title>JVM</title>
<ellipse fill="#8ee5ee" stroke="#8ee5ee" cx="718" cy="-184" rx="28.6953" ry="18"/>
<text text-anchor="middle" x="718" y="-180.3" font-family="Times,serif" font-size="14.00">JVM</text>
</g>
<!-- java&#45;&gt;JVM -->
<g id="edge8" class="edge"><title>java&#45;&gt;JVM</title>
<path fill="none" stroke="#1a1a1a" d="M581.867,-173.089C608.266,-175.22 649.506,-178.55 679.488,-180.971"/>
<polygon fill="#1a1a1a" stroke="#1a1a1a" points="679.331,-184.47 689.58,-181.786 679.894,-177.492 679.331,-184.47"/>
<text text-anchor="middle" x="642" y="-182" font-family="Times,serif" font-size="10.00">熟练</text>
</g>
<!-- Threads -->
<g id="node11" class="node"><title>Threads</title>
<ellipse fill="#8ee5ee" stroke="#8ee5ee" cx="718" cy="-73" rx="38.9931" ry="18"/>
<text text-anchor="middle" x="718" y="-69.3" font-family="Times,serif" font-size="14.00">Threads</text>
</g>
<!-- java&#45;&gt;Threads -->
<g id="edge9" class="edge"><title>java&#45;&gt;Threads</title>
<path fill="none" stroke="#ff4040" d="M575.42,-159.179C602.559,-142.66 652.166,-112.464 684.862,-92.5626"/>
<polygon fill="#ff4040" stroke="#ff4040" points="686.88,-95.4315 693.602,-87.2423 683.24,-89.4521 686.88,-95.4315"/>
<text text-anchor="middle" x="642" y="-125" font-family="Times,serif" font-size="10.00">熟练</text>
</g>
<!-- 反射技术 -->
<g id="node12" class="node"><title>反射技术</title>
<ellipse fill="#8ee5ee" stroke="#8ee5ee" cx="718" cy="-129" rx="48.1917" ry="18"/>
<text text-anchor="middle" x="718" y="-125.3" font-family="Times,serif" font-size="14.00">反射技术</text>
</g>
<!-- java&#45;&gt;反射技术 -->
<g id="edge10" class="edge"><title>java&#45;&gt;反射技术</title>
<path fill="none" stroke="#1a1a1a" d="M580.452,-164.621C603.666,-158.565 639.223,-149.29 668.234,-141.722"/>
<polygon fill="#1a1a1a" stroke="#1a1a1a" points="669.399,-145.035 678.192,-139.124 667.632,-138.262 669.399,-145.035"/>
<text text-anchor="middle" x="642" y="-153" font-family="Times,serif" font-size="10.00">熟悉</text>
</g>
<!-- Servlet -->
<g id="node13" class="node"><title>Servlet</title>
<ellipse fill="#8ee5ee" stroke="#8ee5ee" cx="718" cy="-292" rx="35.9954" ry="18"/>
<text text-anchor="middle" x="718" y="-288.3" font-family="Times,serif" font-size="14.00">Servlet</text>
</g>
<!-- java&#45;&gt;Servlet -->
<g id="edge11" class="edge"><title>java&#45;&gt;Servlet</title>
<path fill="none" stroke="#1a1a1a" d="M579.783,-178.566C591.031,-182.972 604.126,-189.382 614,-198 625.146,-207.728 622.791,-214.421 632,-226 647.064,-244.941 650.88,-250.164 670,-265 674.168,-268.234 678.765,-271.347 683.402,-274.236"/>
<polygon fill="#1a1a1a" stroke="#1a1a1a" points="681.881,-277.403 692.269,-279.489 685.449,-271.381 681.881,-277.403"/>
<text text-anchor="middle" x="642" y="-253" font-family="Times,serif" font-size="10.00">熟悉</text>
</g>
<!-- GC -->
<g id="node14" class="node"><title>GC</title>
<ellipse fill="#8ee5ee" stroke="#8ee5ee" cx="718" cy="-238" rx="27" ry="18"/>
<text text-anchor="middle" x="718" y="-234.3" font-family="Times,serif" font-size="14.00">GC</text>
</g>
<!-- java&#45;&gt;GC -->
<g id="edge12" class="edge"><title>java&#45;&gt;GC</title>
<path fill="none" stroke="#ff4040" d="M578.386,-180.316C606.142,-191.867 653.634,-211.63 685.17,-224.754"/>
<polygon fill="#ff4040" stroke="#ff4040" points="684.227,-228.152 694.804,-228.763 686.916,-221.69 684.227,-228.152"/>
<text text-anchor="middle" x="642" y="-214" font-family="Times,serif" font-size="10.00">熟练</text>
</g>
<!-- CSharp&#45;&gt;Threads -->
<g id="edge14" class="edge"><title>CSharp&#45;&gt;Threads</title>
<path fill="none" stroke="#ff4040" d="M586.227,-59.0406C605.11,-54.0411 629.944,-49.6836 652,-53 660.476,-54.2745 669.371,-56.4344 677.767,-58.8751"/>
<polygon fill="#ff4040" stroke="#ff4040" points="676.751,-62.2242 687.338,-61.833 678.818,-55.5363 676.751,-62.2242"/>
<text text-anchor="middle" x="642" y="-56" font-family="Times,serif" font-size="10.00">熟练</text>
</g>
<!-- CSharp&#45;&gt;反射技术 -->
<g id="edge15" class="edge"><title>CSharp&#45;&gt;反射技术</title>
<path fill="none" stroke="#1a1a1a" d="M591.746,-71.9258C610.295,-74.3703 632.989,-78.8408 652,-87 661.068,-90.8921 661.795,-94.5165 670,-100 674.07,-102.72 678.387,-105.509 682.69,-108.231"/>
<polygon fill="#1a1a1a" stroke="#1a1a1a" points="681.082,-111.354 691.418,-113.681 684.789,-105.416 681.082,-111.354"/>
<text text-anchor="middle" x="642" y="-90" font-family="Times,serif" font-size="10.00">熟悉</text>
</g>
<!-- Linq -->
<g id="node16" class="node"><title>Linq</title>
<ellipse fill="#8ee5ee" stroke="#8ee5ee" cx="718" cy="-18" rx="27.0966" ry="18"/>
<text text-anchor="middle" x="718" y="-14.3" font-family="Times,serif" font-size="14.00">Linq</text>
</g>
<!-- CSharp&#45;&gt;Linq -->
<g id="edge13" class="edge"><title>CSharp&#45;&gt;Linq</title>
<path fill="none" stroke="#ff4040" d="M582.293,-56.5591C596.73,-50.0789 615.09,-42.4023 632,-37 647.916,-31.9153 665.929,-27.6801 681.263,-24.5085"/>
<polygon fill="#ff4040" stroke="#ff4040" points="682.271,-27.8763 691.392,-22.4853 680.9,-21.0119 682.271,-27.8763"/>
<text text-anchor="middle" x="642" y="-40" font-family="Times,serif" font-size="10.00">熟练</text>
</g>
<!-- sort -->
<g id="node27" class="node"><title>sort</title>
<ellipse fill="#525252" stroke="#525252" cx="718" cy="-1359" rx="27" ry="18"/>
<text text-anchor="middle" x="718" y="-1355.3" font-family="Times,serif" font-size="14.00">sort</text>
</g>
<!-- algorithms&#45;&gt;sort -->
<g id="edge32" class="edge"><title>algorithms&#45;&gt;sort</title>
<path fill="none" stroke="#ff4040" stroke-width="2" d="M603.869,-1359C628.355,-1359 657.69,-1359 680.351,-1359"/>
<polygon fill="#ff4040" stroke="#ff4040" points="680.571,-1362.5 690.57,-1359 680.57,-1355.5 680.571,-1362.5"/>
<text text-anchor="middle" x="642" y="-1362" font-family="Times,serif" font-size="10.00">熟练</text>
</g>
<!-- 插入排序 -->
<g id="node28" class="node"><title>插入排序</title>
<g id="a_node28"><a xlink:href="../../algorithms/sort_InsertionSort.html" xlink:title="插入排序" target="_blank">
<ellipse fill="#525252" stroke="#525252" cx="870" cy="-1494" rx="48.1917" ry="18"/>
<text text-anchor="middle" x="870" y="-1490.3" font-family="Times,serif" font-size="14.00">插入排序</text>
</a>
</g>
</g>
<!-- sort&#45;&gt;插入排序 -->
<g id="edge26" class="edge"><title>sort&#45;&gt;插入排序</title>
<path fill="none" stroke="#ff4040" stroke-width="2" d="M731.446,-1374.66C749.692,-1396.98 785.511,-1438.37 822,-1467 825.158,-1469.48 828.569,-1471.88 832.06,-1474.16"/>
<polygon fill="#ff4040" stroke="#ff4040" points="830.459,-1477.29 840.806,-1479.56 834.137,-1471.33 830.459,-1477.29"/>
<text text-anchor="middle" x="794" y="-1454" font-family="Times,serif" font-size="10.00">熟练</text>
</g>
<!-- 堆排序 -->
<g id="node29" class="node"><title>堆排序</title>
<g id="a_node29"><a xlink:href="../../algorithms/sort_HeapSort.html" xlink:title="堆排序" target="_blank">
<ellipse fill="#525252" stroke="#525252" cx="870" cy="-1440" rx="38.1938" ry="18"/>
<text text-anchor="middle" x="870" y="-1436.3" font-family="Times,serif" font-size="14.00">堆排序</text>
</a>
</g>
</g>
<!-- sort&#45;&gt;堆排序 -->
<g id="edge27" class="edge"><title>sort&#45;&gt;堆排序</title>
<path fill="none" stroke="#ff4040" stroke-width="2" d="M739.542,-1370.09C764.159,-1383.39 805.757,-1405.85 835.147,-1421.72"/>
<polygon fill="#ff4040" stroke="#ff4040" points="833.761,-1424.95 844.223,-1426.62 837.087,-1418.79 833.761,-1424.95"/>
<text text-anchor="middle" x="794" y="-1407" font-family="Times,serif" font-size="10.00">熟练</text>
</g>
<!-- 选择排序 -->
<g id="node30" class="node"><title>选择排序</title>
<g id="a_node30"><a xlink:href="../../algorithms/sort_SelectionSort.html" xlink:title="选择排序" target="_blank">
<ellipse fill="#525252" stroke="#525252" cx="870" cy="-1386" rx="48.1917" ry="18"/>
<text text-anchor="middle" x="870" y="-1382.3" font-family="Times,serif" font-size="14.00">选择排序</text>
</a>
</g>
</g>
<!-- sort&#45;&gt;选择排序 -->
<g id="edge28" class="edge"><title>sort&#45;&gt;选择排序</title>
<path fill="none" stroke="#ff4040" stroke-width="2" d="M744.445,-1363.58C764.134,-1367.12 792.068,-1372.15 816.495,-1376.55"/>
<polygon fill="#ff4040" stroke="#ff4040" points="815.899,-1380 826.361,-1378.32 817.139,-1373.11 815.899,-1380"/>
<text text-anchor="middle" x="794" y="-1377" font-family="Times,serif" font-size="10.00">熟练</text>
</g>
<!-- 合并排序 -->
<g id="node31" class="node"><title>合并排序</title>
<g id="a_node31"><a xlink:href="../../algorithms/sort_MergeSort.html" xlink:title="合并排序" target="_blank">
<ellipse fill="#525252" stroke="#525252" cx="870" cy="-1332" rx="48.1917" ry="18"/>
<text text-anchor="middle" x="870" y="-1328.3" font-family="Times,serif" font-size="14.00">合并排序</text>
</a>
</g>
</g>
<!-- sort&#45;&gt;合并排序 -->
<g id="edge29" class="edge"><title>sort&#45;&gt;合并排序</title>
<path fill="none" stroke="#ff4040" stroke-width="2" d="M744.445,-1354.42C764.134,-1350.88 792.068,-1345.85 816.495,-1341.45"/>
<polygon fill="#ff4040" stroke="#ff4040" points="817.139,-1344.89 826.361,-1339.68 815.899,-1338 817.139,-1344.89"/>
<text text-anchor="middle" x="794" y="-1350" font-family="Times,serif" font-size="10.00">熟练</text>
</g>
<!-- 快速排序 -->
<g id="node32" class="node"><title>快速排序</title>
<g id="a_node32"><a xlink:href="../../algorithms/sort_QuickSort.html" xlink:title="快速排序" target="_blank">
<ellipse fill="#525252" stroke="#525252" cx="870" cy="-1278" rx="48.1917" ry="18"/>
<text text-anchor="middle" x="870" y="-1274.3" font-family="Times,serif" font-size="14.00">快速排序</text>
</a>
</g>
</g>
<!-- sort&#45;&gt;快速排序 -->
<g id="edge30" class="edge"><title>sort&#45;&gt;快速排序</title>
<path fill="none" stroke="#ff4040" stroke-width="2" d="M739.542,-1347.91C763.507,-1334.97 803.566,-1313.33 832.787,-1297.55"/>
<polygon fill="#ff4040" stroke="#ff4040" points="834.724,-1300.49 841.86,-1292.66 831.398,-1294.33 834.724,-1300.49"/>
<text text-anchor="middle" x="794" y="-1326" font-family="Times,serif" font-size="10.00">熟练</text>
</g>
<!-- 基数排序 -->
<g id="node33" class="node"><title>基数排序</title>
<g id="a_node33"><a xlink:href="../../algorithms/sort_RadixSort.html" xlink:title="基数排序" target="_blank">
<ellipse fill="#525252" stroke="#525252" cx="870" cy="-1224" rx="48.1917" ry="18"/>
<text text-anchor="middle" x="870" y="-1220.3" font-family="Times,serif" font-size="14.00">基数排序</text>
</a>
</g>
</g>
<!-- sort&#45;&gt;基数排序 -->
<g id="edge31" class="edge"><title>sort&#45;&gt;基数排序</title>
<path fill="none" stroke="#ff4040" stroke-width="2" d="M731.446,-1343.34C749.692,-1321.02 785.511,-1279.63 822,-1251 825.158,-1248.52 828.569,-1246.12 832.06,-1243.84"/>
<polygon fill="#ff4040" stroke="#ff4040" points="834.137,-1246.67 840.806,-1238.44 830.459,-1240.71 834.137,-1246.67"/>
<text text-anchor="middle" x="794" y="-1286" font-family="Times,serif" font-size="10.00">熟练</text>
</g>
</g>
</svg>
