<?xml version="1.0" encoding="UTF-8" standalone="no"?>
<!DOCTYPE svg PUBLIC "-//W3C//DTD SVG 1.1//EN"
 "http://www.w3.org/Graphics/SVG/1.1/DTD/svg11.dtd">
<!-- Generated by graphviz version 2.38.0 (20140413.2041)
 -->
<!-- Title: shapes Pages: 1 -->
<svg width="964pt" height="73pt"
 viewBox="0.00 0.00 963.75 72.99" xmlns="http://www.w3.org/2000/svg" xmlns:xlink="http://www.w3.org/1999/xlink">
<g id="graph0" class="graph" transform="scale(1 1) rotate(0) translate(4 68.9942)">
<title>shapes</title>
<polygon fill="white" stroke="none" points="-4,4 -4,-68.9942 959.745,-68.9942 959.745,4 -4,4"/>
<!-- Box -->
<g id="node1" class="node"><title>Box</title>
<polygon fill="none" stroke="black" points="54,-50.4971 0,-50.4971 0,-14.4971 54,-14.4971 54,-50.4971"/>
<text text-anchor="middle" x="27" y="-28.7971" font-family="Times,serif" font-size="14.00">Box</text>
</g>
<!-- Polygon -->
<g id="node2" class="node"><title>Polygon</title>
<polygon fill="none" stroke="black" points="161.952,-28.4917 153.049,-43.7199 117,-50.4971 80.9509,-43.7199 72.0475,-28.4917 96.9943,-16.2797 137.006,-16.2797 161.952,-28.4917"/>
<text text-anchor="middle" x="117" y="-28.7971" font-family="Times,serif" font-size="14.00">Polygon</text>
</g>
<!-- Ellipse -->
<g id="node3" class="node"><title>Ellipse</title>
<ellipse fill="none" stroke="black" cx="215" cy="-32.4971" rx="35.194" ry="18"/>
<text text-anchor="middle" x="215" y="-28.7971" font-family="Times,serif" font-size="14.00">Ellipse</text>
</g>
<!-- Circle -->
<g id="node4" class="node"><title>Circle</title>
<ellipse fill="none" stroke="black" cx="301" cy="-32.4971" rx="32.4942" ry="32.4942"/>
<text text-anchor="middle" x="301" y="-28.7971" font-family="Times,serif" font-size="14.00">Circle</text>
</g>
<!-- Point -->
<g id="node5" class="node"><title>Point</title>
<ellipse fill="black" stroke="black" cx="353" cy="-32.4971" rx="1.8" ry="1.8"/>
</g>
<!-- triangle -->
<g id="node6" class="node"><title>triangle</title>
<polygon fill="none" stroke="black" points="448,-55.4971 372.713,-20.9971 523.287,-20.9971 448,-55.4971"/>
<text text-anchor="middle" x="448" y="-28.7971" font-family="Times,serif" font-size="14.00">triangle</text>
</g>
<!-- invtriangle -->
<g id="node7" class="node"><title>invtriangle</title>
<polygon fill="none" stroke="black" points="639,-9.49712 736.483,-43.9971 541.517,-43.9971 639,-9.49712"/>
<text text-anchor="middle" x="639" y="-28.7971" font-family="Times,serif" font-size="14.00">invtriangle</text>
</g>
<!-- plaintext -->
<g id="node8" class="node"><title>plaintext</title>
<text text-anchor="middle" x="786" y="-28.7971" font-family="Times,serif" font-size="14.00">plaintext</text>
</g>
<!-- diamond -->
<g id="node9" class="node"><title>diamond</title>
<polygon fill="none" stroke="black" points="896,-50.4971 836.009,-32.4971 896,-14.4971 955.991,-32.4971 896,-50.4971"/>
<text text-anchor="middle" x="896" y="-28.7971" font-family="Times,serif" font-size="14.00">diamond</text>
</g>
</g>
</svg>
