<?xml version="1.0" encoding="UTF-8" standalone="no"?>
<!DOCTYPE svg PUBLIC "-//W3C//DTD SVG 1.1//EN"
 "http://www.w3.org/Graphics/SVG/1.1/DTD/svg11.dtd">
<!-- Generated by graphviz version 2.34.0 (20140110.0949)
 -->
<!-- Title: shapes Pages: 1 -->
<svg width="963pt" height="74pt"
 viewBox="0.00 0.00 963.00 74.00" xmlns="http://www.w3.org/2000/svg" xmlns:xlink="http://www.w3.org/1999/xlink">
<g id="graph0" class="graph" transform="scale(1 1) rotate(0) translate(4 70)">
<title>shapes</title>
<polygon fill="white" stroke="white" points="-4,4 -4,-70 959,-70 959,4 -4,4"/>
<!-- Box -->
<g id="node1" class="node"><title>Box</title>
<polygon fill="none" stroke="black" points="54,-51 0,-51 0,-15 54,-15 54,-51"/>
<text text-anchor="middle" x="27" y="-29.3" font-family="Times,serif" font-size="14.00">Box</text>
</g>
<!-- Polygon -->
<g id="node2" class="node"><title>Polygon</title>
<polygon fill="none" stroke="black" points="161.588,-28.9946 152.757,-44.2228 117,-51 81.2434,-44.2228 72.4122,-28.9946 97.1566,-16.7826 136.843,-16.7826 161.588,-28.9946"/>
<text text-anchor="middle" x="117" y="-29.3" font-family="Times,serif" font-size="14.00">Polygon</text>
</g>
<!-- Ellipse -->
<g id="node3" class="node"><title>Ellipse</title>
<ellipse fill="none" stroke="black" cx="215" cy="-33" rx="35.1455" ry="18"/>
<text text-anchor="middle" x="215" y="-29.3" font-family="Times,serif" font-size="14.00">Ellipse</text>
</g>
<!-- Circle -->
<g id="node4" class="node"><title>Circle</title>
<ellipse fill="none" stroke="black" cx="301" cy="-33" rx="32.2457" ry="32.4942"/>
<text text-anchor="middle" x="301" y="-29.3" font-family="Times,serif" font-size="14.00">Circle</text>
</g>
<!-- Point -->
<g id="node5" class="node"><title>Point</title>
<ellipse fill="black" stroke="black" cx="353" cy="-33" rx="1.8" ry="1.8"/>
</g>
<!-- triangle -->
<g id="node6" class="node"><title>triangle</title>
<polygon fill="none" stroke="black" points="448,-56 372.91,-21.5 523.09,-21.5 448,-56"/>
<text text-anchor="middle" x="448" y="-29.3" font-family="Times,serif" font-size="14.00">triangle</text>
</g>
<!-- invtriangle -->
<g id="node7" class="node"><title>invtriangle</title>
<polygon fill="none" stroke="black" points="639,-10 736.237,-44.5 541.763,-44.5 639,-10"/>
<text text-anchor="middle" x="639" y="-29.3" font-family="Times,serif" font-size="14.00">invtriangle</text>
</g>
<!-- plaintext -->
<g id="node8" class="node"><title>plaintext</title>
<text text-anchor="middle" x="786" y="-29.3" font-family="Times,serif" font-size="14.00">plaintext</text>
</g>
<!-- diamond -->
<g id="node9" class="node"><title>diamond</title>
<polygon fill="none" stroke="black" points="896,-51 836.383,-33 896,-15 955.617,-33 896,-51"/>
<text text-anchor="middle" x="896" y="-29.3" font-family="Times,serif" font-size="14.00">diamond</text>
</g>
</g>
</svg>
