<?xml version="1.0" encoding="UTF-8" standalone="no"?>
<!DOCTYPE svg PUBLIC "-//W3C//DTD SVG 1.1//EN"
 "http://www.w3.org/Graphics/SVG/1.1/DTD/svg11.dtd">
<!-- Generated by graphviz version 2.34.0 (20140110.0949)
 -->
<!-- Title: demo_subgraph Pages: 1 -->
<svg width="580pt" height="344pt"
 viewBox="0.00 0.00 580.00 344.00" xmlns="http://www.w3.org/2000/svg" xmlns:xlink="http://www.w3.org/1999/xlink">
<g id="graph0" class="graph" transform="scale(1 1) rotate(0) translate(4 340)">
<title>demo_subgraph</title>
<polygon fill="beige" stroke="beige" points="-4,4 -4,-340 576,-340 576,4 -4,4"/>
<text text-anchor="middle" x="286" y="-7.4" font-family="Times,serif" font-size="12.00" fill="#1a1a1a">this is demo</text>
<g id="clust1" class="cluster"><title>cluster_g1</title>
<polygon fill="cadetblue" stroke="black" points="8,-29 8,-328 88,-328 88,-29 8,-29"/>
<text text-anchor="middle" x="48" y="-314.4" font-family="Times,serif" font-size="12.00" fill="#1a1a1a">g1</text>
</g>
<g id="clust2" class="cluster"><title>cluster_g2</title>
<polygon fill="cornsilk" stroke="black" points="245,-182 245,-255 437,-255 437,-182 245,-182"/>
<text text-anchor="middle" x="341" y="-241.4" font-family="Times,serif" font-size="12.00" fill="#1a1a1a">g2</text>
</g>
<g id="clust3" class="cluster"><title>cluster_g3</title>
<polygon fill="cornsilk" stroke="black" points="96,-29 96,-174 475,-174 475,-29 96,-29"/>
<text text-anchor="middle" x="285.5" y="-160.4" font-family="Times,serif" font-size="12.00" fill="#1a1a1a">g3</text>
</g>
<!-- level1 -->
<g id="node1" class="node"><title>level1</title>
<ellipse fill="none" stroke="black" cx="48" cy="-281" rx="32.2457" ry="18"/>
<text text-anchor="middle" x="48" y="-277.3" font-family="Times,serif" font-size="14.00">level1</text>
</g>
<!-- level2 -->
<g id="node2" class="node"><title>level2</title>
<ellipse fill="none" stroke="black" cx="48" cy="-208" rx="32.2457" ry="18"/>
<text text-anchor="middle" x="48" y="-204.3" font-family="Times,serif" font-size="14.00">level2</text>
</g>
<!-- level1&#45;&gt;level2 -->
<g id="edge1" class="edge"><title>level1&#45;&gt;level2</title>
<path fill="none" stroke="black" d="M48,-262.813C48,-254.789 48,-245.047 48,-236.069"/>
<polygon fill="black" stroke="black" points="51.5001,-236.029 48,-226.029 44.5001,-236.029 51.5001,-236.029"/>
</g>
<!-- level3 -->
<g id="node3" class="node"><title>level3</title>
<ellipse fill="none" stroke="black" cx="48" cy="-127" rx="32.2457" ry="18"/>
<text text-anchor="middle" x="48" y="-123.3" font-family="Times,serif" font-size="14.00">level3</text>
</g>
<!-- level2&#45;&gt;level3 -->
<g id="edge2" class="edge"><title>level2&#45;&gt;level3</title>
<path fill="none" stroke="black" d="M48,-189.858C48,-179.713 48,-166.634 48,-155.117"/>
<polygon fill="black" stroke="black" points="51.5001,-155.108 48,-145.108 44.5001,-155.108 51.5001,-155.108"/>
</g>
<!-- level4 -->
<g id="node4" class="node"><title>level4</title>
<ellipse fill="none" stroke="black" cx="48" cy="-55" rx="32.2457" ry="18"/>
<text text-anchor="middle" x="48" y="-51.3" font-family="Times,serif" font-size="14.00">level4</text>
</g>
<!-- level3&#45;&gt;level4 -->
<g id="edge3" class="edge"><title>level3&#45;&gt;level4</title>
<path fill="none" stroke="black" d="M48,-108.697C48,-100.983 48,-91.7125 48,-83.1124"/>
<polygon fill="black" stroke="black" points="51.5001,-83.1043 48,-73.1043 44.5001,-83.1044 51.5001,-83.1043"/>
</g>
<!-- d&#45;level2 -->
<g id="node5" class="node"><title>d&#45;level2</title>
<ellipse fill="none" stroke="black" cx="293" cy="-208" rx="39.4691" ry="18"/>
<text text-anchor="middle" x="293" y="-204.3" font-family="Times,serif" font-size="14.00">d&#45;level2</text>
</g>
<!-- e&#45;level2 -->
<g id="node6" class="node"><title>e&#45;level2</title>
<ellipse fill="none" stroke="black" cx="390" cy="-208" rx="38.4949" ry="18"/>
<text text-anchor="middle" x="390" y="-204.3" font-family="Times,serif" font-size="14.00">e&#45;level2</text>
</g>
<!-- h&#45;level3 -->
<g id="node9" class="node"><title>h&#45;level3</title>
<ellipse fill="none" stroke="black" cx="334" cy="-127" rx="39.4691" ry="18"/>
<text text-anchor="middle" x="334" y="-123.3" font-family="Times,serif" font-size="14.00">h&#45;level3</text>
</g>
<!-- e&#45;level2&#45;&gt;h&#45;level3 -->
<g id="edge5" class="edge"><title>e&#45;level2&#45;&gt;h&#45;level3</title>
<path fill="none" stroke="black" d="M378.397,-190.631C370.663,-179.721 360.352,-165.175 351.614,-152.848"/>
<polygon fill="black" stroke="black" points="354.227,-150.482 345.588,-144.348 348.516,-154.53 354.227,-150.482"/>
</g>
<!-- k&#45;level4 -->
<g id="node13" class="node"><title>k&#45;level4</title>
<ellipse fill="none" stroke="black" cx="533" cy="-55" rx="39.4691" ry="18"/>
<text text-anchor="middle" x="533" y="-51.3" font-family="Times,serif" font-size="14.00">k&#45;level4</text>
</g>
<!-- e&#45;level2&#45;&gt;k&#45;level4 -->
<g id="edge6" class="edge"><title>e&#45;level2&#45;&gt;k&#45;level4</title>
<path fill="none" stroke="black" d="M425.517,-200.585C443.363,-195.816 464.267,-187.68 479,-174 505.381,-149.505 519.867,-109.616 527.03,-83.0934"/>
<polygon fill="black" stroke="black" points="530.447,-83.8581 529.506,-73.3052 523.66,-82.1416 530.447,-83.8581"/>
</g>
<!-- f&#45;level3 -->
<g id="node7" class="node"><title>f&#45;level3</title>
<ellipse fill="none" stroke="black" cx="285" cy="-55" rx="38.0212" ry="18"/>
<text text-anchor="middle" x="285" y="-51.3" font-family="Times,serif" font-size="14.00">f&#45;level3</text>
</g>
<!-- g&#45;level3 -->
<g id="node8" class="node"><title>g&#45;level3</title>
<ellipse fill="none" stroke="black" cx="237" cy="-127" rx="39.4691" ry="18"/>
<text text-anchor="middle" x="237" y="-123.3" font-family="Times,serif" font-size="14.00">g&#45;level3</text>
</g>
<!-- i&#45;level3 -->
<g id="node10" class="node"><title>i&#45;level3</title>
<ellipse fill="none" stroke="black" cx="429" cy="-127" rx="37.5442" ry="18"/>
<text text-anchor="middle" x="429" y="-123.3" font-family="Times,serif" font-size="14.00">i&#45;level3</text>
</g>
<!-- j&#45;level3 -->
<g id="node11" class="node"><title>j&#45;level3</title>
<ellipse fill="none" stroke="black" cx="142" cy="-127" rx="37.5442" ry="18"/>
<text text-anchor="middle" x="142" y="-123.3" font-family="Times,serif" font-size="14.00">j&#45;level3</text>
</g>
<!-- j&#45;level3&#45;&gt;f&#45;level3 -->
<g id="edge14" class="edge"><title>j&#45;level3&#45;&gt;f&#45;level3</title>
<path fill="none" stroke="black" d="M167.236,-113.647C190.373,-102.321 224.837,-85.4503 250.511,-72.8827"/>
<polygon fill="black" stroke="black" points="252.092,-76.0057 259.535,-68.4654 249.014,-69.7185 252.092,-76.0057"/>
</g>
<!-- j&#45;level3&#45;&gt;k&#45;level4 -->
<g id="edge15" class="edge"><title>j&#45;level3&#45;&gt;k&#45;level4</title>
<path fill="none" stroke="black" d="M169.408,-114.698C175.452,-112.537 181.878,-110.489 188,-109 314.629,-78.2074 351.654,-100.681 479,-73 483.498,-72.0224 488.157,-70.8336 492.767,-69.5436"/>
<polygon fill="black" stroke="black" points="494.109,-72.7966 502.703,-66.6006 492.121,-66.0848 494.109,-72.7966"/>
</g>
<!-- a&#45;level1 -->
<g id="node12" class="node"><title>a&#45;level1</title>
<ellipse fill="none" stroke="black" cx="307" cy="-281" rx="38.4949" ry="18"/>
<text text-anchor="middle" x="307" y="-277.3" font-family="Times,serif" font-size="14.00">a&#45;level1</text>
</g>
<!-- a&#45;level1&#45;&gt;d&#45;level2 -->
<g id="edge4" class="edge"><title>a&#45;level1&#45;&gt;d&#45;level2</title>
<path fill="none" stroke="black" d="M303.611,-262.813C302.029,-254.789 300.108,-245.047 298.338,-236.069"/>
<polygon fill="black" stroke="black" points="301.726,-235.163 296.358,-226.029 294.859,-236.517 301.726,-235.163"/>
</g>
<!-- b&#45;level1 -->
<g id="node14" class="node"><title>b&#45;level1</title>
<ellipse fill="none" stroke="black" cx="476" cy="-281" rx="39.4691" ry="18"/>
<text text-anchor="middle" x="476" y="-277.3" font-family="Times,serif" font-size="14.00">b&#45;level1</text>
</g>
<!-- b&#45;level1&#45;&gt;e&#45;level2 -->
<g id="edge7" class="edge"><title>b&#45;level1&#45;&gt;e&#45;level2</title>
<path fill="none" stroke="black" d="M456.29,-265.406C451.874,-262.043 447.242,-258.441 443,-255 433.583,-247.36 423.477,-238.707 414.641,-230.984"/>
<polygon fill="black" stroke="black" points="416.76,-228.187 406.94,-224.209 412.136,-233.442 416.76,-228.187"/>
</g>
<!-- b&#45;level1&#45;&gt;f&#45;level3 -->
<g id="edge8" class="edge"><title>b&#45;level1&#45;&gt;f&#45;level3</title>
<path fill="none" stroke="black" d="M481.923,-263.08C492.418,-229.756 510.051,-154.888 475,-109 457.594,-86.213 381.657,-70.5589 331.213,-62.4565"/>
<polygon fill="black" stroke="black" points="331.598,-58.9743 321.178,-60.8896 330.518,-65.8905 331.598,-58.9743"/>
</g>
<!-- b&#45;level1&#45;&gt;i&#45;level3 -->
<g id="edge9" class="edge"><title>b&#45;level1&#45;&gt;i&#45;level3</title>
<path fill="none" stroke="black" d="M470.791,-263.153C462.674,-236.902 446.938,-186.013 437.262,-154.72"/>
<polygon fill="black" stroke="black" points="440.531,-153.443 434.233,-144.923 433.843,-155.511 440.531,-153.443"/>
</g>
<!-- b&#45;level1&#45;&gt;k&#45;level4 -->
<g id="edge10" class="edge"><title>b&#45;level1&#45;&gt;k&#45;level4</title>
<path fill="none" stroke="black" d="M499.314,-266.212C503.097,-262.989 506.566,-259.238 509,-255 540.349,-200.405 539.376,-123.59 536.108,-83.2265"/>
<polygon fill="black" stroke="black" points="539.577,-82.7256 535.174,-73.0887 532.606,-83.3676 539.577,-82.7256"/>
</g>
<!-- c&#45;level1 -->
<g id="node15" class="node"><title>c&#45;level1</title>
<ellipse fill="none" stroke="black" cx="211" cy="-281" rx="38.4949" ry="18"/>
<text text-anchor="middle" x="211" y="-277.3" font-family="Times,serif" font-size="14.00">c&#45;level1</text>
</g>
<!-- c&#45;level1&#45;&gt;d&#45;level2 -->
<g id="edge11" class="edge"><title>c&#45;level1&#45;&gt;d&#45;level2</title>
<path fill="none" stroke="black" d="M228.793,-264.594C240.153,-254.758 255.057,-241.853 267.646,-230.953"/>
<polygon fill="black" stroke="black" points="270.255,-233.324 275.524,-224.132 265.673,-228.032 270.255,-233.324"/>
</g>
<!-- c&#45;level1&#45;&gt;g&#45;level3 -->
<g id="edge12" class="edge"><title>c&#45;level1&#45;&gt;g&#45;level3</title>
<path fill="none" stroke="black" d="M208.708,-262.746C206.605,-242.965 204.679,-209.701 211,-182 213.21,-172.315 217.388,-162.344 221.758,-153.647"/>
<polygon fill="black" stroke="black" points="224.868,-155.253 226.492,-144.783 218.693,-151.955 224.868,-155.253"/>
</g>
<!-- c&#45;level1&#45;&gt;h&#45;level3 -->
<g id="edge13" class="edge"><title>c&#45;level1&#45;&gt;h&#45;level3</title>
<path fill="none" stroke="black" d="M211.121,-262.99C212.256,-240.889 217.73,-202.691 241,-182 255.854,-168.793 267.251,-182.946 285,-174 295.849,-168.532 305.979,-159.902 314.18,-151.587"/>
<polygon fill="black" stroke="black" points="316.868,-153.837 321.135,-144.139 311.752,-149.059 316.868,-153.837"/>
</g>
</g>
</svg>
