<?xml version="1.0" encoding="UTF-8" standalone="no"?>
<!DOCTYPE svg PUBLIC "-//W3C//DTD SVG 1.1//EN"
 "http://www.w3.org/Graphics/SVG/1.1/DTD/svg11.dtd">
<!-- Generated by graphviz version 2.38.0 (20140413.2041)
 -->
<!-- Title: tree Pages: 1 -->
<svg width="602pt" height="562pt"
 viewBox="0.00 0.00 602.00 562.00" xmlns="http://www.w3.org/2000/svg" xmlns:xlink="http://www.w3.org/1999/xlink">
<g id="graph0" class="graph" transform="scale(1 1) rotate(0) translate(4 558)">
<title>tree</title>
<polygon fill="white" stroke="none" points="-4,4 -4,-558 598,-558 598,4 -4,4"/>
<!-- a_dir_1 -->
<g id="node1" class="node"><title>a_dir_1</title>
<path fill="#e5e5e5" stroke="black" d="M208.333,-554C208.333,-554 7.66667,-554 7.66667,-554 3.83333,-554 0,-550.167 0,-546.333 0,-546.333 0,-538.667 0,-538.667 0,-534.833 3.83333,-531 7.66667,-531 7.66667,-531 208.333,-531 208.333,-531 212.167,-531 216,-534.833 216,-538.667 216,-538.667 216,-546.333 216,-546.333 216,-550.167 212.167,-554 208.333,-554"/>
<text text-anchor="middle" x="108" y="-538.8" font-family="Times,serif" font-size="14.00">Software&#45;Qualität</text>
</g>
<!-- a_point_1 -->
<g id="node2" class="node"><title>a_point_1</title>
<ellipse fill="#e5e5e5" stroke="black" cx="108" cy="-483.5" rx="0" ry="0"/>
</g>
<!-- a_dir_1&#45;&gt;a_point_1 -->
<g id="edge1" class="edge"><title>a_dir_1&#45;&gt;a_point_1</title>
<path fill="none" stroke="black" d="M108,-530.779C108,-514.783 108,-486.348 108,-484.586"/>
</g>
<!-- b_dir_1 -->
<g id="node3" class="node"><title>b_dir_1</title>
<path fill="#e5e5e5" stroke="black" d="M334.333,-495C334.333,-495 133.667,-495 133.667,-495 129.833,-495 126,-491.167 126,-487.333 126,-487.333 126,-479.667 126,-479.667 126,-475.833 129.833,-472 133.667,-472 133.667,-472 334.333,-472 334.333,-472 338.167,-472 342,-475.833 342,-479.667 342,-479.667 342,-487.333 342,-487.333 342,-491.167 338.167,-495 334.333,-495"/>
<text text-anchor="middle" x="234" y="-479.8" font-family="Times,serif" font-size="14.00">Produktqualität</text>
</g>
<!-- a_point_1&#45;&gt;b_dir_1 -->
<g id="edge2" class="edge"><title>a_point_1&#45;&gt;b_dir_1</title>
<path fill="none" stroke="black" d="M108.492,-483.5C110.816,-483.5 113.139,-483.5 115.463,-483.5"/>
<polygon fill="black" stroke="black" points="115.651,-487 125.651,-483.5 115.651,-480 115.651,-487"/>
</g>
<!-- b_point_1 -->
<g id="node4" class="node"><title>b_point_1</title>
<ellipse fill="#e5e5e5" stroke="black" cx="234" cy="-424.5" rx="0" ry="0"/>
</g>
<!-- b_dir_1&#45;&gt;b_point_1 -->
<g id="edge4" class="edge"><title>b_dir_1&#45;&gt;b_point_1</title>
<path fill="none" stroke="black" d="M234,-471.779C234,-455.783 234,-427.348 234,-425.586"/>
</g>
<!-- c_dir_1 -->
<g id="node5" class="node"><title>c_dir_1</title>
<path fill="#e5e5e5" stroke="black" d="M460.333,-436C460.333,-436 259.667,-436 259.667,-436 255.833,-436 252,-432.167 252,-428.333 252,-428.333 252,-420.667 252,-420.667 252,-416.833 255.833,-413 259.667,-413 259.667,-413 460.333,-413 460.333,-413 464.167,-413 468,-416.833 468,-420.667 468,-420.667 468,-428.333 468,-428.333 468,-432.167 464.167,-436 460.333,-436"/>
<text text-anchor="middle" x="360" y="-420.8" font-family="Times,serif" font-size="14.00">Konstruktive Qualitätssicherung</text>
</g>
<!-- b_point_1&#45;&gt;c_dir_1 -->
<g id="edge3" class="edge"><title>b_point_1&#45;&gt;c_dir_1</title>
<path fill="none" stroke="black" d="M234.492,-424.5C236.816,-424.5 239.139,-424.5 241.463,-424.5"/>
<polygon fill="black" stroke="black" points="241.651,-428 251.651,-424.5 241.651,-421 241.651,-428"/>
</g>
<!-- b_point_2 -->
<g id="node18" class="node"><title>b_point_2</title>
<ellipse fill="#e5e5e5" stroke="black" cx="234" cy="-11.5" rx="0" ry="0"/>
</g>
<!-- b_point_1&#45;&gt;b_point_2 -->
<g id="edge12" class="edge"><title>b_point_1&#45;&gt;b_point_2</title>
<path fill="none" stroke="black" d="M234,-423.453C234,-421.489 234,-358.25 234,-307.5 234,-307.5 234,-307.5 234,-128.5 234,-77.75 234,-14.5107 234,-12.5469"/>
</g>
<!-- c_point_1 -->
<g id="node6" class="node"><title>c_point_1</title>
<ellipse fill="#e5e5e5" stroke="black" cx="360" cy="-365.5" rx="0" ry="0"/>
</g>
<!-- c_dir_1&#45;&gt;c_point_1 -->
<g id="edge13" class="edge"><title>c_dir_1&#45;&gt;c_point_1</title>
<path fill="none" stroke="black" d="M360,-412.779C360,-396.783 360,-368.348 360,-366.586"/>
</g>
<!-- d_dir_1 -->
<g id="node7" class="node"><title>d_dir_1</title>
<path fill="#e5e5e5" stroke="black" d="M586.333,-377C586.333,-377 385.667,-377 385.667,-377 381.833,-377 378,-373.167 378,-369.333 378,-369.333 378,-361.667 378,-361.667 378,-357.833 381.833,-354 385.667,-354 385.667,-354 586.333,-354 586.333,-354 590.167,-354 594,-357.833 594,-361.667 594,-361.667 594,-369.333 594,-369.333 594,-373.167 590.167,-377 586.333,-377"/>
<text text-anchor="middle" x="486" y="-361.8" font-family="Times,serif" font-size="14.00">Software&#45;Richtlinien</text>
</g>
<!-- c_point_1&#45;&gt;d_dir_1 -->
<g id="edge5" class="edge"><title>c_point_1&#45;&gt;d_dir_1</title>
<path fill="none" stroke="black" d="M360.492,-365.5C362.816,-365.5 365.139,-365.5 367.463,-365.5"/>
<polygon fill="black" stroke="black" points="367.651,-369 377.651,-365.5 367.651,-362 367.651,-369"/>
</g>
<!-- c_point_2 -->
<g id="node8" class="node"><title>c_point_2</title>
<ellipse fill="#e5e5e5" stroke="black" cx="360" cy="-306.5" rx="0" ry="0"/>
</g>
<!-- c_point_1&#45;&gt;c_point_2 -->
<g id="edge14" class="edge"><title>c_point_1&#45;&gt;c_point_2</title>
<path fill="none" stroke="black" d="M360,-364.336C360,-361.098 360,-310.794 360,-307.654"/>
</g>
<!-- d_dir_2 -->
<g id="node9" class="node"><title>d_dir_2</title>
<path fill="#e5e5e5" stroke="black" d="M586.333,-318C586.333,-318 385.667,-318 385.667,-318 381.833,-318 378,-314.167 378,-310.333 378,-310.333 378,-302.667 378,-302.667 378,-298.833 381.833,-295 385.667,-295 385.667,-295 586.333,-295 586.333,-295 590.167,-295 594,-298.833 594,-302.667 594,-302.667 594,-310.333 594,-310.333 594,-314.167 590.167,-318 586.333,-318"/>
<text text-anchor="start" x="386" y="-302.8" font-family="Times,serif" font-size="14.00">Typisierung</text>
</g>
<!-- c_point_2&#45;&gt;d_dir_2 -->
<g id="edge6" class="edge"><title>c_point_2&#45;&gt;d_dir_2</title>
<path fill="none" stroke="black" d="M360.492,-306.5C362.816,-306.5 365.139,-306.5 367.463,-306.5"/>
<polygon fill="black" stroke="black" points="367.651,-310 377.651,-306.5 367.651,-303 367.651,-310"/>
</g>
<!-- c_point_3 -->
<g id="node10" class="node"><title>c_point_3</title>
<ellipse fill="#e5e5e5" stroke="black" cx="360" cy="-247.5" rx="0" ry="0"/>
</g>
<!-- c_point_2&#45;&gt;c_point_3 -->
<g id="edge15" class="edge"><title>c_point_2&#45;&gt;c_point_3</title>
<path fill="none" stroke="black" d="M360,-305.336C360,-302.098 360,-251.794 360,-248.654"/>
</g>
<!-- d_dir_3 -->
<g id="node11" class="node"><title>d_dir_3</title>
<path fill="#e5e5e5" stroke="black" d="M586.333,-259C586.333,-259 385.667,-259 385.667,-259 381.833,-259 378,-255.167 378,-251.333 378,-251.333 378,-243.667 378,-243.667 378,-239.833 381.833,-236 385.667,-236 385.667,-236 586.333,-236 586.333,-236 590.167,-236 594,-239.833 594,-243.667 594,-243.667 594,-251.333 594,-251.333 594,-255.167 590.167,-259 586.333,-259"/>
<text text-anchor="middle" x="486" y="-243.8" font-family="Times,serif" font-size="14.00">Vertragsbasierte Programmierung</text>
</g>
<!-- c_point_3&#45;&gt;d_dir_3 -->
<g id="edge7" class="edge"><title>c_point_3&#45;&gt;d_dir_3</title>
<path fill="none" stroke="black" d="M360.492,-247.5C362.816,-247.5 365.139,-247.5 367.463,-247.5"/>
<polygon fill="black" stroke="black" points="367.651,-251 377.651,-247.5 367.651,-244 367.651,-251"/>
</g>
<!-- c_point_4 -->
<g id="node12" class="node"><title>c_point_4</title>
<ellipse fill="#e5e5e5" stroke="black" cx="360" cy="-188.5" rx="0" ry="0"/>
</g>
<!-- c_point_3&#45;&gt;c_point_4 -->
<g id="edge16" class="edge"><title>c_point_3&#45;&gt;c_point_4</title>
<path fill="none" stroke="black" d="M360,-246.336C360,-243.098 360,-192.794 360,-189.654"/>
</g>
<!-- d_dir_4 -->
<g id="node13" class="node"><title>d_dir_4</title>
<path fill="#e5e5e5" stroke="black" d="M586.333,-200C586.333,-200 385.667,-200 385.667,-200 381.833,-200 378,-196.167 378,-192.333 378,-192.333 378,-184.667 378,-184.667 378,-180.833 381.833,-177 385.667,-177 385.667,-177 586.333,-177 586.333,-177 590.167,-177 594,-180.833 594,-184.667 594,-184.667 594,-192.333 594,-192.333 594,-196.167 590.167,-200 586.333,-200"/>
<text text-anchor="middle" x="486" y="-184.8" font-family="Times,serif" font-size="14.00">Fehlertolerante Programmierung</text>
</g>
<!-- c_point_4&#45;&gt;d_dir_4 -->
<g id="edge8" class="edge"><title>c_point_4&#45;&gt;d_dir_4</title>
<path fill="none" stroke="black" d="M360.492,-188.5C362.816,-188.5 365.139,-188.5 367.463,-188.5"/>
<polygon fill="black" stroke="black" points="367.651,-192 377.651,-188.5 367.651,-185 367.651,-192"/>
</g>
<!-- c_point_5 -->
<g id="node14" class="node"><title>c_point_5</title>
<ellipse fill="#e5e5e5" stroke="black" cx="360" cy="-129.5" rx="0" ry="0"/>
</g>
<!-- c_point_4&#45;&gt;c_point_5 -->
<g id="edge17" class="edge"><title>c_point_4&#45;&gt;c_point_5</title>
<path fill="none" stroke="black" d="M360,-187.336C360,-184.098 360,-133.794 360,-130.654"/>
</g>
<!-- d_dir_5 -->
<g id="node15" class="node"><title>d_dir_5</title>
<path fill="#e5e5e5" stroke="black" d="M586.333,-141C586.333,-141 385.667,-141 385.667,-141 381.833,-141 378,-137.167 378,-133.333 378,-133.333 378,-125.667 378,-125.667 378,-121.833 381.833,-118 385.667,-118 385.667,-118 586.333,-118 586.333,-118 590.167,-118 594,-121.833 594,-125.667 594,-125.667 594,-133.333 594,-133.333 594,-137.167 590.167,-141 586.333,-141"/>
<text text-anchor="middle" x="486" y="-125.8" font-family="Times,serif" font-size="14.00">Portabilität</text>
</g>
<!-- c_point_5&#45;&gt;d_dir_5 -->
<g id="edge9" class="edge"><title>c_point_5&#45;&gt;d_dir_5</title>
<path fill="none" stroke="black" d="M360.492,-129.5C362.816,-129.5 365.139,-129.5 367.463,-129.5"/>
<polygon fill="black" stroke="black" points="367.651,-133 377.651,-129.5 367.651,-126 367.651,-133"/>
</g>
<!-- c_point_6 -->
<g id="node16" class="node"><title>c_point_6</title>
<ellipse fill="#e5e5e5" stroke="black" cx="360" cy="-70.5" rx="0" ry="0"/>
</g>
<!-- c_point_5&#45;&gt;c_point_6 -->
<g id="edge18" class="edge"><title>c_point_5&#45;&gt;c_point_6</title>
<path fill="none" stroke="black" d="M360,-128.336C360,-125.098 360,-74.7943 360,-71.6536"/>
</g>
<!-- d_dir_6 -->
<g id="node17" class="node"><title>d_dir_6</title>
<path fill="#e5e5e5" stroke="black" d="M586.333,-82C586.333,-82 385.667,-82 385.667,-82 381.833,-82 378,-78.1667 378,-74.3333 378,-74.3333 378,-66.6667 378,-66.6667 378,-62.8333 381.833,-59 385.667,-59 385.667,-59 586.333,-59 586.333,-59 590.167,-59 594,-62.8333 594,-66.6667 594,-66.6667 594,-74.3333 594,-74.3333 594,-78.1667 590.167,-82 586.333,-82"/>
<text text-anchor="middle" x="486" y="-66.8" font-family="Times,serif" font-size="14.00">Dokumentation</text>
</g>
<!-- c_point_6&#45;&gt;d_dir_6 -->
<g id="edge10" class="edge"><title>c_point_6&#45;&gt;d_dir_6</title>
<path fill="none" stroke="black" d="M360.492,-70.5C362.816,-70.5 365.139,-70.5 367.463,-70.5"/>
<polygon fill="black" stroke="black" points="367.651,-74.0001 377.651,-70.5 367.651,-67.0001 367.651,-74.0001"/>
</g>
<!-- c_dir_2 -->
<g id="node19" class="node"><title>c_dir_2</title>
<path fill="#e5e5e5" stroke="black" d="M460.333,-23C460.333,-23 259.667,-23 259.667,-23 255.833,-23 252,-19.1667 252,-15.3333 252,-15.3333 252,-7.66667 252,-7.66667 252,-3.83333 255.833,-0 259.667,-0 259.667,-0 460.333,-0 460.333,-0 464.167,-0 468,-3.83333 468,-7.66667 468,-7.66667 468,-15.3333 468,-15.3333 468,-19.1667 464.167,-23 460.333,-23"/>
<text text-anchor="middle" x="360" y="-7.8" font-family="Times,serif" font-size="14.00">Analytische Qualitätssicherung</text>
</g>
<!-- b_point_2&#45;&gt;c_dir_2 -->
<g id="edge11" class="edge"><title>b_point_2&#45;&gt;c_dir_2</title>
<path fill="none" stroke="black" d="M234.492,-11.5C236.816,-11.5 239.139,-11.5 241.463,-11.5"/>
<polygon fill="black" stroke="black" points="241.651,-15.0001 251.651,-11.5 241.651,-8.0001 241.651,-15.0001"/>
</g>
</g>
</svg>
