<?xml version="1.0" encoding="UTF-8" standalone="no"?>
<!DOCTYPE svg PUBLIC "-//W3C//DTD SVG 1.1//EN"
 "http://www.w3.org/Graphics/SVG/1.1/DTD/svg11.dtd">
<!-- Generated by graphviz version 2.38.0 (20140413.2041)
 -->
<!-- Title: directory tree Pages: 1 -->
<svg width="533pt" height="246pt"
 viewBox="0.00 0.00 533.37 246.00" xmlns="http://www.w3.org/2000/svg" xmlns:xlink="http://www.w3.org/1999/xlink">
<g id="graph0" class="graph" transform="scale(1 1) rotate(0) translate(4 242)">
<title>directory tree</title>
<polygon fill="white" stroke="none" points="-4,4 -4,-242 529.373,-242 529.373,4 -4,4"/>
<!-- /home/bill.huang/documents/m -->
<g id="node1" class="node"><title>/home/bill.huang/documents/m</title>
<ellipse fill="none" stroke="black" cx="287.88" cy="-72" rx="27" ry="18"/>
<text text-anchor="middle" x="287.88" y="-68.3" font-family="Times,serif" font-size="14.00">m</text>
</g>
<!-- /home/bill.huang/documents/m/server -->
<g id="node2" class="node"><title>/home/bill.huang/documents/m/server</title>
<ellipse fill="none" stroke="black" cx="393.126" cy="-153" rx="32.4942" ry="18"/>
<text text-anchor="middle" x="393.126" y="-149.3" font-family="Times,serif" font-size="14.00">server</text>
</g>
<!-- /home/bill.huang/documents/m&#45;&gt;/home/bill.huang/documents/m/server -->
<g id="edge3" class="edge"><title>/home/bill.huang/documents/m&#45;&gt;/home/bill.huang/documents/m/server</title>
<path fill="none" stroke="black" d="M306.394,-85.7405C322.559,-98.4224 346.8,-117.44 365.386,-132.021"/>
<polygon fill="black" stroke="black" points="363.45,-134.951 373.478,-138.37 367.77,-129.443 363.45,-134.951"/>
</g>
<!-- /home/bill.huang/documents/m/smg -->
<g id="node6" class="node"><title>/home/bill.huang/documents/m/smg</title>
<ellipse fill="none" stroke="black" cx="393.126" cy="-72" rx="27" ry="18"/>
<text text-anchor="middle" x="393.126" y="-68.3" font-family="Times,serif" font-size="14.00">smg</text>
</g>
<!-- /home/bill.huang/documents/m&#45;&gt;/home/bill.huang/documents/m/smg -->
<g id="edge7" class="edge"><title>/home/bill.huang/documents/m&#45;&gt;/home/bill.huang/documents/m/smg</title>
<path fill="none" stroke="black" d="M314.933,-72C327.283,-72 342.245,-72 355.696,-72"/>
<polygon fill="black" stroke="black" points="356.081,-75.5001 366.081,-72 356.081,-68.5001 356.081,-75.5001"/>
</g>
<!-- /home/bill.huang/documents/m/common -->
<g id="node8" class="node"><title>/home/bill.huang/documents/m/common</title>
<ellipse fill="none" stroke="black" cx="393.126" cy="-18" rx="42.4939" ry="18"/>
<text text-anchor="middle" x="393.126" y="-14.3" font-family="Times,serif" font-size="14.00">common</text>
</g>
<!-- /home/bill.huang/documents/m&#45;&gt;/home/bill.huang/documents/m/common -->
<g id="edge2" class="edge"><title>/home/bill.huang/documents/m&#45;&gt;/home/bill.huang/documents/m/common</title>
<path fill="none" stroke="black" d="M309.773,-61.0723C323.27,-54.0135 341.172,-44.6503 356.837,-36.4572"/>
<polygon fill="black" stroke="black" points="358.512,-39.5307 365.751,-31.7946 355.268,-33.3279 358.512,-39.5307"/>
</g>
<!-- /home/bill.huang/documents/m/server/adx -->
<g id="node3" class="node"><title>/home/bill.huang/documents/m/server/adx</title>
<ellipse fill="none" stroke="black" cx="498.373" cy="-220" rx="27" ry="18"/>
<text text-anchor="middle" x="498.373" y="-216.3" font-family="Times,serif" font-size="14.00">adx</text>
</g>
<!-- /home/bill.huang/documents/m/server&#45;&gt;/home/bill.huang/documents/m/server/adx -->
<g id="edge4" class="edge"><title>/home/bill.huang/documents/m/server&#45;&gt;/home/bill.huang/documents/m/server/adx</title>
<path fill="none" stroke="black" d="M415.02,-166.558C430.775,-176.783 452.535,-190.904 469.731,-202.062"/>
<polygon fill="black" stroke="black" points="467.957,-205.084 478.251,-207.592 471.768,-199.212 467.957,-205.084"/>
</g>
<!-- /home/bill.huang/documents/m/server/wiki -->
<g id="node4" class="node"><title>/home/bill.huang/documents/m/server/wiki</title>
<ellipse fill="none" stroke="black" cx="498.373" cy="-166" rx="27" ry="18"/>
<text text-anchor="middle" x="498.373" y="-162.3" font-family="Times,serif" font-size="14.00">wiki</text>
</g>
<!-- /home/bill.huang/documents/m/server&#45;&gt;/home/bill.huang/documents/m/server/wiki -->
<g id="edge6" class="edge"><title>/home/bill.huang/documents/m/server&#45;&gt;/home/bill.huang/documents/m/server/wiki</title>
<path fill="none" stroke="black" d="M425.104,-156.9C436.589,-158.347 449.706,-159.998 461.585,-161.494"/>
<polygon fill="black" stroke="black" points="461.274,-164.982 471.633,-162.759 462.149,-158.037 461.274,-164.982"/>
</g>
<!-- /home/bill.huang/documents/m/server/vast -->
<g id="node5" class="node"><title>/home/bill.huang/documents/m/server/vast</title>
<ellipse fill="none" stroke="black" cx="498.373" cy="-112" rx="27" ry="18"/>
<text text-anchor="middle" x="498.373" y="-108.3" font-family="Times,serif" font-size="14.00">vast</text>
</g>
<!-- /home/bill.huang/documents/m/server&#45;&gt;/home/bill.huang/documents/m/server/vast -->
<g id="edge5" class="edge"><title>/home/bill.huang/documents/m/server&#45;&gt;/home/bill.huang/documents/m/server/vast</title>
<path fill="none" stroke="black" d="M419.913,-142.76C433.599,-137.325 450.548,-130.595 465.099,-124.816"/>
<polygon fill="black" stroke="black" points="466.717,-127.939 474.72,-120.996 464.134,-121.434 466.717,-127.939"/>
</g>
<!-- /home/bill.huang/documents/m/smg/s01 -->
<g id="node7" class="node"><title>/home/bill.huang/documents/m/smg/s01</title>
<ellipse fill="none" stroke="black" cx="498.373" cy="-58" rx="27" ry="18"/>
<text text-anchor="middle" x="498.373" y="-54.3" font-family="Times,serif" font-size="14.00">s01</text>
</g>
<!-- /home/bill.huang/documents/m/smg&#45;&gt;/home/bill.huang/documents/m/smg/s01 -->
<g id="edge8" class="edge"><title>/home/bill.huang/documents/m/smg&#45;&gt;/home/bill.huang/documents/m/smg/s01</title>
<path fill="none" stroke="black" d="M419.648,-68.5393C432.306,-66.823 447.804,-64.7213 461.623,-62.8476"/>
<polygon fill="black" stroke="black" points="462.348,-66.2814 471.787,-61.4694 461.407,-59.3449 462.348,-66.2814"/>
</g>
<!-- /home/bill.huang/documents -->
<g id="node9" class="node"><title>/home/bill.huang/documents</title>
<ellipse fill="none" stroke="black" cx="112.44" cy="-72" rx="112.38" ry="18"/>
<text text-anchor="middle" x="112.44" y="-68.3" font-family="Times,serif" font-size="14.00">/home/bill.huang/documents</text>
</g>
<!-- /home/bill.huang/documents&#45;&gt;/home/bill.huang/documents/m -->
<g id="edge1" class="edge"><title>/home/bill.huang/documents&#45;&gt;/home/bill.huang/documents/m</title>
<path fill="none" stroke="black" d="M225.243,-72C234.256,-72 242.873,-72 250.657,-72"/>
<polygon fill="black" stroke="black" points="250.715,-75.5001 260.715,-72 250.715,-68.5001 250.715,-75.5001"/>
</g>
</g>
</svg>
