<?xml version="1.0" encoding="UTF-8" standalone="no"?>
<!DOCTYPE svg PUBLIC "-//W3C//DTD SVG 1.1//EN"
 "http://www.w3.org/Graphics/SVG/1.1/DTD/svg11.dtd">
<!-- Generated by graphviz version 2.38.0 (20140413.2041)
 -->
<!-- Title: tree Pages: 1 -->
<svg width="980pt" height="377pt"
 viewBox="0.00 0.00 980.00 377.00" xmlns="http://www.w3.org/2000/svg" xmlns:xlink="http://www.w3.org/1999/xlink">
<g id="graph0" class="graph" transform="scale(1 1) rotate(0) translate(4 373)">
<title>tree</title>
<polygon fill="white" stroke="none" points="-4,4 -4,-373 976,-373 976,4 -4,4"/>
<!-- a_dir_1 -->
<g id="node1" class="node"><title>a_dir_1</title>
<path fill="#e5e5e5" stroke="black" d="M208.333,-369C208.333,-369 7.66667,-369 7.66667,-369 3.83333,-369 0,-365.167 0,-361.333 0,-361.333 0,-353.667 0,-353.667 0,-349.833 3.83333,-346 7.66667,-346 7.66667,-346 208.333,-346 208.333,-346 212.167,-346 216,-349.833 216,-353.667 216,-353.667 216,-361.333 216,-361.333 216,-365.167 212.167,-369 208.333,-369"/>
<text text-anchor="middle" x="108" y="-353.8" font-family="Times,serif" font-size="14.00">Software&#45;Qualität</text>
</g>
<!-- a_point_1 -->
<g id="node2" class="node"><title>a_point_1</title>
<ellipse fill="#e5e5e5" stroke="black" cx="108" cy="-309.5" rx="0" ry="0"/>
</g>
<!-- a_dir_1&#45;&gt;a_point_1 -->
<g id="edge10" class="edge"><title>a_dir_1&#45;&gt;a_point_1</title>
<path fill="none" stroke="black" d="M108,-345.966C108,-333.936 108,-321.905 108,-309.875"/>
</g>
<!-- b_dir_1 -->
<g id="node3" class="node"><title>b_dir_1</title>
<path fill="#e5e5e5" stroke="black" d="M460.333,-321C460.333,-321 259.667,-321 259.667,-321 255.833,-321 252,-317.167 252,-313.333 252,-313.333 252,-305.667 252,-305.667 252,-301.833 255.833,-298 259.667,-298 259.667,-298 460.333,-298 460.333,-298 464.167,-298 468,-301.833 468,-305.667 468,-305.667 468,-313.333 468,-313.333 468,-317.167 464.167,-321 460.333,-321"/>
<text text-anchor="middle" x="360" y="-305.8" font-family="Times,serif" font-size="14.00">Produktqualität</text>
</g>
<!-- a_point_1&#45;&gt;b_dir_1 -->
<g id="edge1" class="edge"><title>a_point_1&#45;&gt;b_dir_1</title>
<path fill="none" stroke="black" d="M109.046,-309.5C111.031,-309.5 177.601,-309.5 241.534,-309.5"/>
<polygon fill="black" stroke="black" points="241.762,-313 251.762,-309.5 241.762,-306 241.762,-313"/>
</g>
<!-- b_point_1 -->
<g id="node4" class="node"><title>b_point_1</title>
<ellipse fill="#e5e5e5" stroke="black" cx="360" cy="-261.5" rx="0" ry="0"/>
</g>
<!-- b_dir_1&#45;&gt;b_point_1 -->
<g id="edge11" class="edge"><title>b_dir_1&#45;&gt;b_point_1</title>
<path fill="none" stroke="black" d="M360,-297.966C360,-285.936 360,-273.905 360,-261.875"/>
</g>
<!-- c_dir_1 -->
<g id="node5" class="node"><title>c_dir_1</title>
<path fill="#e5e5e5" stroke="black" d="M712.333,-345C712.333,-345 511.667,-345 511.667,-345 507.833,-345 504,-341.167 504,-337.333 504,-337.333 504,-329.667 504,-329.667 504,-325.833 507.833,-322 511.667,-322 511.667,-322 712.333,-322 712.333,-322 716.167,-322 720,-325.833 720,-329.667 720,-329.667 720,-337.333 720,-337.333 720,-341.167 716.167,-345 712.333,-345"/>
<text text-anchor="middle" x="612" y="-329.8" font-family="Times,serif" font-size="14.00">Konstruktive Qualitätssicherung</text>
</g>
<!-- b_point_1&#45;&gt;c_dir_1 -->
<g id="edge2" class="edge"><title>b_point_1&#45;&gt;c_dir_1</title>
<path fill="none" stroke="black" d="M361.045,-261.501C362.934,-261.549 423.709,-263.213 468,-280.5 485.687,-287.404 486.671,-295.742 504,-303.5 517.806,-309.681 533.192,-314.89 547.896,-319.143"/>
<polygon fill="black" stroke="black" points="547.366,-322.628 557.938,-321.934 549.241,-315.884 547.366,-322.628"/>
</g>
<!-- b_point_2 -->
<g id="node18" class="node"><title>b_point_2</title>
<ellipse fill="#e5e5e5" stroke="black" cx="360" cy="-154.5" rx="0" ry="0"/>
</g>
<!-- b_point_1&#45;&gt;b_point_2 -->
<g id="edge12" class="edge"><title>b_point_1&#45;&gt;b_point_2</title>
<path fill="none" stroke="black" d="M360,-261.084C360,-225.695 360,-190.307 360,-154.918"/>
</g>
<!-- c_point_1 -->
<g id="node6" class="node"><title>c_point_1</title>
<ellipse fill="#e5e5e5" stroke="black" cx="612" cy="-285.5" rx="0" ry="0"/>
</g>
<!-- c_dir_1&#45;&gt;c_point_1 -->
<g id="edge13" class="edge"><title>c_dir_1&#45;&gt;c_point_1</title>
<path fill="none" stroke="black" d="M612,-321.966C612,-309.936 612,-297.905 612,-285.875"/>
</g>
<!-- d_dir_1 -->
<g id="node7" class="node"><title>d_dir_1</title>
<path fill="#e5e5e5" stroke="black" d="M964.333,-332C964.333,-332 763.667,-332 763.667,-332 759.833,-332 756,-328.167 756,-324.333 756,-324.333 756,-316.667 756,-316.667 756,-312.833 759.833,-309 763.667,-309 763.667,-309 964.333,-309 964.333,-309 968.167,-309 972,-312.833 972,-316.667 972,-316.667 972,-324.333 972,-324.333 972,-328.167 968.167,-332 964.333,-332"/>
<text text-anchor="middle" x="864" y="-316.8" font-family="Times,serif" font-size="14.00">Software&#45;Richtlinien</text>
</g>
<!-- c_point_1&#45;&gt;d_dir_1 -->
<g id="edge3" class="edge"><title>c_point_1&#45;&gt;d_dir_1</title>
<path fill="none" stroke="black" d="M613.046,-285.506C615.293,-285.821 700.318,-297.724 770.579,-307.561"/>
<polygon fill="black" stroke="black" points="770.438,-311.075 780.827,-308.996 771.409,-304.143 770.438,-311.075"/>
</g>
<!-- c_point_2 -->
<g id="node8" class="node"><title>c_point_2</title>
<ellipse fill="#e5e5e5" stroke="black" cx="612" cy="-249.5" rx="0" ry="0"/>
</g>
<!-- c_point_1&#45;&gt;c_point_2 -->
<g id="edge14" class="edge"><title>c_point_1&#45;&gt;c_point_2</title>
<path fill="none" stroke="black" d="M612,-285.221C612,-273.408 612,-261.594 612,-249.781"/>
</g>
<!-- d_dir_2 -->
<g id="node9" class="node"><title>d_dir_2</title>
<path fill="#e5e5e5" stroke="black" d="M964.333,-273C964.333,-273 763.667,-273 763.667,-273 759.833,-273 756,-269.167 756,-265.333 756,-265.333 756,-257.667 756,-257.667 756,-253.833 759.833,-250 763.667,-250 763.667,-250 964.333,-250 964.333,-250 968.167,-250 972,-253.833 972,-257.667 972,-257.667 972,-265.333 972,-265.333 972,-269.167 968.167,-273 964.333,-273"/>
<text text-anchor="start" x="764" y="-257.8" font-family="Times,serif" font-size="14.00">Typisierung</text>
</g>
<!-- c_point_2&#45;&gt;d_dir_2 -->
<g id="edge4" class="edge"><title>c_point_2&#45;&gt;d_dir_2</title>
<path fill="none" stroke="black" d="M613.046,-249.502C615.031,-249.597 681.601,-252.793 745.534,-255.862"/>
<polygon fill="black" stroke="black" points="745.606,-259.369 755.762,-256.353 745.941,-252.377 745.606,-259.369"/>
</g>
<!-- c_point_3 -->
<g id="node10" class="node"><title>c_point_3</title>
<ellipse fill="#e5e5e5" stroke="black" cx="612" cy="-202.5" rx="0" ry="0"/>
</g>
<!-- c_point_2&#45;&gt;c_point_3 -->
<g id="edge15" class="edge"><title>c_point_2&#45;&gt;c_point_3</title>
<path fill="none" stroke="black" d="M612,-249.136C612,-233.713 612,-218.29 612,-202.867"/>
</g>
<!-- d_dir_3 -->
<g id="node11" class="node"><title>d_dir_3</title>
<path fill="#e5e5e5" stroke="black" d="M964.333,-214C964.333,-214 763.667,-214 763.667,-214 759.833,-214 756,-210.167 756,-206.333 756,-206.333 756,-198.667 756,-198.667 756,-194.833 759.833,-191 763.667,-191 763.667,-191 964.333,-191 964.333,-191 968.167,-191 972,-194.833 972,-198.667 972,-198.667 972,-206.333 972,-206.333 972,-210.167 968.167,-214 964.333,-214"/>
<text text-anchor="middle" x="864" y="-198.8" font-family="Times,serif" font-size="14.00">Vertragsbasierte Programmierung</text>
</g>
<!-- c_point_3&#45;&gt;d_dir_3 -->
<g id="edge5" class="edge"><title>c_point_3&#45;&gt;d_dir_3</title>
<path fill="none" stroke="black" d="M613.046,-202.5C615.031,-202.5 681.601,-202.5 745.534,-202.5"/>
<polygon fill="black" stroke="black" points="745.762,-206 755.762,-202.5 745.762,-199 745.762,-206"/>
</g>
<!-- c_point_4 -->
<g id="node12" class="node"><title>c_point_4</title>
<ellipse fill="#e5e5e5" stroke="black" cx="612" cy="-143.5" rx="0" ry="0"/>
</g>
<!-- c_point_3&#45;&gt;c_point_4 -->
<g id="edge16" class="edge"><title>c_point_3&#45;&gt;c_point_4</title>
<path fill="none" stroke="black" d="M612,-202.043C612,-182.682 612,-163.322 612,-143.961"/>
</g>
<!-- d_dir_4 -->
<g id="node13" class="node"><title>d_dir_4</title>
<path fill="#e5e5e5" stroke="black" d="M964.333,-155C964.333,-155 763.667,-155 763.667,-155 759.833,-155 756,-151.167 756,-147.333 756,-147.333 756,-139.667 756,-139.667 756,-135.833 759.833,-132 763.667,-132 763.667,-132 964.333,-132 964.333,-132 968.167,-132 972,-135.833 972,-139.667 972,-139.667 972,-147.333 972,-147.333 972,-151.167 968.167,-155 964.333,-155"/>
<text text-anchor="middle" x="864" y="-139.8" font-family="Times,serif" font-size="14.00">Fehlertolerante Programmierung</text>
</g>
<!-- c_point_4&#45;&gt;d_dir_4 -->
<g id="edge6" class="edge"><title>c_point_4&#45;&gt;d_dir_4</title>
<path fill="none" stroke="black" d="M613.046,-143.5C615.031,-143.5 681.601,-143.5 745.534,-143.5"/>
<polygon fill="black" stroke="black" points="745.762,-147 755.762,-143.5 745.762,-140 745.762,-147"/>
</g>
<!-- c_point_5 -->
<g id="node14" class="node"><title>c_point_5</title>
<ellipse fill="#e5e5e5" stroke="black" cx="612" cy="-95.5" rx="0" ry="0"/>
</g>
<!-- c_point_4&#45;&gt;c_point_5 -->
<g id="edge17" class="edge"><title>c_point_4&#45;&gt;c_point_5</title>
<path fill="none" stroke="black" d="M612,-143.128C612,-127.377 612,-111.626 612,-95.875"/>
</g>
<!-- d_dir_5 -->
<g id="node15" class="node"><title>d_dir_5</title>
<path fill="#e5e5e5" stroke="black" d="M964.333,-96C964.333,-96 763.667,-96 763.667,-96 759.833,-96 756,-92.1667 756,-88.3333 756,-88.3333 756,-80.6667 756,-80.6667 756,-76.8333 759.833,-73 763.667,-73 763.667,-73 964.333,-73 964.333,-73 968.167,-73 972,-76.8333 972,-80.6667 972,-80.6667 972,-88.3333 972,-88.3333 972,-92.1667 968.167,-96 964.333,-96"/>
<text text-anchor="middle" x="864" y="-80.8" font-family="Times,serif" font-size="14.00">Portabilität</text>
</g>
<!-- c_point_5&#45;&gt;d_dir_5 -->
<g id="edge7" class="edge"><title>c_point_5&#45;&gt;d_dir_5</title>
<path fill="none" stroke="black" d="M613.046,-95.498C615.031,-95.4106 681.601,-92.4815 745.534,-89.6685"/>
<polygon fill="black" stroke="black" points="745.926,-93.1548 755.762,-89.2185 745.618,-86.1615 745.926,-93.1548"/>
</g>
<!-- c_point_6 -->
<g id="node16" class="node"><title>c_point_6</title>
<ellipse fill="#e5e5e5" stroke="black" cx="612" cy="-59.5" rx="0" ry="0"/>
</g>
<!-- c_point_5&#45;&gt;c_point_6 -->
<g id="edge18" class="edge"><title>c_point_5&#45;&gt;c_point_6</title>
<path fill="none" stroke="black" d="M612,-95.2209C612,-83.4077 612,-71.5945 612,-59.7812"/>
</g>
<!-- d_dir_6 -->
<g id="node17" class="node"><title>d_dir_6</title>
<path fill="#e5e5e5" stroke="black" d="M964.333,-37C964.333,-37 763.667,-37 763.667,-37 759.833,-37 756,-33.1667 756,-29.3333 756,-29.3333 756,-21.6667 756,-21.6667 756,-17.8333 759.833,-14 763.667,-14 763.667,-14 964.333,-14 964.333,-14 968.167,-14 972,-17.8333 972,-21.6667 972,-21.6667 972,-29.3333 972,-29.3333 972,-33.1667 968.167,-37 964.333,-37"/>
<text text-anchor="middle" x="864" y="-21.8" font-family="Times,serif" font-size="14.00">Dokumentation</text>
</g>
<!-- c_point_6&#45;&gt;d_dir_6 -->
<g id="edge8" class="edge"><title>c_point_6&#45;&gt;d_dir_6</title>
<path fill="none" stroke="black" d="M613.046,-59.4938C615.268,-59.1915 698.432,-47.8812 768.224,-38.3895"/>
<polygon fill="black" stroke="black" points="768.976,-41.8196 778.413,-37.0038 768.033,-34.8834 768.976,-41.8196"/>
</g>
<!-- c_dir_2 -->
<g id="node19" class="node"><title>c_dir_2</title>
<path fill="#e5e5e5" stroke="black" d="M712.333,-23C712.333,-23 511.667,-23 511.667,-23 507.833,-23 504,-19.1667 504,-15.3333 504,-15.3333 504,-7.66667 504,-7.66667 504,-3.83333 507.833,-0 511.667,-0 511.667,-0 712.333,-0 712.333,-0 716.167,-0 720,-3.83333 720,-7.66667 720,-7.66667 720,-15.3333 720,-15.3333 720,-19.1667 716.167,-23 712.333,-23"/>
<text text-anchor="middle" x="612" y="-7.8" font-family="Times,serif" font-size="14.00">Analytische Qualitätssicherung</text>
</g>
<!-- b_point_2&#45;&gt;c_dir_2 -->
<g id="edge9" class="edge"><title>b_point_2&#45;&gt;c_dir_2</title>
<path fill="none" stroke="black" d="M361.052,-154.445C363.213,-152.127 432.946,-77.6868 504,-41.5 516.45,-35.1591 530.42,-30.005 544.052,-25.8735"/>
<polygon fill="black" stroke="black" points="545.25,-29.1712 553.893,-23.0436 543.315,-22.4438 545.25,-29.1712"/>
</g>
</g>
</svg>
